<svg width="399" height="392" viewBox="0 0 399 392" fill="none" xmlns="http://www.w3.org/2000/svg">
<path d="M199.251 391.772C309.294 391.772 398.502 339.593 398.502 275.226C398.502 210.86 309.294 158.681 199.251 158.681C89.2077 158.681 0 210.86 0 275.226C0 339.593 89.2077 391.772 199.251 391.772Z" fill="#F0F0F0"/>
<path d="M87.0599 288.26L249.097 383.04L323.367 339.603L161.289 244.797L87.0599 288.26Z" fill="#E0E0E0"/>
<path d="M58.2561 306.943L24.7319 287.333C24.5148 287.259 24.3262 287.117 24.1927 286.928C24.0592 286.74 23.9874 286.513 23.9874 286.281C23.9874 286.049 24.0592 285.822 24.1927 285.633C24.3262 285.445 24.5148 285.303 24.7319 285.228L142.657 216.246C143.215 215.959 143.831 215.81 144.456 215.81C145.081 215.81 145.698 215.959 146.255 216.246L179.788 235.864C180.005 235.938 180.194 236.08 180.327 236.269C180.461 236.457 180.532 236.684 180.532 236.916C180.532 237.148 180.461 237.375 180.327 237.564C180.194 237.752 180.005 237.894 179.788 237.969L61.8546 306.943C61.2969 307.229 60.6805 307.378 60.0554 307.378C59.4302 307.378 58.8138 307.229 58.2561 306.943Z" fill="#E0E0E0"/>
<path d="M164.272 7.75696L64.7301 65.9708C63.6799 66.6713 62.8061 67.611 62.1784 68.7148C61.5507 69.8186 61.1865 71.0559 61.115 72.3277V299.752C61.115 302.085 62.7771 303.036 64.7301 301.866L164.272 243.652C165.324 242.953 166.199 242.013 166.827 240.909C167.455 239.805 167.818 238.567 167.887 237.295V9.87873C167.887 7.53805 166.259 6.58663 164.272 7.75696ZM162.685 216.338C162.685 218.342 161.297 219.614 159.577 220.615L69.0681 273.55C67.406 274.552 65.9683 273.744 65.9683 271.732V93.5874C66.0284 92.4959 66.3401 91.4338 66.8784 90.4863C67.4167 89.5388 68.1666 88.7323 69.0681 88.1315L159.569 35.2052C161.289 34.2033 162.677 35.02 162.677 37.0154L162.685 216.338Z" fill="#37474F"/>
<path d="M64.2813 302.093C63.2013 302.558 62.0344 302.778 60.8618 302.739C59.6891 302.7 58.5391 302.402 57.4917 301.866L53.3365 299.441C52.2788 298.749 51.3982 297.813 50.7669 296.71C50.1356 295.606 49.7716 294.366 49.7048 293.093V65.6849C49.7266 64.7366 49.9386 63.8027 50.3281 62.9401C50.4581 62.6523 50.6024 62.3713 50.7603 62.0981L62.1539 68.7581C61.9133 69.1921 61.7023 69.6422 61.5223 70.1053C61.2479 70.8289 61.0989 71.5952 61.0818 72.3702V299.753C61.1151 301.891 62.5029 302.885 64.2813 302.093Z" fill="#263238"/>
<path d="M115.357 252.771C118.515 250.927 121.075 252.425 121.075 256.138C120.967 258.148 120.394 260.103 119.4 261.846C118.407 263.588 117.021 265.068 115.357 266.166C112.207 268.019 109.648 266.52 109.648 262.798C109.757 260.79 110.33 258.837 111.322 257.095C112.314 255.353 113.696 253.871 115.357 252.771Z" fill="#00268A"/>
<path d="M114.485 41.7728C115.823 40.9898 116.911 41.6213 116.911 43.1873C116.866 44.0409 116.623 44.8715 116.201 45.6118C115.78 46.3521 115.191 46.9812 114.485 47.4477C113.147 48.2308 112.058 47.5993 112.058 46.0332C112.103 45.1797 112.346 44.349 112.768 43.6087C113.19 42.8684 113.778 42.2394 114.485 41.7728Z" fill="black"/>
<path d="M105.135 56.7265L123.867 45.7809C124.989 45.1326 125.895 45.5956 125.895 46.8249C125.839 47.5076 125.627 48.1676 125.275 48.7523C124.923 49.3371 124.441 49.8303 123.867 50.1928L105.135 61.1384C104.013 61.7867 103.108 61.3237 103.108 60.0944C103.163 59.4117 103.375 58.7517 103.728 58.167C104.08 57.5822 104.562 57.089 105.135 56.7265Z" fill="black"/>
<path d="M162.685 216.153C162.685 218.157 161.297 219.429 159.577 220.431L69.0682 273.365C67.4062 274.367 65.9685 273.559 65.9685 271.547V93.4025C66.0285 92.3109 66.3402 91.2488 66.8785 90.3013C67.4168 89.3539 68.1668 88.5474 69.0682 87.9465L159.569 34.9866C161.289 33.9762 162.677 34.7929 162.677 36.7968L162.685 216.153Z" fill="#C6F0FF"/>
<path d="M67.6888 274.216C67.3306 274.218 66.978 274.125 66.6666 273.946C66.2915 273.686 65.9909 273.331 65.7954 272.915C65.5998 272.5 65.5162 272.039 65.553 271.58V93.4024C65.6111 92.2348 65.9429 91.0981 66.521 90.0863C67.0991 89.0746 67.9068 88.2169 68.8771 87.5844L159.361 34.6581C159.721 34.3536 160.165 34.1683 160.632 34.127C161.099 34.0857 161.567 34.1904 161.974 34.4271C162.38 34.6638 162.706 35.0211 162.906 35.4508C163.106 35.8805 163.171 36.362 163.093 36.8304V216.17C163.093 218.603 161.198 219.984 159.768 220.809L69.276 273.727C68.7992 274.03 68.2513 274.199 67.6888 274.216ZM160.957 34.9865C160.539 35.0077 160.133 35.1351 159.777 35.357L69.276 88.3169C68.4398 88.8735 67.7431 89.6198 67.2411 90.4967C66.7391 91.3736 66.4456 92.3569 66.384 93.3687V271.58C66.2973 271.902 66.3182 272.243 66.4433 272.551C66.5685 272.859 66.7909 273.117 67.0758 273.283C67.3607 273.45 67.692 273.516 68.0179 273.471C68.3439 273.427 68.646 273.274 68.8771 273.037L159.361 220.06C161.364 218.898 162.261 217.694 162.261 216.153V36.8136C162.304 36.4945 162.26 36.1698 162.136 35.8735C162.012 35.5772 161.811 35.3202 161.555 35.1296C161.371 35.0296 161.165 34.9802 160.957 34.9865Z" fill="white"/>
<path d="M167.847 9.28971C167.589 7.38686 166.085 6.69644 164.273 7.75732L64.7306 65.9712C63.6606 66.6476 62.7816 67.5932 62.1793 68.716L50.7857 62.056C51.3971 60.9389 52.2813 59.9996 53.3536 59.328L152.871 1.10576C153.994 0.528814 155.235 0.228149 156.494 0.228149C157.754 0.228149 158.995 0.528814 160.118 1.10576L164.273 3.52221C165.242 4.16812 166.062 5.01735 166.679 6.01241C167.295 7.00747 167.693 8.12513 167.847 9.28971Z" fill="#455A64"/>
<path d="M71.7859 171.857L160.624 119.891V132.36L71.7859 184.326V171.857Z" fill="#455A64"/>
<path d="M75.3341 173.937V178.088L157.076 130.281V126.121L75.3341 173.937Z" fill="#263238"/>
<path d="M71.7857 171.857L68.2288 169.778L157.076 117.811L160.624 119.891L71.7857 171.857Z" fill="#37474F"/>
<path d="M68.2286 169.777L71.7854 171.857V184.327L68.2286 182.247V169.777Z" fill="#263238"/>
<path d="M327.655 334.02L249.462 379.723V377.693L327.647 331.991L327.655 334.02Z" fill="#37474F"/>
<path d="M174.843 209.08L157.616 219.184L147.028 225.364C146.688 225.541 146.355 225.743 146.031 225.953C143.965 227.233 142.26 229.032 141.082 231.175C139.904 233.319 139.293 235.734 139.308 238.187V288.327C139.315 290.56 138.801 292.763 137.809 294.757C136.817 296.751 135.375 298.48 133.599 299.803C131.136 301.685 128.14 302.712 125.055 302.733C122.567 302.727 120.125 302.056 117.975 300.788C111.494 296.994 106.113 291.539 102.371 284.971C98.6294 278.404 96.6593 270.954 96.6587 263.371V211.345C96.6601 203.758 94.6902 196.305 90.9469 189.734C87.2036 183.162 81.8189 177.705 75.3341 173.911L153.544 128.201C160.027 131.997 165.411 137.454 169.156 144.025C172.9 150.595 174.873 158.048 174.877 165.635V188.284C174.852 194.767 174.843 209.08 174.843 209.08Z" fill="#F5F5F5"/>
<path d="M203.273 350.666C196.791 346.878 191.408 341.427 187.664 334.861C183.921 328.296 181.95 320.848 181.949 313.266V263.093C181.959 257.331 180.828 251.625 178.624 246.313C175.012 237.635 168.7 230.392 160.649 225.684C158.488 224.422 156.036 223.758 153.542 223.76C151.047 223.762 148.596 224.429 146.437 225.695C144.277 226.96 142.485 228.779 141.239 230.969C139.993 233.159 139.339 235.643 139.341 238.171V288.276C139.341 290.805 138.685 293.289 137.438 295.48C136.191 297.671 134.397 299.49 132.236 300.756C130.076 302.022 127.624 302.69 125.128 302.693C122.632 302.695 120.18 302.033 118.017 300.771C111.536 296.977 106.154 291.523 102.413 284.955C98.671 278.387 96.7009 270.937 96.7002 263.354V211.345C96.6975 203.754 94.7213 196.298 90.9705 189.726C87.2197 183.155 81.8267 177.7 75.3341 173.911V175.983C81.3073 179.691 86.2425 184.889 89.6687 191.08C93.0949 197.271 94.8978 204.248 94.9052 211.345V263.354C94.9191 271.246 96.9762 278.997 100.871 285.831C104.766 292.666 110.363 298.346 117.102 302.304C119.523 303.741 122.279 304.498 125.085 304.498C127.89 304.498 130.646 303.741 133.067 302.304C133.374 302.127 133.673 301.942 133.973 301.739C136.167 300.275 137.966 298.28 139.207 295.933C140.447 293.587 141.091 290.964 141.078 288.302V238.162C141.077 235.945 141.652 233.766 142.745 231.845C143.839 229.924 145.412 228.328 147.307 227.219C149.203 226.109 151.353 225.525 153.542 225.525C155.73 225.524 157.881 226.108 159.776 227.217C165.986 230.858 171.143 236.087 174.73 242.382C178.318 248.677 180.211 255.816 180.22 263.085V313.258C180.233 321.149 182.29 328.898 186.185 335.732C190.08 342.565 195.677 348.244 202.417 352.199L249.479 379.714V377.668L203.273 350.666Z" fill="#455A64"/>
<path d="M327.646 331.992L249.462 377.669L203.273 350.641C196.79 346.853 191.407 341.402 187.664 334.836C183.92 328.271 181.949 320.823 181.948 313.241V263.093C181.958 257.331 180.828 251.625 178.624 246.313C177.93 244.658 177.139 243.047 176.255 241.488C172.512 234.924 167.129 229.474 160.648 225.685C158.595 224.468 156.272 223.799 153.894 223.738C151.517 223.678 149.163 224.229 147.052 225.339L157.64 219.159L178.94 206.698L224.531 180.033L224.639 179.966C226.792 178.691 229.242 178.019 231.736 178.019C234.23 178.019 236.679 178.691 238.833 179.966C245.315 183.756 250.697 189.209 254.439 195.776C258.181 202.343 260.15 209.792 260.149 217.374V267.539C260.15 275.122 262.12 282.572 265.861 289.14C269.603 295.707 274.985 301.162 281.465 304.956L327.646 331.992Z" fill="#FAFAFA"/>
<path d="M180.195 263.093C180.186 255.824 178.293 248.685 174.705 242.39C171.117 236.095 165.961 230.866 159.751 227.225C157.856 226.116 155.705 225.532 153.516 225.533C151.327 225.533 149.177 226.117 147.282 227.227C145.387 228.336 143.813 229.932 142.72 231.853C141.626 233.774 141.051 235.953 141.053 238.17V288.31C141.068 290.962 140.431 293.577 139.201 295.918C137.971 298.259 136.186 300.254 134.005 301.722C133.706 301.924 133.407 302.11 133.1 302.287L180.228 274.712L180.195 263.093Z" fill="#E0E0E0"/>
<path opacity="0.15" d="M180.195 263.093C180.186 255.824 178.293 248.685 174.705 242.39C171.117 236.095 165.961 230.866 159.751 227.225C157.856 226.116 155.705 225.532 153.516 225.533C151.327 225.533 149.177 226.117 147.282 227.227C145.387 228.336 143.813 229.932 142.72 231.853C141.626 233.774 141.051 235.953 141.053 238.17V288.31C141.068 290.962 140.431 293.577 139.201 295.918C137.971 298.259 136.186 300.254 134.005 301.722C133.706 301.924 133.407 302.11 133.1 302.287L180.228 274.712L180.195 263.093Z" fill="black"/>
<mask id="mask0_466_6785" style="mask-type:luminance" maskUnits="userSpaceOnUse" x="75" y="128" width="100" height="175">
<path d="M174.843 209.08L157.616 219.184L147.028 225.364C146.688 225.541 146.355 225.743 146.031 225.953C143.965 227.233 142.26 229.032 141.082 231.175C139.904 233.319 139.293 235.734 139.308 238.187V288.327C139.315 290.56 138.801 292.763 137.809 294.757C136.817 296.751 135.375 298.48 133.599 299.803C131.136 301.685 128.14 302.712 125.055 302.733C122.567 302.727 120.125 302.056 117.975 300.788C111.494 296.994 106.113 291.539 102.371 284.971C98.6294 278.404 96.6593 270.954 96.6587 263.371V211.345C96.6601 203.758 94.6902 196.305 90.9469 189.734C87.2036 183.162 81.8189 177.705 75.3341 173.911L153.544 128.201C160.027 131.997 165.411 137.454 169.156 144.025C172.9 150.595 174.873 158.048 174.877 165.635V188.284C174.852 194.767 174.843 209.08 174.843 209.08Z" fill="white"/>
</mask>
<g mask="url(#mask0_466_6785)">
<path d="M89.2205 174.18C90.1598 174.911 91.2893 175.348 92.4703 175.438C93.6512 175.528 94.8324 175.266 95.8688 174.686L151.657 142.059C153.751 140.83 154.241 138.54 152.604 137.108C150.967 135.677 147.834 135.66 145.74 136.881L89.9186 169.533C87.8243 170.754 87.575 172.757 89.2205 174.18Z" fill="#00268A"/>
<path opacity="0.4" d="M134.205 161.837C134.07 161.835 133.939 161.789 133.832 161.705C133.725 161.621 133.648 161.504 133.613 161.372C133.577 161.24 133.585 161.1 133.635 160.973C133.684 160.845 133.774 160.738 133.889 160.667L159.976 145.41C160.116 145.33 160.281 145.309 160.437 145.352C160.592 145.394 160.725 145.497 160.807 145.638C160.883 145.78 160.903 145.947 160.861 146.104C160.819 146.261 160.719 146.395 160.582 146.479L134.512 161.753C134.419 161.808 134.313 161.837 134.205 161.837Z" fill="black"/>
<path opacity="0.4" d="M136.216 165.239C136.107 165.239 136 165.211 135.905 165.156C135.81 165.101 135.731 165.022 135.676 164.927C135.601 164.784 135.583 164.618 135.625 164.461C135.666 164.305 135.765 164.171 135.9 164.085L161.987 148.829C162.127 148.764 162.287 148.755 162.434 148.803C162.58 148.85 162.705 148.952 162.782 149.087C162.86 149.222 162.885 149.381 162.853 149.534C162.822 149.687 162.735 149.823 162.61 149.915L136.524 165.154C136.431 165.211 136.324 165.24 136.216 165.239Z" fill="black"/>
<path opacity="0.4" d="M137.903 168.783C137.769 168.78 137.639 168.732 137.534 168.647C137.428 168.563 137.353 168.446 137.318 168.315C137.283 168.183 137.292 168.043 137.342 167.917C137.392 167.791 137.481 167.684 137.596 167.613L163.682 152.356C163.823 152.277 163.988 152.256 164.144 152.298C164.299 152.341 164.432 152.443 164.513 152.584C164.589 152.727 164.607 152.895 164.564 153.052C164.521 153.209 164.419 153.343 164.281 153.426L138.202 168.682C138.113 168.741 138.01 168.776 137.903 168.783Z" fill="black"/>
<path opacity="0.4" d="M139.266 172.471C139.157 172.472 139.049 172.443 138.954 172.389C138.86 172.334 138.781 172.255 138.725 172.16C138.651 172.017 138.632 171.85 138.674 171.694C138.716 171.538 138.814 171.403 138.95 171.318L165.036 156.061C165.177 155.981 165.342 155.96 165.498 156.003C165.653 156.045 165.786 156.148 165.867 156.289C165.944 156.431 165.963 156.598 165.922 156.755C165.88 156.912 165.78 157.046 165.643 157.131L139.556 172.387C139.468 172.44 139.368 172.469 139.266 172.471Z" fill="black"/>
<path opacity="0.4" d="M140.246 176.083C140.138 176.084 140.032 176.055 139.939 176C139.845 175.946 139.768 175.867 139.714 175.771C139.636 175.629 139.615 175.461 139.657 175.304C139.699 175.147 139.8 175.012 139.939 174.929L166.009 159.656C166.078 159.615 166.154 159.589 166.234 159.578C166.313 159.568 166.394 159.573 166.471 159.594C166.548 159.616 166.621 159.652 166.684 159.702C166.747 159.751 166.8 159.813 166.84 159.883C166.919 160.026 166.939 160.193 166.897 160.351C166.855 160.508 166.754 160.643 166.615 160.725L140.537 175.982C140.45 176.04 140.35 176.074 140.246 176.083Z" fill="black"/>
<path opacity="0.4" d="M140.928 179.965C140.79 179.968 140.655 179.924 140.545 179.84C140.435 179.756 140.355 179.637 140.32 179.502C140.284 179.367 140.295 179.224 140.349 179.096C140.404 178.967 140.499 178.861 140.62 178.794L166.699 163.538C166.839 163.474 166.998 163.464 167.145 163.512C167.292 163.56 167.417 163.661 167.494 163.796C167.572 163.931 167.597 164.091 167.565 164.244C167.533 164.397 167.447 164.532 167.322 164.624L141.235 179.881C141.143 179.938 141.036 179.967 140.928 179.965Z" fill="black"/>
<path opacity="0.4" d="M141.293 184.107C141.155 184.11 141.02 184.066 140.91 183.982C140.8 183.898 140.721 183.779 140.685 183.644C140.65 183.509 140.66 183.366 140.715 183.238C140.769 183.109 140.865 183.003 140.986 182.937L167.064 167.68C167.205 167.616 167.364 167.607 167.511 167.654C167.658 167.702 167.782 167.803 167.859 167.938C167.937 168.073 167.962 168.233 167.931 168.386C167.899 168.539 167.812 168.674 167.687 168.766L141.601 184.014C141.509 184.073 141.402 184.106 141.293 184.107Z" fill="black"/>
<path opacity="0.4" d="M104.104 213.652C104.027 213.651 103.951 213.629 103.884 213.59C103.817 213.55 103.761 213.493 103.722 213.425C103.665 213.322 103.651 213.2 103.682 213.087C103.713 212.973 103.787 212.877 103.888 212.819L167.172 175.772C167.273 175.713 167.392 175.697 167.504 175.727C167.616 175.757 167.712 175.831 167.771 175.932C167.8 175.982 167.82 176.038 167.828 176.095C167.836 176.153 167.833 176.212 167.818 176.269C167.803 176.325 167.777 176.378 167.742 176.424C167.707 176.471 167.663 176.509 167.613 176.538L104.32 213.585C104.256 213.627 104.181 213.65 104.104 213.652Z" fill="black"/>
<path opacity="0.4" d="M104.104 217.609C104.027 217.608 103.951 217.587 103.884 217.547C103.817 217.507 103.761 217.45 103.722 217.382C103.665 217.279 103.651 217.158 103.682 217.044C103.713 216.93 103.787 216.834 103.888 216.776L167.172 179.729C167.274 179.671 167.394 179.657 167.506 179.688C167.618 179.72 167.713 179.795 167.771 179.897C167.8 179.947 167.819 180.002 167.827 180.059C167.835 180.116 167.832 180.174 167.817 180.23C167.802 180.286 167.777 180.338 167.742 180.384C167.707 180.429 167.663 180.467 167.613 180.495L104.32 217.542C104.255 217.581 104.181 217.604 104.104 217.609Z" fill="black"/>
<path opacity="0.4" d="M104.104 221.566C104.027 221.565 103.951 221.543 103.884 221.504C103.817 221.464 103.761 221.407 103.722 221.339C103.665 221.236 103.651 221.115 103.682 221.001C103.713 220.887 103.787 220.791 103.888 220.733L167.172 183.686C167.274 183.627 167.394 183.611 167.507 183.642C167.62 183.672 167.716 183.747 167.775 183.85C167.833 183.953 167.849 184.075 167.819 184.189C167.788 184.304 167.714 184.401 167.613 184.461L104.32 221.507C104.254 221.543 104.18 221.564 104.104 221.566Z" fill="black"/>
<path opacity="0.4" d="M104.105 225.523C104.027 225.522 103.951 225.501 103.884 225.461C103.817 225.421 103.761 225.364 103.723 225.296C103.693 225.246 103.675 225.191 103.667 225.133C103.66 225.076 103.664 225.017 103.679 224.961C103.695 224.905 103.722 224.853 103.758 224.808C103.794 224.763 103.838 224.725 103.889 224.698L167.173 187.652C167.272 187.608 167.383 187.602 167.486 187.636C167.589 187.67 167.676 187.741 167.73 187.836C167.785 187.93 167.803 188.042 167.781 188.149C167.76 188.257 167.7 188.352 167.613 188.418L104.321 225.464C104.256 225.505 104.181 225.525 104.105 225.523Z" fill="black"/>
<path opacity="0.4" d="M104.104 207.893C103.999 207.908 103.892 207.883 103.804 207.824C103.716 207.764 103.652 207.674 103.625 207.57C103.599 207.465 103.611 207.355 103.659 207.26C103.708 207.164 103.789 207.09 103.888 207.051L137.387 187.45C137.437 187.412 137.494 187.386 137.555 187.372C137.615 187.358 137.678 187.358 137.739 187.37C137.8 187.383 137.857 187.408 137.908 187.445C137.958 187.481 138 187.528 138.032 187.583C138.063 187.637 138.082 187.698 138.089 187.76C138.095 187.823 138.089 187.886 138.07 187.946C138.05 188.005 138.019 188.06 137.977 188.107C137.936 188.154 137.885 188.191 137.828 188.216L104.32 207.817C104.257 207.863 104.182 207.889 104.104 207.893Z" fill="black"/>
<path d="M103.157 185.168C105.82 190.397 107.372 196.133 107.712 202.007C107.701 202.132 107.728 202.258 107.787 202.368C107.847 202.478 107.938 202.568 108.048 202.627C108.158 202.685 108.282 202.709 108.406 202.697C108.529 202.684 108.646 202.634 108.742 202.554L110.604 201.468C110.872 201.282 111.089 201.03 111.235 200.735C111.38 200.441 111.449 200.113 111.435 199.784C111.228 196.729 110.719 193.702 109.914 190.75C109.131 188.081 108.128 185.484 106.914 182.987C106.846 182.86 106.754 182.747 106.643 182.657C106.531 182.567 106.403 182.501 106.265 182.462C106.128 182.423 105.984 182.413 105.843 182.433C105.701 182.452 105.565 182.5 105.443 182.574L103.606 183.644C103.359 183.796 103.176 184.037 103.093 184.318C103.01 184.6 103.033 184.902 103.157 185.168Z" fill="#00268A"/>
<path d="M108.667 177.329C110.538 180.364 112.045 183.615 113.154 187.012C114.268 190.444 114.941 194.006 115.157 197.612C115.144 197.737 115.168 197.862 115.225 197.973C115.283 198.084 115.372 198.175 115.48 198.234C115.589 198.294 115.713 198.319 115.836 198.307C115.958 198.296 116.075 198.247 116.171 198.168L118.032 197.073C118.31 196.894 118.537 196.644 118.692 196.349C118.846 196.054 118.922 195.723 118.913 195.389C118.658 191.809 117.98 188.273 116.894 184.856C115.805 181.475 114.309 178.243 112.44 175.233C112.275 174.984 112.024 174.806 111.736 174.734C111.449 174.663 111.146 174.702 110.885 174.845L109.032 175.889C108.911 175.955 108.804 176.046 108.719 176.156C108.634 176.266 108.572 176.393 108.538 176.528C108.503 176.663 108.497 176.804 108.519 176.942C108.541 177.08 108.592 177.212 108.667 177.329Z" fill="#00268A"/>
<path d="M123.393 181.034L121.564 182.103C121.305 182.269 121.106 182.515 120.995 182.804C120.884 183.094 120.868 183.412 120.949 183.711C121.856 186.82 122.413 190.023 122.612 193.259C122.6 193.383 122.626 193.507 122.684 193.616C122.742 193.726 122.831 193.815 122.939 193.874C123.047 193.932 123.17 193.957 123.292 193.945C123.414 193.933 123.53 193.885 123.625 193.806L125.487 192.72C125.764 192.54 125.991 192.29 126.145 191.995C126.299 191.7 126.376 191.37 126.368 191.036C126.135 187.809 125.561 184.617 124.656 181.514C124.621 181.385 124.557 181.266 124.468 181.167C124.38 181.069 124.269 180.993 124.146 180.946C124.022 180.899 123.89 180.882 123.759 180.898C123.628 180.913 123.502 180.96 123.393 181.034Z" fill="#00268A"/>
<path d="M130.839 173.507C130.788 173.374 130.709 173.254 130.606 173.157C130.503 173.059 130.38 172.987 130.246 172.945C130.111 172.903 129.969 172.892 129.83 172.913C129.691 172.935 129.559 172.988 129.443 173.069L127.598 174.13C127.342 174.288 127.149 174.532 127.052 174.82C126.955 175.107 126.96 175.42 127.066 175.704C127.398 176.546 127.714 177.388 128.03 178.348C129.145 181.776 129.815 185.337 130.025 188.94C130.014 189.064 130.04 189.189 130.098 189.299C130.157 189.409 130.247 189.499 130.355 189.558C130.464 189.618 130.587 189.643 130.71 189.632C130.833 189.621 130.95 189.573 131.047 189.496L132.908 188.409C133.184 188.228 133.41 187.978 133.564 187.683C133.718 187.388 133.796 187.059 133.789 186.725C133.531 183.131 132.847 179.58 131.753 176.15C131.496 175.233 131.18 174.357 130.839 173.507Z" fill="#00268A"/>
<path opacity="0.4" d="M105.393 200.29C105.351 200.218 105.283 200.166 105.204 200.144C105.125 200.122 105.041 200.132 104.969 200.172L104.188 200.627C104.013 199.54 103.814 198.463 103.573 197.402L104.628 196.787C104.688 196.739 104.729 196.671 104.743 196.595C104.758 196.519 104.744 196.441 104.706 196.374C104.667 196.307 104.606 196.257 104.534 196.232C104.462 196.208 104.383 196.21 104.312 196.24L103.415 196.77C103.149 195.701 102.858 194.64 102.517 193.605L103.523 193.024C103.594 192.982 103.647 192.914 103.669 192.833C103.691 192.753 103.68 192.667 103.639 192.594C103.598 192.522 103.531 192.468 103.451 192.446C103.372 192.424 103.287 192.435 103.215 192.476L102.31 193.007C101.96 191.996 101.595 190.994 101.171 190.018C101.174 189.993 101.174 189.967 101.171 189.942L102.168 189.361C102.204 189.341 102.235 189.314 102.261 189.281C102.286 189.248 102.305 189.211 102.316 189.171C102.326 189.131 102.329 189.089 102.324 189.048C102.319 189.007 102.305 188.967 102.285 188.932C102.243 188.86 102.175 188.808 102.096 188.786C102.017 188.764 101.933 188.774 101.861 188.814L100.922 189.361C100.49 188.376 100.008 187.399 99.484 186.423L100.473 185.842C100.509 185.821 100.54 185.794 100.565 185.762C100.591 185.729 100.609 185.692 100.62 185.652C100.631 185.612 100.634 185.57 100.629 185.529C100.623 185.488 100.61 185.448 100.589 185.412C100.548 185.341 100.48 185.288 100.401 185.266C100.322 185.244 100.237 185.254 100.165 185.294L99.1848 185.875C98.6529 184.932 98.0878 183.998 97.4728 183.071L98.5948 182.423C98.6307 182.403 98.6623 182.376 98.6874 182.343C98.7125 182.31 98.7307 182.273 98.7408 182.232C98.751 182.192 98.7528 182.15 98.7463 182.109C98.7397 182.068 98.7249 182.029 98.7028 181.994C98.6829 181.957 98.6561 181.926 98.6239 181.9C98.5917 181.874 98.5548 181.856 98.5153 181.845C98.4759 181.834 98.4346 181.831 98.394 181.836C98.3534 181.841 98.3143 181.855 98.279 181.876L97.1321 182.558C96.4673 181.59 95.7775 180.63 95.0296 179.678C94.9745 179.624 94.9017 179.591 94.8247 179.587C94.7477 179.583 94.6719 179.608 94.6117 179.656C94.5514 179.705 94.5107 179.774 94.4974 179.851C94.4841 179.928 94.4989 180.008 94.5393 180.074C95.2706 180.992 95.952 181.926 96.5919 182.869L95.5282 183.492C95.47 183.527 95.4246 183.579 95.3987 183.642C95.3728 183.705 95.368 183.775 95.385 183.841C95.4019 183.906 95.4398 183.965 95.4926 184.007C95.5455 184.049 95.6106 184.072 95.6778 184.073C95.7292 184.09 95.7843 184.09 95.8357 184.073L96.941 183.434C97.5476 184.36 98.1211 185.286 98.6446 186.229L97.4064 186.953C97.3476 186.988 97.3018 187.041 97.2761 187.105C97.2504 187.168 97.2462 187.239 97.2642 187.305C97.2823 187.371 97.3215 187.43 97.3758 187.471C97.43 187.513 97.4963 187.535 97.5643 187.534C97.6129 187.55 97.6652 187.55 97.7138 187.534L98.9438 186.818C99.4673 187.795 99.9494 188.78 100.381 189.765L99.1017 190.514C99.0429 190.549 98.9971 190.602 98.9714 190.666C98.9457 190.73 98.9415 190.8 98.9596 190.867C98.9776 190.933 99.0168 190.991 99.0711 191.033C99.1254 191.074 99.1916 191.096 99.2596 191.095C99.3125 191.097 99.3648 191.083 99.4092 191.053L100.631 190.338C101.055 191.331 101.462 192.358 101.786 193.394L100.481 194.16C100.423 194.194 100.378 194.247 100.352 194.31C100.326 194.373 100.321 194.442 100.338 194.508C100.355 194.574 100.393 194.633 100.446 194.675C100.499 194.717 100.564 194.74 100.631 194.741C100.682 194.757 100.737 194.757 100.789 194.741L101.994 194.034C102.334 195.078 102.625 196.13 102.883 197.208L101.587 197.966C101.551 197.986 101.519 198.013 101.494 198.046C101.469 198.078 101.45 198.116 101.439 198.156C101.428 198.196 101.426 198.238 101.431 198.279C101.436 198.32 101.45 198.36 101.47 198.395C101.497 198.442 101.536 198.481 101.583 198.508C101.629 198.535 101.682 198.548 101.736 198.547C101.788 198.563 101.843 198.563 101.894 198.547L103.041 197.882C103.282 198.943 103.473 200.029 103.639 201.115L102.235 201.957C102.176 201.991 102.13 202.045 102.104 202.108C102.079 202.172 102.075 202.243 102.093 202.309C102.111 202.375 102.15 202.434 102.204 202.475C102.258 202.517 102.325 202.539 102.393 202.538C102.446 202.54 102.498 202.525 102.542 202.496L103.739 201.797C103.922 203.119 104.046 204.466 104.121 205.83C104.125 205.91 104.16 205.985 104.217 206.039C104.274 206.094 104.35 206.125 104.429 206.125C104.469 206.122 104.509 206.112 104.545 206.095C104.582 206.077 104.614 206.052 104.641 206.022C104.668 205.991 104.689 205.955 104.703 205.917C104.716 205.878 104.722 205.837 104.72 205.796C104.645 204.331 104.503 202.883 104.304 201.46L105.285 200.888C105.354 200.885 105.421 200.858 105.474 200.811C105.526 200.765 105.562 200.702 105.574 200.632C105.587 200.563 105.576 200.491 105.543 200.429C105.51 200.367 105.457 200.318 105.393 200.29Z" fill="black"/>
<g opacity="0.15">
<path d="M108.567 261.829C108.303 259.459 108.209 257.073 108.285 254.689C108.534 253.771 112.307 240.645 119.255 236.562C119.677 236.293 120.14 236.096 120.626 235.981C120.811 235.935 121.001 235.912 121.191 235.913C123.036 235.913 123.859 238.507 124.656 241.016C124.957 242.043 125.324 243.05 125.753 244.03C126.227 245.04 127.033 246.379 128.562 246.379C129.236 246.351 129.892 246.148 130.465 245.79C133.79 243.861 134.762 238.641 135.784 233.118C136.193 230.645 136.748 228.199 137.446 225.793C138.46 222.568 139.773 220.573 141.601 219.512C142.065 219.211 142.597 219.034 143.147 218.998C145.083 218.998 145.815 222.492 146.521 225.869C146.827 227.636 147.3 229.371 147.934 231.047C148.64 232.672 149.596 233.463 150.768 233.463C151.457 233.428 152.126 233.217 152.712 232.848C156.809 230.457 158.048 226.391 159.244 222.467C160.267 219.099 161.222 215.984 163.923 214.392C164.525 214.002 165.22 213.781 165.934 213.753C166.237 213.752 166.538 213.803 166.823 213.904C166.898 214.53 166.939 215.16 166.948 215.79L166.998 223.738C167.065 225.262 167.173 226.458 167.306 227.485L108.567 261.829Z" fill="#00268A"/>
<path d="M167.787 227.696C167.613 226.508 167.513 225.17 167.438 223.713L167.396 215.765C167.385 215.032 167.329 214.301 167.23 213.576C166.829 213.378 166.388 213.278 165.942 213.281C165.151 213.308 164.382 213.549 163.715 213.98C157.682 217.533 159.984 228.066 152.496 232.444C151.962 232.788 151.349 232.985 150.717 233.017C149.596 233.017 148.848 232.175 148.282 230.861C146.521 226.837 146.562 218.56 143.097 218.56C142.47 218.591 141.862 218.789 141.335 219.133C139.191 220.387 137.903 222.787 137.005 225.666C134.77 232.756 134.903 242.716 130.249 245.402C129.748 245.721 129.177 245.906 128.587 245.941C127.481 245.941 126.75 245.099 126.168 243.845C124.731 240.78 124.224 235.467 121.182 235.467C120.961 235.469 120.741 235.494 120.526 235.543C119.997 235.673 119.493 235.886 119.03 236.174C111.625 240.536 107.836 254.622 107.836 254.622C107.753 257.268 107.872 259.917 108.193 262.545L109.024 262.048C108.959 261.734 108.912 261.416 108.883 261.097C108.685 258.99 108.615 256.872 108.675 254.757C109.024 253.51 112.739 240.889 119.437 236.94C119.822 236.698 120.243 236.519 120.684 236.41C120.836 236.371 120.992 236.351 121.149 236.351C122.67 236.351 123.451 238.793 124.199 241.15C124.503 242.198 124.875 243.225 125.312 244.224C125.62 244.863 126.534 246.825 128.52 246.825C129.272 246.801 130.003 246.574 130.639 246.168C134.155 244.148 135.135 238.826 136.166 233.194C136.578 230.74 137.133 228.314 137.828 225.927C138.809 222.821 140.055 220.876 141.767 219.899C142.161 219.634 142.617 219.478 143.088 219.444C144.667 219.444 145.399 222.905 146.039 225.961C146.347 227.758 146.826 229.52 147.468 231.223C148.241 233 149.33 233.909 150.709 233.909C151.497 233.88 152.263 233.639 152.928 233.211C157.175 230.727 158.496 226.391 159.659 222.568C160.657 219.318 161.587 216.253 164.147 214.746C164.681 214.395 165.298 214.194 165.934 214.165C166.096 214.163 166.258 214.183 166.416 214.224C166.507 215.117 166.516 215.756 166.516 215.765V223.755C166.582 225.128 166.673 226.281 166.79 227.224C166.826 227.537 166.884 227.846 166.964 228.15L167.737 227.696" fill="black"/>
</g>
<g opacity="0.4">
<path d="M107.835 250.606V254.622C107.752 257.269 107.871 259.918 108.193 262.545L167.779 227.696C167.604 226.509 167.496 225.17 167.43 223.705L167.388 215.765C167.388 215.765 167.388 203.885 159.909 208.246C152.08 212.827 154.291 227.359 148.739 230.609C143.188 233.859 145.016 220.91 137.57 225.271C130.124 229.633 133.847 239.324 126.401 243.677C118.955 248.03 122.678 226.063 115.232 230.416C107.786 234.769 107.835 245.596 107.835 250.606Z" fill="#00268A"/>
</g>
<path opacity="0.4" d="M105.119 268.675C105.064 268.674 105.011 268.659 104.964 268.631C104.918 268.603 104.879 268.563 104.853 268.515C104.832 268.479 104.819 268.439 104.813 268.398C104.808 268.357 104.811 268.315 104.822 268.275C104.832 268.235 104.851 268.198 104.876 268.165C104.902 268.133 104.933 268.105 104.969 268.085L168.344 231.316C168.415 231.277 168.498 231.267 168.576 231.289C168.654 231.311 168.72 231.363 168.76 231.434C168.781 231.47 168.795 231.509 168.801 231.55C168.806 231.59 168.804 231.632 168.794 231.672C168.784 231.712 168.766 231.749 168.742 231.782C168.718 231.815 168.687 231.843 168.652 231.864L105.276 268.633C105.228 268.659 105.174 268.674 105.119 268.675Z" fill="black"/>
<path d="M115.315 232.537C115.233 232.537 115.154 232.505 115.095 232.446C115.036 232.388 115.002 232.309 115 232.226V231.594C114.999 231.553 115.006 231.512 115.021 231.474C115.036 231.435 115.058 231.4 115.087 231.371C115.116 231.342 115.15 231.319 115.188 231.304C115.226 231.289 115.266 231.281 115.307 231.283C115.389 231.283 115.467 231.315 115.525 231.374C115.582 231.432 115.615 231.511 115.615 231.594V232.226C115.613 232.306 115.581 232.383 115.525 232.441C115.47 232.498 115.395 232.533 115.315 232.537Z" fill="white"/>
<path d="M115.449 256.685C115.372 256.683 115.298 256.653 115.241 256.601C115.185 256.548 115.149 256.476 115.141 256.399C115.141 255.994 115.075 255.557 115.05 255.186C115.047 255.145 115.053 255.104 115.067 255.066C115.08 255.027 115.101 254.991 115.128 254.961C115.155 254.93 115.188 254.906 115.224 254.888C115.261 254.87 115.3 254.86 115.341 254.858C115.381 254.852 115.422 254.855 115.461 254.866C115.501 254.878 115.537 254.898 115.568 254.925C115.599 254.952 115.623 254.986 115.64 255.024C115.657 255.062 115.665 255.103 115.665 255.144C115.665 255.548 115.723 255.944 115.756 256.34C115.761 256.381 115.757 256.422 115.746 256.462C115.735 256.501 115.716 256.538 115.69 256.57C115.665 256.602 115.633 256.629 115.597 256.649C115.562 256.668 115.522 256.681 115.482 256.685H115.449ZM115.307 254.277C115.225 254.277 115.146 254.244 115.087 254.186C115.028 254.128 114.994 254.049 114.992 253.965C114.992 253.62 114.992 253.216 114.992 252.753C114.992 252.67 115.024 252.591 115.082 252.533C115.139 252.474 115.217 252.441 115.299 252.441C115.482 252.441 115.606 252.576 115.615 252.753C115.615 253.208 115.615 253.595 115.615 253.957C115.616 253.999 115.609 254.04 115.594 254.079C115.579 254.117 115.556 254.153 115.528 254.183C115.499 254.212 115.465 254.236 115.427 254.252C115.389 254.269 115.348 254.277 115.307 254.277ZM115.307 251.86C115.226 251.858 115.149 251.825 115.092 251.767C115.035 251.709 115.002 251.631 115 251.549V250.336C115.002 250.254 115.035 250.176 115.092 250.119C115.149 250.061 115.226 250.027 115.307 250.025C115.388 250.027 115.465 250.061 115.522 250.119C115.58 250.176 115.613 250.254 115.615 250.336V251.549C115.613 251.632 115.578 251.712 115.519 251.77C115.46 251.828 115.381 251.86 115.299 251.86H115.307ZM115.307 249.444C115.226 249.444 115.148 249.411 115.09 249.353C115.032 249.294 115 249.215 115 249.132V247.92C115.002 247.837 115.036 247.757 115.095 247.699C115.154 247.641 115.233 247.608 115.316 247.608C115.396 247.611 115.473 247.644 115.531 247.702C115.588 247.76 115.621 247.838 115.623 247.92V249.132C115.623 249.215 115.591 249.294 115.533 249.353C115.475 249.411 115.397 249.444 115.316 249.444H115.307ZM115.307 247.028C115.226 247.025 115.149 246.992 115.092 246.934C115.035 246.876 115.002 246.798 115 246.716V245.478C115.012 245.403 115.05 245.335 115.107 245.286C115.164 245.237 115.237 245.21 115.311 245.21C115.386 245.21 115.459 245.237 115.516 245.286C115.573 245.335 115.611 245.403 115.623 245.478V246.691C115.626 246.738 115.618 246.785 115.601 246.829C115.584 246.873 115.557 246.912 115.523 246.945C115.489 246.977 115.448 247.001 115.404 247.015C115.359 247.03 115.312 247.034 115.266 247.028H115.307ZM115.307 244.611C115.226 244.611 115.148 244.578 115.09 244.52C115.032 244.461 115 244.382 115 244.3V243.096C115 243.013 115.032 242.934 115.09 242.875C115.148 242.817 115.226 242.784 115.307 242.784C115.389 242.784 115.467 242.817 115.525 242.875C115.582 242.934 115.615 243.013 115.615 243.096V244.3C115.619 244.346 115.613 244.393 115.596 244.437C115.58 244.481 115.554 244.521 115.521 244.553C115.487 244.586 115.447 244.61 115.403 244.624C115.358 244.639 115.312 244.643 115.266 244.636L115.307 244.611ZM115.307 242.195C115.267 242.196 115.226 242.188 115.188 242.173C115.15 242.158 115.116 242.135 115.087 242.106C115.059 242.077 115.036 242.042 115.021 242.004C115.006 241.965 114.999 241.924 115 241.883V240.679C115 240.596 115.032 240.517 115.09 240.459C115.148 240.4 115.226 240.368 115.307 240.368C115.389 240.368 115.467 240.4 115.525 240.459C115.582 240.517 115.615 240.596 115.615 240.679V241.883C115.617 241.928 115.609 241.973 115.591 242.015C115.574 242.056 115.547 242.093 115.514 242.123C115.48 242.153 115.441 242.175 115.398 242.187C115.355 242.2 115.31 242.202 115.266 242.195H115.307ZM115.307 239.778C115.267 239.779 115.226 239.772 115.188 239.757C115.15 239.742 115.116 239.719 115.087 239.689C115.059 239.66 115.036 239.626 115.021 239.587C115.006 239.549 114.999 239.508 115 239.467V238.263C115 238.179 115.032 238.099 115.089 238.039C115.147 237.98 115.225 237.945 115.307 237.943C115.348 237.943 115.389 237.951 115.427 237.967C115.465 237.983 115.499 238.007 115.528 238.037C115.556 238.067 115.579 238.102 115.594 238.141C115.609 238.18 115.616 238.221 115.615 238.263V239.467C115.617 239.512 115.609 239.557 115.591 239.598C115.574 239.64 115.547 239.677 115.514 239.707C115.48 239.737 115.441 239.759 115.398 239.771C115.355 239.783 115.31 239.786 115.266 239.778H115.307ZM115.307 237.37C115.225 237.368 115.147 237.333 115.089 237.273C115.032 237.214 115 237.134 115 237.05V235.846C115.012 235.771 115.05 235.703 115.107 235.654C115.164 235.605 115.237 235.578 115.311 235.578C115.386 235.578 115.459 235.605 115.516 235.654C115.573 235.703 115.611 235.771 115.623 235.846V237.059C115.621 237.103 115.61 237.147 115.591 237.187C115.571 237.227 115.544 237.263 115.511 237.292C115.477 237.322 115.438 237.344 115.396 237.357C115.354 237.37 115.31 237.375 115.266 237.37H115.307ZM115.307 234.954C115.226 234.952 115.149 234.918 115.092 234.86C115.035 234.802 115.002 234.724 115 234.642V233.438C115 233.353 115.033 233.272 115.092 233.212C115.152 233.152 115.232 233.118 115.316 233.118C115.397 233.118 115.475 233.151 115.533 233.209C115.591 233.268 115.623 233.347 115.623 233.43V234.642C115.622 234.687 115.612 234.732 115.593 234.772C115.574 234.813 115.547 234.85 115.513 234.879C115.48 234.908 115.44 234.93 115.397 234.943C115.355 234.956 115.31 234.96 115.266 234.954H115.307Z" fill="white"/>
<path d="M115.648 258.504C115.573 258.503 115.502 258.475 115.446 258.426C115.389 258.376 115.352 258.309 115.34 258.234L115.266 257.603C115.261 257.562 115.265 257.52 115.276 257.481C115.288 257.441 115.307 257.405 115.332 257.372C115.358 257.34 115.389 257.314 115.425 257.294C115.46 257.274 115.499 257.262 115.54 257.257C115.58 257.253 115.621 257.257 115.66 257.268C115.699 257.28 115.735 257.299 115.767 257.325C115.799 257.351 115.825 257.383 115.844 257.419C115.864 257.455 115.876 257.494 115.88 257.535L115.955 258.15C115.961 258.191 115.959 258.233 115.949 258.273C115.938 258.313 115.92 258.35 115.896 258.383C115.871 258.416 115.84 258.444 115.804 258.464C115.769 258.485 115.73 258.498 115.689 258.504H115.648Z" fill="white"/>
<path d="M159.959 209.19C159.875 209.19 159.795 209.156 159.735 209.096C159.676 209.036 159.643 208.955 159.643 208.87V208.247C159.643 208.162 159.676 208.08 159.735 208.02C159.795 207.96 159.875 207.927 159.959 207.927C160.041 207.929 160.119 207.964 160.177 208.023C160.234 208.083 160.266 208.163 160.266 208.247V208.87C160.266 208.953 160.234 209.033 160.177 209.093C160.119 209.153 160.041 209.188 159.959 209.19Z" fill="white"/>
<path d="M160.134 233.337C160.057 233.336 159.983 233.306 159.927 233.253C159.87 233.2 159.834 233.128 159.826 233.051C159.785 232.647 159.76 232.209 159.735 231.838C159.73 231.755 159.758 231.673 159.812 231.61C159.867 231.547 159.943 231.508 160.026 231.502C160.066 231.498 160.107 231.503 160.146 231.516C160.185 231.53 160.22 231.551 160.251 231.578C160.281 231.606 160.305 231.639 160.322 231.677C160.339 231.714 160.349 231.755 160.35 231.796C160.35 232.201 160.408 232.596 160.441 232.992C160.446 233.034 160.442 233.076 160.43 233.116C160.418 233.156 160.399 233.193 160.372 233.225C160.346 233.258 160.313 233.284 160.277 233.303C160.24 233.323 160.2 233.334 160.159 233.337H160.134ZM159.992 230.929C159.91 230.929 159.831 230.897 159.772 230.838C159.713 230.78 159.679 230.701 159.677 230.618C159.677 230.272 159.677 229.868 159.677 229.405C159.677 229.323 159.709 229.243 159.767 229.185C159.824 229.126 159.903 229.094 159.984 229.094C160.066 229.094 160.144 229.126 160.202 229.185C160.259 229.243 160.292 229.323 160.292 229.405C160.292 229.86 160.292 230.247 160.292 230.609C160.293 230.651 160.286 230.692 160.271 230.731C160.256 230.77 160.233 230.805 160.205 230.835C160.176 230.865 160.142 230.888 160.104 230.905C160.066 230.921 160.025 230.929 159.984 230.929H159.992ZM159.992 228.513C159.952 228.513 159.912 228.505 159.875 228.489C159.837 228.473 159.804 228.45 159.775 228.421C159.746 228.393 159.724 228.358 159.708 228.32C159.693 228.283 159.685 228.242 159.685 228.201V226.955C159.685 226.872 159.717 226.793 159.775 226.735C159.833 226.676 159.911 226.644 159.992 226.644C160.075 226.643 160.154 226.676 160.213 226.734C160.272 226.792 160.306 226.872 160.308 226.955V228.159C160.309 228.201 160.302 228.242 160.287 228.281C160.272 228.32 160.25 228.355 160.221 228.385C160.193 228.415 160.158 228.438 160.12 228.455C160.083 228.471 160.042 228.479 160.001 228.479L159.992 228.513ZM159.992 226.096C159.91 226.096 159.831 226.064 159.772 226.006C159.713 225.947 159.679 225.868 159.677 225.785V224.572C159.679 224.49 159.712 224.412 159.769 224.354C159.826 224.296 159.903 224.263 159.984 224.261C160.066 224.261 160.146 224.293 160.205 224.351C160.264 224.41 160.298 224.489 160.3 224.572V225.785C160.298 225.867 160.265 225.945 160.208 226.003C160.15 226.061 160.073 226.094 159.992 226.096ZM159.992 223.68C159.912 223.678 159.835 223.644 159.777 223.586C159.72 223.528 159.687 223.45 159.685 223.368V222.156C159.685 222.073 159.717 221.994 159.775 221.936C159.833 221.877 159.911 221.844 159.992 221.844C160.074 221.844 160.152 221.877 160.21 221.936C160.268 221.994 160.3 222.073 160.3 222.156V223.368C160.3 223.413 160.291 223.457 160.273 223.498C160.255 223.539 160.229 223.575 160.196 223.605C160.163 223.634 160.124 223.656 160.081 223.669C160.039 223.682 159.995 223.686 159.951 223.68H159.992ZM159.992 221.263C159.91 221.263 159.831 221.231 159.772 221.173C159.713 221.114 159.679 221.035 159.677 220.952V219.739C159.689 219.664 159.727 219.596 159.784 219.547C159.841 219.498 159.913 219.471 159.988 219.471C160.063 219.471 160.136 219.498 160.193 219.547C160.25 219.596 160.288 219.664 160.3 219.739V220.952C160.299 220.996 160.289 221.04 160.271 221.08C160.252 221.12 160.226 221.156 160.193 221.185C160.16 221.215 160.122 221.237 160.08 221.25C160.038 221.263 159.994 221.268 159.951 221.263H159.992ZM159.992 218.847C159.951 218.848 159.91 218.841 159.872 218.826C159.834 218.81 159.799 218.788 159.77 218.759C159.74 218.73 159.717 218.695 159.701 218.657C159.685 218.618 159.677 218.577 159.677 218.535V217.331C159.669 217.286 159.672 217.239 159.684 217.194C159.696 217.149 159.718 217.108 159.748 217.072C159.777 217.037 159.814 217.009 159.856 216.989C159.897 216.97 159.942 216.96 159.988 216.96C160.034 216.96 160.079 216.97 160.121 216.989C160.162 217.009 160.199 217.037 160.229 217.072C160.259 217.108 160.28 217.149 160.293 217.194C160.305 217.239 160.307 217.286 160.3 217.331V218.535C160.3 218.58 160.291 218.624 160.273 218.665C160.255 218.706 160.229 218.742 160.196 218.772C160.163 218.802 160.124 218.824 160.081 218.836C160.039 218.849 159.995 218.853 159.951 218.847H159.992ZM159.992 216.43C159.951 216.432 159.91 216.424 159.872 216.409C159.834 216.394 159.799 216.371 159.77 216.342C159.74 216.313 159.717 216.278 159.701 216.24C159.685 216.202 159.677 216.161 159.677 216.119V214.915C159.676 214.873 159.683 214.832 159.698 214.793C159.713 214.754 159.735 214.719 159.764 214.689C159.792 214.659 159.827 214.636 159.865 214.619C159.902 214.603 159.943 214.595 159.984 214.595C160.066 214.597 160.145 214.632 160.202 214.692C160.26 214.751 160.292 214.831 160.292 214.915V216.119C160.292 216.163 160.283 216.206 160.265 216.246C160.248 216.287 160.222 216.323 160.19 216.352C160.158 216.381 160.12 216.404 160.079 216.417C160.038 216.431 159.994 216.435 159.951 216.43H159.992ZM159.992 214.022C159.951 214.022 159.911 214.014 159.873 213.998C159.835 213.982 159.801 213.958 159.772 213.928C159.743 213.898 159.721 213.863 159.706 213.824C159.691 213.785 159.684 213.744 159.685 213.702V212.498C159.685 212.416 159.717 212.337 159.775 212.278C159.833 212.22 159.911 212.187 159.992 212.187C160.074 212.187 160.152 212.22 160.21 212.278C160.268 212.337 160.3 212.416 160.3 212.498V213.702C160.3 213.747 160.291 213.792 160.273 213.833C160.255 213.874 160.229 213.911 160.196 213.941C160.163 213.972 160.124 213.994 160.082 214.008C160.04 214.022 159.995 214.027 159.951 214.022H159.992ZM159.992 211.606C159.91 211.604 159.832 211.569 159.774 211.509C159.717 211.45 159.685 211.369 159.685 211.286V210.116C159.697 210.041 159.735 209.973 159.792 209.924C159.849 209.874 159.922 209.847 159.997 209.847C160.071 209.847 160.144 209.874 160.201 209.924C160.258 209.973 160.296 210.041 160.308 210.116V211.328C160.303 211.37 160.29 211.411 160.269 211.448C160.248 211.485 160.22 211.517 160.187 211.543C160.154 211.569 160.116 211.588 160.075 211.598C160.035 211.609 159.992 211.612 159.951 211.606H159.992Z" fill="white"/>
<path d="M160.333 235.156C160.258 235.155 160.187 235.127 160.131 235.078C160.074 235.028 160.037 234.961 160.025 234.886L159.951 234.255C159.945 234.214 159.947 234.173 159.957 234.133C159.968 234.094 159.986 234.057 160.011 234.025C160.036 233.992 160.067 233.966 160.102 233.946C160.137 233.926 160.176 233.914 160.216 233.91C160.257 233.904 160.298 233.906 160.338 233.916C160.377 233.927 160.414 233.945 160.447 233.97C160.479 233.995 160.507 234.027 160.527 234.062C160.547 234.098 160.56 234.138 160.566 234.179L160.64 234.802C160.646 234.843 160.644 234.885 160.634 234.925C160.623 234.965 160.605 235.002 160.581 235.035C160.556 235.068 160.525 235.096 160.489 235.117C160.454 235.137 160.415 235.151 160.374 235.156H160.333Z" fill="white"/>
<path d="M137.612 227.3C137.53 227.3 137.451 227.268 137.392 227.209C137.333 227.151 137.299 227.072 137.296 226.989V226.357C137.309 226.282 137.347 226.214 137.404 226.165C137.461 226.116 137.533 226.089 137.608 226.089C137.683 226.089 137.755 226.116 137.813 226.165C137.87 226.214 137.908 226.282 137.92 226.357V226.955C137.923 226.998 137.918 227.042 137.904 227.083C137.89 227.124 137.868 227.162 137.839 227.195C137.811 227.227 137.776 227.253 137.737 227.271C137.698 227.289 137.655 227.299 137.612 227.3Z" fill="white"/>
<path d="M137.754 243.794C137.676 243.795 137.602 243.765 137.545 243.712C137.488 243.659 137.452 243.586 137.446 243.508C137.446 243.121 137.38 242.725 137.355 242.329C137.35 242.246 137.378 242.164 137.432 242.101C137.487 242.038 137.563 241.999 137.646 241.993C137.687 241.988 137.729 241.992 137.768 242.005C137.808 242.017 137.845 242.038 137.876 242.066C137.907 242.093 137.932 242.127 137.95 242.166C137.968 242.204 137.977 242.245 137.978 242.287C137.978 242.675 138.028 243.062 138.061 243.449C138.066 243.49 138.062 243.532 138.051 243.571C138.04 243.611 138.021 243.648 137.995 243.68C137.97 243.712 137.938 243.739 137.902 243.758C137.867 243.778 137.827 243.79 137.787 243.794H137.754ZM137.612 241.445C137.53 241.445 137.451 241.413 137.392 241.355C137.333 241.296 137.299 241.217 137.297 241.134V239.955C137.295 239.913 137.303 239.872 137.318 239.833C137.333 239.794 137.355 239.759 137.384 239.729C137.412 239.699 137.447 239.676 137.484 239.66C137.522 239.643 137.563 239.635 137.604 239.635C137.685 239.637 137.762 239.671 137.819 239.729C137.876 239.787 137.909 239.865 137.912 239.947V241.125C137.912 241.209 137.879 241.289 137.822 241.349C137.765 241.408 137.686 241.443 137.604 241.445H137.612ZM137.612 239.088C137.572 239.089 137.531 239.082 137.493 239.066C137.456 239.051 137.421 239.028 137.392 238.999C137.364 238.97 137.341 238.935 137.326 238.897C137.311 238.859 137.304 238.818 137.305 238.776V237.598C137.305 237.514 137.337 237.434 137.394 237.374C137.452 237.314 137.53 237.28 137.612 237.278C137.653 237.278 137.694 237.286 137.732 237.302C137.77 237.318 137.804 237.342 137.833 237.372C137.861 237.402 137.884 237.437 137.899 237.476C137.914 237.515 137.921 237.556 137.92 237.598V238.743C137.92 238.825 137.887 238.904 137.83 238.963C137.772 239.021 137.694 239.054 137.612 239.054V239.088ZM137.612 236.73C137.53 236.73 137.451 236.698 137.392 236.64C137.333 236.581 137.299 236.502 137.297 236.419V235.24C137.297 235.157 137.329 235.078 137.387 235.02C137.444 234.961 137.523 234.928 137.604 234.928C137.645 234.927 137.686 234.935 137.724 234.95C137.763 234.965 137.797 234.988 137.827 235.017C137.856 235.046 137.88 235.08 137.896 235.119C137.912 235.157 137.92 235.198 137.92 235.24V236.419C137.918 236.501 137.885 236.579 137.827 236.637C137.77 236.695 137.693 236.728 137.612 236.73ZM137.612 234.373C137.531 234.373 137.453 234.34 137.395 234.282C137.337 234.223 137.305 234.144 137.305 234.061V232.849C137.317 232.774 137.355 232.706 137.412 232.657C137.469 232.608 137.542 232.581 137.617 232.581C137.691 232.581 137.764 232.608 137.821 232.657C137.878 232.706 137.916 232.774 137.928 232.849V234.028C137.932 234.072 137.926 234.117 137.911 234.159C137.896 234.201 137.873 234.239 137.842 234.271C137.811 234.303 137.774 234.328 137.733 234.344C137.692 234.36 137.648 234.367 137.604 234.364L137.612 234.373ZM137.612 232.024C137.53 232.021 137.452 231.987 137.394 231.927C137.337 231.867 137.305 231.787 137.305 231.704V230.525C137.317 230.45 137.355 230.382 137.412 230.333C137.469 230.284 137.542 230.257 137.617 230.257C137.691 230.257 137.764 230.284 137.821 230.333C137.878 230.382 137.916 230.45 137.928 230.525V231.704C137.924 231.787 137.888 231.866 137.827 231.922C137.766 231.979 137.686 232.009 137.604 232.007L137.612 232.024ZM137.612 229.666C137.53 229.664 137.452 229.629 137.394 229.57C137.337 229.51 137.305 229.43 137.305 229.346V228.176C137.298 228.13 137.3 228.083 137.312 228.039C137.325 227.994 137.346 227.952 137.376 227.917C137.406 227.882 137.442 227.853 137.484 227.834C137.526 227.814 137.571 227.804 137.617 227.804C137.662 227.804 137.708 227.814 137.749 227.834C137.791 227.853 137.828 227.882 137.857 227.917C137.887 227.952 137.909 227.994 137.921 228.039C137.933 228.083 137.936 228.13 137.928 228.176V229.355C137.924 229.437 137.889 229.514 137.83 229.57C137.771 229.626 137.693 229.658 137.612 229.658V229.666Z" fill="white"/>
<path d="M137.986 245.58C137.911 245.579 137.84 245.551 137.784 245.502C137.727 245.452 137.69 245.385 137.678 245.31L137.603 244.679C137.598 244.638 137.6 244.596 137.611 244.556C137.622 244.516 137.641 244.478 137.667 244.446C137.692 244.413 137.724 244.387 137.761 244.367C137.797 244.348 137.837 244.337 137.878 244.334C137.958 244.324 138.039 244.347 138.103 244.397C138.166 244.448 138.208 244.522 138.218 244.603L138.293 245.226C138.299 245.267 138.297 245.309 138.287 245.349C138.276 245.389 138.258 245.426 138.233 245.459C138.209 245.492 138.178 245.52 138.142 245.541C138.107 245.561 138.068 245.574 138.027 245.58H137.986Z" fill="white"/>
<path opacity="0.4" d="M115.265 229.178C115.855 228.833 116.337 229.06 116.337 229.691C116.306 230.05 116.193 230.397 116.007 230.704C115.821 231.01 115.567 231.269 115.265 231.46C114.675 231.805 114.193 231.569 114.193 230.946C114.222 230.587 114.335 230.24 114.521 229.932C114.707 229.625 114.962 229.367 115.265 229.178Z" fill="black"/>
<path opacity="0.4" d="M137.612 223.941C138.202 223.596 138.684 223.823 138.684 224.454C138.654 224.812 138.541 225.158 138.354 225.463C138.168 225.769 137.914 226.026 137.612 226.214C137.022 226.568 136.54 226.332 136.54 225.709C136.569 225.35 136.682 225.002 136.868 224.695C137.054 224.388 137.309 224.13 137.612 223.941Z" fill="black"/>
<path opacity="0.4" d="M159.95 207.101C160.54 206.756 161.022 206.992 161.022 207.615C160.993 207.974 160.881 208.322 160.695 208.629C160.508 208.936 160.253 209.194 159.95 209.383C159.352 209.728 158.878 209.501 158.878 208.87C158.907 208.51 159.019 208.163 159.205 207.855C159.392 207.548 159.647 207.29 159.95 207.101Z" fill="black"/>
<path opacity="0.4" d="M105.533 236.486C105.569 236.466 105.601 236.439 105.626 236.406C105.651 236.374 105.67 236.336 105.681 236.296C105.692 236.256 105.694 236.214 105.689 236.173C105.684 236.132 105.67 236.093 105.65 236.057C105.629 236.021 105.602 235.99 105.569 235.965C105.537 235.94 105.5 235.922 105.46 235.912C105.421 235.902 105.38 235.9 105.34 235.906C105.3 235.912 105.261 235.926 105.226 235.947L104.395 236.419V233.177L105.517 232.52C105.553 232.5 105.584 232.473 105.609 232.441C105.635 232.408 105.653 232.37 105.664 232.331C105.675 232.291 105.678 232.249 105.672 232.208C105.667 232.166 105.654 232.127 105.633 232.091C105.591 232.019 105.524 231.967 105.445 231.945C105.366 231.923 105.281 231.933 105.209 231.973L104.378 232.453V229.035C104.376 228.953 104.343 228.875 104.286 228.817C104.229 228.759 104.152 228.725 104.071 228.723C103.989 228.723 103.911 228.756 103.853 228.814C103.796 228.873 103.763 228.952 103.763 229.035V232.849L102.633 233.506C102.598 233.526 102.567 233.554 102.543 233.587C102.518 233.62 102.501 233.657 102.491 233.697C102.481 233.737 102.478 233.779 102.484 233.82C102.49 233.86 102.504 233.9 102.525 233.935C102.552 233.982 102.591 234.021 102.638 234.048C102.684 234.074 102.737 234.088 102.791 234.086C102.847 234.089 102.902 234.074 102.949 234.044L103.78 233.573V236.814L102.65 237.471C102.591 237.506 102.545 237.559 102.519 237.623C102.494 237.686 102.49 237.757 102.508 237.823C102.526 237.89 102.565 237.948 102.619 237.99C102.673 238.031 102.74 238.053 102.808 238.052C102.863 238.054 102.918 238.04 102.966 238.01L103.797 237.539V240.78L102.666 241.437C102.63 241.457 102.599 241.484 102.574 241.517C102.549 241.55 102.53 241.588 102.52 241.628C102.51 241.668 102.508 241.71 102.515 241.751C102.521 241.792 102.536 241.831 102.558 241.866C102.584 241.915 102.622 241.956 102.669 241.984C102.716 242.012 102.77 242.027 102.824 242.026C102.877 242.025 102.928 242.011 102.974 241.984L103.805 241.504V244.746L102.675 245.403C102.639 245.423 102.607 245.45 102.582 245.482C102.557 245.515 102.538 245.552 102.527 245.592C102.517 245.632 102.514 245.674 102.519 245.715C102.524 245.757 102.538 245.796 102.558 245.832C102.587 245.88 102.627 245.92 102.675 245.948C102.723 245.976 102.777 245.991 102.833 245.992C102.885 245.991 102.937 245.977 102.982 245.95L103.813 245.47V248.712L102.683 249.368C102.647 249.388 102.616 249.416 102.59 249.448C102.565 249.481 102.547 249.518 102.536 249.558C102.525 249.598 102.522 249.64 102.527 249.681C102.533 249.722 102.546 249.762 102.567 249.798C102.595 249.846 102.635 249.886 102.683 249.914C102.731 249.942 102.785 249.957 102.841 249.958C102.89 249.969 102.941 249.969 102.99 249.958L103.822 249.478V252.719L102.691 253.376C102.621 253.418 102.569 253.487 102.547 253.567C102.526 253.647 102.535 253.733 102.575 253.805C102.603 253.854 102.643 253.894 102.691 253.922C102.74 253.95 102.794 253.965 102.849 253.965C102.902 253.963 102.953 253.949 102.999 253.923L103.83 253.443V256.685L102.7 257.342C102.629 257.384 102.577 257.452 102.556 257.533C102.534 257.613 102.544 257.698 102.583 257.771C102.61 257.819 102.649 257.858 102.696 257.886C102.742 257.914 102.795 257.93 102.849 257.931C102.904 257.93 102.959 257.916 103.007 257.889L103.838 257.409C103.838 258.487 103.838 259.565 103.838 260.634L102.683 261.307C102.62 261.339 102.571 261.392 102.542 261.457C102.513 261.521 102.506 261.594 102.524 261.663C102.541 261.732 102.581 261.792 102.638 261.835C102.694 261.877 102.763 261.899 102.833 261.897C102.888 261.896 102.942 261.881 102.99 261.855L103.88 261.333C103.946 262.511 104.046 263.69 104.187 264.844C104.199 264.918 104.236 264.986 104.292 265.035C104.349 265.084 104.42 265.112 104.495 265.113C104.535 265.108 104.574 265.095 104.61 265.074C104.645 265.053 104.676 265.026 104.701 264.993C104.726 264.96 104.744 264.922 104.754 264.882C104.764 264.842 104.766 264.8 104.761 264.759C104.611 263.522 104.503 262.234 104.436 260.987L105.5 260.364C105.572 260.323 105.624 260.255 105.646 260.174C105.668 260.094 105.657 260.008 105.617 259.935C105.576 259.862 105.508 259.809 105.429 259.787C105.349 259.765 105.264 259.776 105.193 259.817L104.412 260.272C104.412 259.202 104.362 258.125 104.412 257.047L105.525 256.39C105.595 256.35 105.647 256.283 105.668 256.204C105.69 256.125 105.681 256.041 105.641 255.969C105.622 255.933 105.595 255.901 105.563 255.876C105.53 255.85 105.494 255.831 105.454 255.82C105.415 255.809 105.373 255.806 105.333 255.812C105.292 255.817 105.253 255.831 105.218 255.851L104.387 256.323V253.081L105.5 252.425C105.537 252.405 105.57 252.378 105.596 252.346C105.622 252.313 105.642 252.276 105.654 252.235C105.665 252.195 105.669 252.153 105.664 252.111C105.659 252.069 105.645 252.029 105.625 251.992C105.604 251.956 105.576 251.924 105.543 251.899C105.509 251.874 105.471 251.855 105.431 251.845C105.391 251.836 105.349 251.834 105.308 251.841C105.267 251.848 105.228 251.863 105.193 251.886L104.362 252.357V249.116L105.484 248.459C105.519 248.438 105.549 248.41 105.574 248.377C105.598 248.345 105.616 248.307 105.626 248.267C105.636 248.227 105.638 248.186 105.632 248.145C105.626 248.104 105.613 248.065 105.592 248.03C105.549 247.959 105.48 247.909 105.401 247.888C105.322 247.868 105.239 247.879 105.168 247.92L104.337 248.392V245.15L105.459 244.493C105.529 244.451 105.58 244.382 105.6 244.301C105.621 244.221 105.609 244.135 105.567 244.064C105.525 243.992 105.457 243.941 105.377 243.92C105.298 243.9 105.213 243.912 105.143 243.954L104.312 244.426V241.184L105.434 240.528C105.47 240.508 105.501 240.48 105.526 240.447C105.551 240.415 105.57 240.377 105.58 240.337C105.59 240.296 105.592 240.254 105.585 240.213C105.579 240.172 105.564 240.133 105.542 240.098C105.523 240.062 105.497 240.03 105.465 240.005C105.433 239.979 105.397 239.961 105.358 239.951C105.319 239.94 105.278 239.938 105.238 239.945C105.198 239.952 105.16 239.966 105.126 239.989L104.295 240.46V237.143L105.533 236.486Z" fill="black"/>
<path d="M183.179 255.935L123.626 290.751C121.532 291.972 118.499 291.829 116.978 290.271C115.457 288.713 116.089 286.322 118.183 285.101L177.686 250.294C178.687 249.712 179.846 249.469 180.994 249.599C182.141 249.729 183.218 250.226 184.068 251.018C185.63 252.584 185.273 254.74 183.179 255.935Z" fill="#00268A"/>
<path opacity="0.4" d="M106.224 272.867C106.119 272.882 106.012 272.858 105.924 272.798C105.835 272.738 105.772 272.648 105.745 272.544C105.718 272.44 105.73 272.33 105.779 272.234C105.827 272.138 105.909 272.064 106.008 272.025L173.048 232.848C173.147 232.804 173.259 232.799 173.361 232.833C173.464 232.867 173.551 232.938 173.605 233.033C173.66 233.127 173.678 233.239 173.656 233.346C173.635 233.454 173.575 233.549 173.488 233.615L106.44 272.834C106.372 272.865 106.298 272.877 106.224 272.867Z" fill="black"/>
<path opacity="0.4" d="M107.594 276.547C107.517 276.546 107.441 276.525 107.374 276.485C107.307 276.445 107.251 276.388 107.212 276.32C107.154 276.218 107.139 276.097 107.168 275.984C107.198 275.87 107.27 275.773 107.37 275.714L174.427 236.495C174.476 236.465 174.531 236.445 174.588 236.437C174.645 236.429 174.704 236.432 174.759 236.447C174.815 236.462 174.867 236.488 174.913 236.524C174.959 236.559 174.997 236.604 175.025 236.655C175.083 236.756 175.099 236.877 175.069 236.991C175.04 237.104 174.967 237.201 174.867 237.261L107.835 276.48C107.764 276.527 107.68 276.55 107.594 276.547Z" fill="black"/>
<path opacity="0.4" d="M109.282 280.066C109.182 280.069 109.084 280.038 109.005 279.977C108.925 279.917 108.868 279.83 108.843 279.732C108.818 279.635 108.826 279.531 108.867 279.439C108.907 279.347 108.977 279.271 109.066 279.224L176.131 239.988C176.23 239.944 176.342 239.939 176.444 239.973C176.547 240.007 176.634 240.078 176.688 240.173C176.743 240.267 176.761 240.379 176.739 240.486C176.718 240.594 176.658 240.689 176.571 240.755L109.498 279.999C109.431 280.036 109.358 280.059 109.282 280.066Z" fill="black"/>
<path opacity="0.4" d="M111.285 283.417C111.207 283.416 111.131 283.395 111.064 283.355C110.997 283.315 110.941 283.258 110.902 283.19C110.873 283.141 110.853 283.086 110.845 283.028C110.837 282.971 110.841 282.913 110.856 282.857C110.87 282.801 110.896 282.749 110.931 282.704C110.966 282.658 111.01 282.62 111.06 282.592L178.134 243.356C178.233 243.312 178.344 243.307 178.447 243.341C178.55 243.375 178.637 243.446 178.691 243.54C178.746 243.635 178.764 243.747 178.742 243.854C178.721 243.961 178.661 244.057 178.574 244.123L111.501 283.367C111.435 283.404 111.36 283.422 111.285 283.417Z" fill="black"/>
</g>
<path d="M169.815 218.452L225.013 186.179C227.108 184.958 230.44 184.234 232.31 185C234.18 185.766 233.831 187.753 231.736 188.974L175.899 221.617C173.804 222.847 170.829 222.973 169.167 222.064C167.505 221.154 167.721 219.672 169.815 218.452Z" fill="#00268A"/>
<path opacity="0.4" d="M176.214 227.326C176.136 227.325 176.06 227.304 175.993 227.264C175.926 227.224 175.871 227.167 175.832 227.099C175.775 226.996 175.76 226.875 175.791 226.761C175.823 226.648 175.897 226.551 175.998 226.493L239.589 189.303C239.69 189.245 239.809 189.229 239.921 189.259C240.033 189.288 240.129 189.362 240.188 189.463C240.217 189.514 240.236 189.57 240.244 189.628C240.251 189.686 240.247 189.745 240.231 189.802C240.216 189.858 240.189 189.911 240.153 189.957C240.117 190.003 240.072 190.041 240.022 190.069L176.43 227.259C176.366 227.301 176.291 227.325 176.214 227.326Z" fill="black"/>
<path opacity="0.4" d="M178.849 230.206C178.771 230.205 178.695 230.183 178.628 230.143C178.561 230.103 178.505 230.046 178.466 229.978C178.409 229.876 178.395 229.754 178.426 229.64C178.457 229.527 178.532 229.43 178.633 229.372L242.324 192.132C242.373 192.102 242.427 192.082 242.483 192.074C242.54 192.066 242.597 192.07 242.652 192.085C242.708 192.099 242.759 192.126 242.804 192.161C242.849 192.197 242.886 192.241 242.914 192.292C242.971 192.394 242.987 192.514 242.958 192.628C242.928 192.741 242.856 192.838 242.756 192.898L179.065 230.147C178.998 230.183 178.924 230.203 178.849 230.206Z" fill="black"/>
<path opacity="0.4" d="M189.395 263.161C189.354 263.161 189.313 263.152 189.275 263.136C189.237 263.12 189.203 263.096 189.174 263.066C189.146 263.037 189.123 263.001 189.108 262.962C189.093 262.924 189.086 262.882 189.087 262.841V259.422C189.087 256.854 189.087 256.854 189.021 255.111V254.825C188.831 250.847 188.078 246.917 186.785 243.155C185.495 239.45 183.552 236.012 181.051 233.01C180.999 232.945 180.975 232.862 180.983 232.779C180.992 232.696 181.033 232.62 181.097 232.568C181.161 232.515 181.242 232.49 181.324 232.499C181.406 232.508 181.481 232.549 181.533 232.614C184.072 235.676 186.043 239.179 187.35 242.953C188.667 246.751 189.44 250.721 189.644 254.741V255.036C189.719 256.787 189.719 256.787 189.71 259.38V262.798C189.716 262.844 189.713 262.89 189.699 262.934C189.686 262.978 189.664 263.018 189.634 263.052C189.604 263.087 189.567 263.114 189.526 263.133C189.485 263.151 189.44 263.161 189.395 263.161Z" fill="black"/>
<path d="M188.754 236.217C188.472 235.712 188.164 235.224 187.84 234.736C187.758 234.622 187.7 234.492 187.672 234.354C187.643 234.215 187.643 234.073 187.673 233.935C187.703 233.797 187.762 233.667 187.845 233.554C187.928 233.441 188.034 233.347 188.156 233.279L212.456 219.067C212.711 218.914 213.014 218.868 213.302 218.937C213.59 219.006 213.841 219.185 214.001 219.437C214.292 219.917 214.575 220.431 214.833 220.961C214.964 221.23 214.989 221.539 214.905 221.827C214.82 222.114 214.631 222.358 214.375 222.51L190.209 236.638C190.086 236.709 189.951 236.755 189.811 236.772C189.671 236.789 189.529 236.778 189.394 236.739C189.258 236.7 189.132 236.633 189.022 236.544C188.912 236.454 188.821 236.343 188.754 236.217Z" fill="#00268A"/>
<path d="M191.124 241.926C191.298 242.49 191.473 243.046 191.622 243.61C191.654 243.736 191.714 243.853 191.798 243.952C191.881 244.05 191.987 244.128 192.105 244.179C192.223 244.229 192.352 244.251 192.48 244.243C192.608 244.235 192.733 244.197 192.844 244.132L250.493 210.411C250.758 210.244 250.965 209.998 251.085 209.707C251.206 209.416 251.234 209.094 251.167 208.786C251.009 208.205 250.843 207.641 250.676 207.102C250.646 206.966 250.583 206.84 250.493 206.735C250.403 206.63 250.288 206.55 250.16 206.501C250.031 206.451 249.893 206.435 249.757 206.453C249.621 206.472 249.491 206.524 249.38 206.605L191.714 240.326C191.457 240.491 191.26 240.737 191.154 241.026C191.047 241.314 191.037 241.63 191.124 241.926Z" fill="#00268A"/>
<path opacity="0.7" d="M191.124 241.926C191.298 242.49 191.473 243.046 191.622 243.61C191.654 243.736 191.714 243.853 191.798 243.952C191.881 244.05 191.987 244.128 192.105 244.179C192.223 244.229 192.352 244.251 192.48 244.243C192.608 244.235 192.733 244.197 192.844 244.132L250.493 210.411C250.758 210.244 250.965 209.998 251.085 209.707C251.206 209.416 251.234 209.094 251.167 208.786C251.009 208.205 250.843 207.641 250.676 207.102C250.646 206.966 250.583 206.84 250.493 206.735C250.403 206.63 250.288 206.55 250.16 206.501C250.031 206.451 249.893 206.435 249.757 206.453C249.621 206.472 249.491 206.524 249.38 206.605L191.714 240.326C191.457 240.491 191.26 240.737 191.154 241.026C191.047 241.314 191.037 241.63 191.124 241.926Z" fill="white"/>
<path d="M192.802 249.689C192.876 250.312 192.934 250.918 192.984 251.499C192.971 251.623 192.995 251.749 193.053 251.86C193.11 251.97 193.199 252.061 193.308 252.121C193.416 252.18 193.54 252.206 193.663 252.194C193.786 252.182 193.903 252.134 193.998 252.055L233.057 229.212C233.335 229.033 233.562 228.783 233.715 228.488C233.868 228.192 233.942 227.861 233.93 227.528C233.88 226.922 233.813 226.324 233.747 225.718C233.745 225.59 233.709 225.464 233.641 225.356C233.573 225.248 233.477 225.161 233.363 225.105C233.249 225.049 233.122 225.026 232.996 225.039C232.87 225.052 232.75 225.101 232.65 225.179L193.591 248.013C193.322 248.194 193.106 248.445 192.967 248.74C192.828 249.035 192.771 249.363 192.802 249.689Z" fill="#00268A"/>
<path opacity="0.15" d="M192.802 249.689C192.876 250.312 192.934 250.918 192.984 251.499C192.971 251.623 192.995 251.749 193.053 251.86C193.11 251.97 193.199 252.061 193.308 252.121C193.416 252.18 193.54 252.206 193.663 252.194C193.786 252.182 193.903 252.134 193.998 252.055L233.057 229.212C233.335 229.033 233.562 228.783 233.715 228.488C233.868 228.192 233.942 227.861 233.93 227.528C233.88 226.922 233.813 226.324 233.747 225.718C233.745 225.59 233.709 225.464 233.641 225.356C233.573 225.248 233.477 225.161 233.363 225.105C233.249 225.049 233.122 225.026 232.996 225.039C232.87 225.052 232.75 225.101 232.65 225.179L193.591 248.013C193.322 248.194 193.106 248.445 192.967 248.74C192.828 249.035 192.771 249.363 192.802 249.689Z" fill="black"/>
<path d="M193.117 257.763V259.548C193.117 260.155 193.541 260.39 194.065 260.096L210.785 250.32C211.064 250.136 211.295 249.887 211.46 249.594C211.625 249.302 211.718 248.973 211.733 248.636V246.851C211.733 246.237 211.309 246.01 210.785 246.296L194.065 256.079C193.786 256.264 193.555 256.513 193.39 256.805C193.225 257.098 193.132 257.427 193.117 257.763Z" fill="#00268A"/>
<path opacity="0.5" d="M193.117 257.763V259.548C193.117 260.155 193.541 260.39 194.065 260.096L210.785 250.32C211.064 250.136 211.295 249.887 211.46 249.594C211.625 249.302 211.718 248.973 211.733 248.636V246.851C211.733 246.237 211.309 246.01 210.785 246.296L194.065 256.079C193.786 256.264 193.555 256.513 193.39 256.805C193.225 257.098 193.132 257.427 193.117 257.763Z" fill="white"/>
<path opacity="0.4" d="M252.687 229.633C252.604 229.633 252.523 229.667 252.464 229.727C252.405 229.787 252.371 229.868 252.371 229.953V231.477L247.917 234.079V232.942C247.905 232.867 247.867 232.799 247.81 232.75C247.753 232.701 247.68 232.674 247.605 232.674C247.531 232.674 247.458 232.701 247.401 232.75C247.344 232.799 247.306 232.867 247.294 232.942V234.441L242.839 237.051V235.931C242.847 235.885 242.844 235.838 242.832 235.794C242.82 235.749 242.798 235.707 242.768 235.672C242.739 235.637 242.702 235.608 242.66 235.589C242.619 235.569 242.574 235.559 242.528 235.559C242.482 235.559 242.437 235.569 242.395 235.589C242.354 235.608 242.317 235.637 242.287 235.672C242.257 235.707 242.236 235.749 242.224 235.794C242.211 235.838 242.209 235.885 242.216 235.931V237.413L237.762 240.015V238.92C237.762 238.837 237.73 238.756 237.672 238.697C237.615 238.637 237.537 238.602 237.454 238.6C237.413 238.6 237.372 238.608 237.335 238.625C237.297 238.641 237.263 238.664 237.234 238.694C237.205 238.724 237.183 238.759 237.168 238.798C237.153 238.837 237.146 238.878 237.147 238.92V240.377L232.684 242.987V241.909C232.684 241.826 232.652 241.747 232.594 241.689C232.536 241.63 232.458 241.597 232.377 241.597C232.295 241.597 232.217 241.63 232.159 241.689C232.101 241.747 232.069 241.826 232.069 241.909V243.349L227.606 245.959V244.898C227.608 244.857 227.6 244.816 227.585 244.777C227.57 244.739 227.548 244.704 227.519 244.675C227.49 244.646 227.456 244.623 227.418 244.608C227.38 244.593 227.34 244.585 227.299 244.586C227.259 244.586 227.219 244.595 227.181 244.61C227.144 244.626 227.11 244.649 227.081 244.678C227.053 244.707 227.03 244.741 227.015 244.779C226.999 244.817 226.991 244.857 226.991 244.898V246.321L222.52 248.923V247.887C222.508 247.812 222.47 247.744 222.413 247.695C222.356 247.646 222.284 247.619 222.209 247.619C222.134 247.619 222.061 247.646 222.004 247.695C221.947 247.744 221.909 247.812 221.897 247.887V249.285L217.443 251.895V250.876C217.431 250.801 217.393 250.733 217.336 250.684C217.278 250.635 217.206 250.608 217.131 250.608C217.056 250.608 216.984 250.635 216.927 250.684C216.87 250.733 216.832 250.801 216.819 250.876V252.257L212.365 254.859V253.899C212.353 253.824 212.315 253.756 212.258 253.707C212.201 253.657 212.128 253.63 212.053 253.63C211.979 253.63 211.906 253.657 211.849 253.707C211.792 253.756 211.754 253.824 211.742 253.899V255.254L207.287 257.864V256.888C207.275 256.813 207.237 256.745 207.18 256.696C207.123 256.646 207.051 256.619 206.976 256.619C206.901 256.619 206.828 256.646 206.771 256.696C206.714 256.745 206.676 256.813 206.664 256.888V258.226L202.21 260.836V259.877C202.198 259.802 202.16 259.734 202.103 259.685C202.045 259.635 201.973 259.608 201.898 259.608C201.823 259.608 201.751 259.635 201.694 259.685C201.637 259.734 201.599 259.802 201.586 259.877V261.199L197.132 263.8V262.866C197.12 262.791 197.082 262.723 197.025 262.674C196.968 262.624 196.895 262.597 196.82 262.597C196.745 262.597 196.673 262.624 196.616 262.674C196.559 262.723 196.521 262.791 196.509 262.866V264.162L192.644 266.427C192.609 266.447 192.577 266.474 192.552 266.507C192.527 266.54 192.508 266.577 192.497 266.617C192.486 266.657 192.483 266.699 192.489 266.74C192.494 266.781 192.507 266.821 192.528 266.857C192.556 266.905 192.597 266.945 192.645 266.973C192.693 267.001 192.747 267.016 192.802 267.017C192.856 267.015 192.908 266.998 192.952 266.966L196.509 264.886V266.166C196.521 266.241 196.559 266.309 196.616 266.358C196.673 266.407 196.745 266.434 196.82 266.434C196.895 266.434 196.968 266.407 197.025 266.358C197.082 266.309 197.12 266.241 197.132 266.166V264.524L201.586 261.923V263.16C201.599 263.235 201.637 263.303 201.694 263.352C201.751 263.402 201.823 263.429 201.898 263.429C201.973 263.429 202.045 263.402 202.103 263.352C202.16 263.303 202.198 263.235 202.21 263.16V261.544L206.664 258.934V260.171C206.676 260.246 206.714 260.314 206.771 260.363C206.828 260.413 206.901 260.44 206.976 260.44C207.051 260.44 207.123 260.413 207.18 260.363C207.237 260.314 207.275 260.246 207.287 260.171V258.572L211.742 255.97V257.182C211.754 257.257 211.792 257.325 211.849 257.374C211.906 257.424 211.979 257.451 212.053 257.451C212.128 257.451 212.201 257.424 212.258 257.374C212.315 257.325 212.353 257.257 212.365 257.182V255.583L216.819 252.981V254.176C216.832 254.251 216.87 254.319 216.927 254.369C216.984 254.418 217.056 254.445 217.131 254.445C217.206 254.445 217.278 254.418 217.336 254.369C217.393 254.319 217.431 254.251 217.443 254.176V252.619L221.897 250.009V251.188C221.909 251.262 221.947 251.33 222.004 251.38C222.061 251.429 222.134 251.456 222.209 251.456C222.284 251.456 222.356 251.429 222.413 251.38C222.47 251.33 222.508 251.262 222.52 251.188V249.689L226.975 247.087V248.241C226.977 248.323 227.01 248.401 227.067 248.459C227.124 248.516 227.201 248.55 227.282 248.552C227.323 248.552 227.363 248.544 227.4 248.528C227.437 248.513 227.471 248.49 227.5 248.461C227.528 248.432 227.551 248.398 227.566 248.36C227.582 248.322 227.59 248.282 227.59 248.241V246.725L232.052 244.115V245.252C232.052 245.334 232.085 245.413 232.143 245.472C232.2 245.53 232.278 245.563 232.36 245.563C232.442 245.563 232.52 245.53 232.577 245.472C232.635 245.413 232.667 245.334 232.667 245.252V243.711L237.13 241.101V242.221C237.13 242.303 237.163 242.382 237.22 242.441C237.278 242.499 237.356 242.532 237.438 242.532C237.519 242.53 237.596 242.496 237.653 242.438C237.71 242.38 237.743 242.302 237.745 242.221V240.739L242.2 238.137V239.232C242.212 239.306 242.25 239.375 242.307 239.424C242.364 239.473 242.436 239.5 242.511 239.5C242.586 239.5 242.659 239.473 242.716 239.424C242.773 239.375 242.811 239.306 242.823 239.232V237.775L247.277 235.165V236.217C247.289 236.292 247.327 236.36 247.384 236.409C247.441 236.459 247.514 236.486 247.589 236.486C247.664 236.486 247.736 236.459 247.793 236.409C247.85 236.36 247.888 236.292 247.9 236.217V234.778L252.355 232.176V233.228C252.367 233.303 252.405 233.371 252.462 233.42C252.519 233.47 252.592 233.496 252.667 233.496C252.741 233.496 252.814 233.47 252.871 233.42C252.928 233.371 252.966 233.303 252.978 233.228V229.928C252.972 229.852 252.94 229.78 252.887 229.726C252.833 229.672 252.763 229.639 252.687 229.633Z" fill="black"/>
<path d="M203.813 271.05C202.671 271.317 201.577 271.766 200.572 272.38C194.406 276.051 189.411 285.237 189.411 292.891C189.411 293.101 189.411 293.295 189.411 293.488L200.556 288.319L203.813 271.05Z" fill="#00268A"/>
<path d="M203.813 271.049L200.564 288.318L211.608 281.827C211.691 281.131 211.732 280.431 211.733 279.73C211.716 273.432 208.392 270.081 203.813 271.049Z" fill="#00268A"/>
<path d="M210.212 287.645C210.915 285.772 211.384 283.818 211.608 281.827L200.564 288.318L210.212 287.645Z" fill="#00268A"/>
<path d="M189.419 293.471C189.669 300.712 194.572 303.735 200.572 300.207C204.727 297.799 208.284 292.907 210.212 287.578L200.564 288.251L189.419 293.471Z" fill="#00268A"/>
<path opacity="0.7" d="M203.813 271.049L200.564 288.318L211.608 281.827C211.691 281.131 211.732 280.431 211.733 279.73C211.716 273.432 208.392 270.081 203.813 271.049Z" fill="white"/>
<path opacity="0.15" d="M210.212 287.645C210.915 285.772 211.384 283.818 211.608 281.827L200.564 288.318L210.212 287.645Z" fill="black"/>
<path opacity="0.5" d="M189.419 293.471C189.669 300.712 194.572 303.735 200.572 300.207C204.727 297.799 208.284 292.907 210.212 287.578L200.564 288.251L189.419 293.471Z" fill="white"/>
<path d="M189.42 293.934C189.338 293.933 189.258 293.909 189.187 293.867C189.126 293.828 189.075 293.775 189.039 293.712C189.002 293.649 188.982 293.578 188.979 293.505C188.979 293.303 188.979 293.101 188.979 292.89C188.979 285.102 194.082 275.731 200.356 272.001C201.401 271.361 202.54 270.895 203.73 270.62C203.801 270.604 203.875 270.607 203.945 270.627C204.014 270.648 204.078 270.686 204.129 270.738C204.181 270.788 204.219 270.851 204.241 270.92C204.263 270.989 204.267 271.062 204.254 271.134L200.988 288.419C200.976 288.488 200.948 288.553 200.906 288.609C200.864 288.665 200.809 288.709 200.747 288.739L189.603 293.909C189.544 293.929 189.482 293.938 189.42 293.934ZM203.257 271.656C202.383 271.92 201.546 272.293 200.764 272.767C194.747 276.345 189.852 285.312 189.81 292.798L200.14 288.015L203.257 271.656Z" fill="white"/>
<path d="M200.564 288.765C200.471 288.767 200.381 288.737 200.307 288.681C200.239 288.63 200.187 288.562 200.156 288.483C200.126 288.404 200.117 288.318 200.132 288.234L203.39 270.974C203.405 270.887 203.445 270.807 203.506 270.744C203.567 270.681 203.645 270.638 203.73 270.62C204.673 270.378 205.657 270.359 206.608 270.563C207.559 270.767 208.451 271.19 209.215 271.799C211.118 273.365 212.174 276.186 212.174 279.73C212.172 280.448 212.131 281.165 212.049 281.878C212.04 281.945 212.016 282.01 211.979 282.067C211.941 282.124 211.892 282.172 211.833 282.206L200.78 288.706C200.714 288.742 200.64 288.762 200.564 288.765ZM204.237 271.437L201.212 287.435L211.243 281.541C211.308 280.937 211.342 280.33 211.343 279.722C211.343 276.447 210.404 273.87 208.7 272.473C208.076 271.98 207.353 271.631 206.582 271.452C205.811 271.273 205.011 271.268 204.237 271.437Z" fill="white"/>
<path d="M200.564 288.764C200.47 288.765 200.38 288.735 200.305 288.679C200.23 288.622 200.175 288.543 200.148 288.453C200.116 288.358 200.117 288.255 200.152 288.161C200.187 288.067 200.253 287.989 200.339 287.939L211.392 281.439C211.461 281.398 211.54 281.376 211.621 281.376C211.701 281.376 211.78 281.398 211.849 281.439C211.918 281.484 211.972 281.547 212.008 281.621C212.043 281.696 212.057 281.778 212.049 281.86C211.816 283.878 211.336 285.857 210.619 287.754C210.589 287.832 210.538 287.9 210.472 287.951C210.406 288.001 210.328 288.032 210.245 288.04L200.589 288.714L200.564 288.764ZM211.068 282.66L202.409 287.712L209.888 287.19C210.426 285.723 210.821 284.205 211.068 282.66Z" fill="white"/>
<path d="M195.819 302.152C194.763 302.16 193.722 301.896 192.794 301.386C190.467 300.073 189.112 297.277 188.979 293.505C188.975 293.417 188.998 293.329 189.044 293.254C189.09 293.179 189.157 293.12 189.237 293.084L200.381 287.915C200.431 287.907 200.481 287.907 200.531 287.915L210.179 287.241C210.253 287.233 210.327 287.246 210.394 287.277C210.461 287.308 210.519 287.357 210.561 287.418C210.606 287.475 210.636 287.544 210.646 287.616C210.656 287.689 210.647 287.763 210.62 287.83C208.609 293.379 204.802 298.288 200.788 300.662C199.288 301.588 197.575 302.102 195.819 302.152ZM189.868 293.733C190.043 297.033 191.231 299.458 193.193 300.569C195.154 301.681 197.655 301.411 200.331 299.82C204.054 297.648 207.536 293.194 209.531 288.1L200.647 288.723L189.868 293.733Z" fill="white"/>
<path d="M236.465 252.787C232.833 257.216 230.348 263.405 230.348 268.844C230.276 270.935 230.764 273.006 231.761 274.839L241.518 262.319L236.465 252.787Z" fill="#00268A"/>
<path d="M246.554 246.86C244.773 246.843 243.025 247.346 241.518 248.308C239.586 249.488 237.875 251.004 236.465 252.787L241.518 262.302L246.554 246.86Z" fill="#00268A"/>
<path d="M251.648 250.472C251.224 249.443 250.519 248.558 249.618 247.918C248.716 247.279 247.654 246.912 246.554 246.86L241.518 262.318L251.648 250.472Z" fill="#00268A"/>
<path d="M251.648 250.472L241.518 262.318L231.761 274.855C233.673 278.013 237.321 278.771 241.518 276.32C247.684 272.708 252.687 263.522 252.687 255.785C252.737 253.957 252.382 252.142 251.648 250.472Z" fill="#00268A"/>
<path opacity="0.7" d="M246.554 246.86C244.773 246.843 243.025 247.346 241.518 248.308C239.586 249.488 237.875 251.004 236.465 252.787L241.518 262.302L246.554 246.86Z" fill="white"/>
<path opacity="0.15" d="M251.648 250.472C251.224 249.443 250.519 248.558 249.618 247.918C248.716 247.279 247.654 246.912 246.554 246.86L241.518 262.318L251.648 250.472Z" fill="black"/>
<path opacity="0.5" d="M251.648 250.472L241.518 262.318L231.761 274.855C233.673 278.013 237.321 278.771 241.518 276.32C247.684 272.708 252.687 263.522 252.687 255.785C252.737 253.957 252.382 252.142 251.648 250.472Z" fill="white"/>
<path d="M231.761 275.285C231.69 275.278 231.622 275.254 231.561 275.216C231.501 275.178 231.45 275.127 231.412 275.066C230.376 273.164 229.868 271.014 229.941 268.844C229.941 263.447 232.318 257.182 236.157 252.501C236.204 252.448 236.261 252.405 236.326 252.378C236.391 252.35 236.461 252.337 236.531 252.341C236.604 252.349 236.674 252.374 236.735 252.415C236.795 252.456 236.845 252.512 236.88 252.577L241.925 262.1C241.965 262.175 241.982 262.261 241.975 262.346C241.968 262.431 241.936 262.512 241.883 262.579L232.102 275.116C232.06 275.168 232.009 275.21 231.95 275.239C231.891 275.268 231.826 275.284 231.761 275.285ZM236.39 253.587C232.924 258.05 230.789 263.842 230.789 268.844C230.741 270.633 231.096 272.409 231.827 274.039L240.969 262.251L236.39 253.587Z" fill="white"/>
<path d="M241.518 262.748C241.437 262.749 241.358 262.728 241.289 262.686C241.22 262.645 241.164 262.584 241.127 262.512L236.083 252.998C236.041 252.92 236.024 252.83 236.033 252.742C236.041 252.653 236.076 252.569 236.132 252.501C237.567 250.675 239.315 249.126 241.293 247.929C242.871 246.919 244.704 246.392 246.57 246.414C246.638 246.416 246.705 246.435 246.764 246.468C246.823 246.502 246.874 246.55 246.911 246.607C246.951 246.662 246.977 246.726 246.987 246.794C246.998 246.861 246.991 246.93 246.969 246.995L241.933 262.445C241.905 262.527 241.854 262.6 241.786 262.653C241.718 262.707 241.637 262.74 241.551 262.748H241.518ZM236.988 252.838L241.418 261.19L245.947 247.298C244.453 247.419 243.009 247.899 241.734 248.695C239.929 249.789 238.323 251.191 236.988 252.838Z" fill="white"/>
<path d="M241.518 262.748C241.441 262.749 241.367 262.729 241.302 262.689C241.213 262.639 241.145 262.56 241.109 262.464C241.072 262.369 241.07 262.264 241.102 262.167L246.138 246.717C246.167 246.625 246.225 246.546 246.304 246.491C246.382 246.436 246.475 246.409 246.57 246.414C247.748 246.471 248.887 246.864 249.854 247.548C250.821 248.232 251.579 249.178 252.039 250.278C252.075 250.358 252.088 250.446 252.076 250.532C252.065 250.619 252.028 250.7 251.972 250.767L241.842 262.596C241.802 262.644 241.752 262.682 241.696 262.708C241.64 262.734 241.579 262.748 241.518 262.748ZM246.861 247.323L242.615 260.34L251.124 250.405C250.731 249.566 250.133 248.843 249.387 248.304C248.641 247.765 247.772 247.427 246.861 247.323Z" fill="white"/>
<path d="M236.781 278.198C235.689 278.212 234.612 277.93 233.664 277.38C232.716 276.831 231.93 276.035 231.387 275.074C231.335 274.999 231.307 274.909 231.307 274.817C231.307 274.725 231.335 274.636 231.387 274.561L241.135 262.032L251.282 250.186C251.329 250.128 251.39 250.084 251.458 250.058C251.527 250.031 251.601 250.023 251.673 250.034C251.744 250.044 251.812 250.071 251.87 250.114C251.928 250.156 251.974 250.213 252.005 250.278C252.771 252.002 253.144 253.878 253.094 255.768C253.094 263.623 247.983 273.011 241.701 276.682C240.22 277.615 238.523 278.137 236.781 278.198ZM232.301 274.83C234.205 277.684 237.545 278.08 241.293 275.882C247.335 272.355 252.246 263.312 252.246 255.734C252.277 254.212 252.032 252.696 251.523 251.263L241.842 262.563L232.301 274.83Z" fill="white"/>
<path d="M216.403 263.025L218.231 261.956C218.755 261.653 219.179 261.906 219.179 262.512V264.297C219.164 264.634 219.071 264.962 218.906 265.255C218.741 265.548 218.51 265.797 218.231 265.981L216.403 267.05C215.879 267.353 215.456 267.109 215.456 266.494V264.718C215.469 264.38 215.563 264.05 215.727 263.756C215.892 263.461 216.124 263.211 216.403 263.025Z" fill="#00268A"/>
<path d="M216.403 271.016L218.231 269.947C218.755 269.635 219.179 269.888 219.179 270.502V272.279C219.165 272.616 219.073 272.945 218.908 273.238C218.743 273.531 218.511 273.78 218.231 273.963L216.403 275.032C215.879 275.344 215.456 275.091 215.456 274.476V272.675C215.473 272.342 215.567 272.018 215.732 271.73C215.897 271.441 216.127 271.197 216.403 271.016Z" fill="#00268A"/>
<path opacity="0.7" d="M216.403 271.016L218.231 269.947C218.755 269.635 219.179 269.888 219.179 270.502V272.279C219.165 272.616 219.073 272.945 218.908 273.238C218.743 273.531 218.511 273.78 218.231 273.963L216.403 275.032C215.879 275.344 215.456 275.091 215.456 274.476V272.675C215.473 272.342 215.567 272.018 215.732 271.73C215.897 271.441 216.127 271.197 216.403 271.016Z" fill="white"/>
<path d="M216.403 278.998L218.231 277.929C218.755 277.626 219.179 277.87 219.179 278.484V280.261C219.163 280.597 219.07 280.926 218.905 281.218C218.74 281.511 218.509 281.76 218.231 281.945L216.403 283.014C215.879 283.317 215.456 283.065 215.456 282.458V280.673C215.471 280.338 215.566 280.011 215.73 279.72C215.895 279.429 216.125 279.181 216.403 278.998Z" fill="#00268A"/>
<path opacity="0.15" d="M216.403 278.998L218.231 277.929C218.755 277.626 219.179 277.87 219.179 278.484V280.261C219.163 280.597 219.07 280.926 218.905 281.218C218.74 281.511 218.509 281.76 218.231 281.945L216.403 283.014C215.879 283.317 215.456 283.065 215.456 282.458V280.673C215.471 280.338 215.566 280.011 215.73 279.72C215.895 279.429 216.125 279.181 216.403 278.998Z" fill="black"/>
<path d="M216.403 286.98L218.231 285.911C218.755 285.608 219.179 285.86 219.179 286.466V288.251C219.164 288.588 219.071 288.917 218.906 289.209C218.741 289.502 218.51 289.751 218.231 289.935L216.403 291.005C215.879 291.308 215.456 291.064 215.456 290.449V288.672C215.469 288.334 215.563 288.005 215.727 287.71C215.892 287.416 216.124 287.166 216.403 286.98Z" fill="#00268A"/>
<path opacity="0.5" d="M216.403 286.98L218.231 285.911C218.755 285.608 219.179 285.86 219.179 286.466V288.251C219.164 288.588 219.071 288.917 218.906 289.209C218.741 289.502 218.51 289.751 218.231 289.935L216.403 291.005C215.879 291.308 215.456 291.064 215.456 290.449V288.672C215.469 288.334 215.563 288.005 215.727 287.71C215.892 287.416 216.124 287.166 216.403 286.98Z" fill="white"/>
<path opacity="0.4" d="M221.057 262.849C220.948 262.849 220.842 262.819 220.748 262.763C220.654 262.707 220.578 262.626 220.525 262.529C220.447 262.387 220.426 262.219 220.468 262.062C220.51 261.904 220.611 261.77 220.75 261.687L226.309 258.437C226.45 258.373 226.609 258.364 226.756 258.411C226.903 258.459 227.027 258.56 227.105 258.695C227.183 258.83 227.208 258.99 227.176 259.143C227.144 259.296 227.058 259.431 226.933 259.523L221.365 262.782C221.269 262.829 221.164 262.852 221.057 262.849Z" fill="black"/>
<path opacity="0.4" d="M220.974 270.906C220.836 270.91 220.702 270.866 220.591 270.782C220.481 270.698 220.402 270.579 220.366 270.444C220.331 270.309 220.341 270.166 220.396 270.037C220.45 269.909 220.546 269.803 220.667 269.736L226.227 266.486C226.297 266.434 226.378 266.398 226.463 266.379C226.548 266.361 226.636 266.361 226.722 266.379C226.807 266.397 226.888 266.433 226.958 266.485C227.029 266.537 227.088 266.603 227.132 266.679C227.176 266.756 227.203 266.841 227.213 266.929C227.222 267.016 227.213 267.105 227.187 267.189C227.16 267.274 227.116 267.351 227.058 267.417C227 267.483 226.929 267.536 226.85 267.572L221.282 270.822C221.189 270.878 221.083 270.908 220.974 270.906Z" fill="black"/>
<path opacity="0.4" d="M220.858 278.973C220.722 278.971 220.592 278.924 220.485 278.84C220.378 278.757 220.301 278.64 220.265 278.508C220.23 278.376 220.237 278.236 220.287 278.108C220.337 277.981 220.426 277.874 220.542 277.802L226.11 274.552C226.25 274.473 226.416 274.452 226.571 274.494C226.726 274.537 226.859 274.639 226.941 274.78C227.015 274.923 227.034 275.089 226.992 275.245C226.95 275.402 226.852 275.536 226.716 275.622L221.148 278.872C221.061 278.93 220.961 278.965 220.858 278.973Z" fill="black"/>
<path opacity="0.4" d="M220.8 287.039C220.692 287.04 220.585 287.012 220.492 286.957C220.398 286.902 220.321 286.823 220.268 286.727C220.189 286.585 220.169 286.417 220.211 286.26C220.253 286.102 220.354 285.968 220.493 285.885L226.061 282.627C226.132 282.578 226.212 282.545 226.296 282.53C226.381 282.514 226.467 282.516 226.551 282.536C226.634 282.556 226.713 282.593 226.782 282.645C226.85 282.697 226.908 282.763 226.95 282.838C226.992 282.914 227.019 282.997 227.028 283.084C227.037 283.17 227.029 283.258 227.003 283.34C226.977 283.423 226.935 283.5 226.878 283.565C226.822 283.631 226.753 283.684 226.676 283.721L221.108 286.971C221.013 287.022 220.907 287.046 220.8 287.039Z" fill="black"/>
<path opacity="0.4" d="M190.11 315.413C190.001 315.413 189.894 315.383 189.8 315.327C189.707 315.271 189.63 315.19 189.578 315.093C189.499 314.951 189.478 314.783 189.52 314.626C189.562 314.468 189.663 314.334 189.802 314.251L215.872 299.003C216.012 298.923 216.178 298.902 216.333 298.945C216.489 298.987 216.621 299.09 216.703 299.23C216.779 299.374 216.797 299.542 216.754 299.699C216.71 299.856 216.609 299.99 216.47 300.072L190.409 315.363C190.314 315.403 190.212 315.42 190.11 315.413Z" fill="black"/>
<path opacity="0.4" d="M190.94 319.32C190.802 319.323 190.667 319.279 190.557 319.196C190.447 319.112 190.368 318.993 190.332 318.858C190.297 318.723 190.307 318.579 190.362 318.451C190.416 318.323 190.512 318.217 190.633 318.15L216.703 302.91C216.773 302.869 216.851 302.843 216.931 302.832C217.012 302.822 217.093 302.827 217.172 302.849C217.25 302.87 217.323 302.907 217.388 302.958C217.452 303.008 217.506 303.07 217.546 303.142C217.587 303.213 217.613 303.292 217.623 303.373C217.633 303.455 217.628 303.538 217.607 303.617C217.585 303.696 217.549 303.771 217.499 303.836C217.45 303.901 217.388 303.955 217.318 303.996L191.256 319.236C191.161 319.294 191.051 319.324 190.94 319.32Z" fill="black"/>
<path opacity="0.4" d="M192.145 323.1C192.01 323.098 191.879 323.052 191.773 322.968C191.666 322.884 191.589 322.768 191.553 322.635C191.518 322.503 191.525 322.363 191.575 322.236C191.625 322.109 191.714 322.001 191.83 321.93L217.891 306.69C217.962 306.638 218.042 306.602 218.127 306.584C218.213 306.565 218.301 306.565 218.386 306.583C218.472 306.601 218.552 306.638 218.623 306.689C218.694 306.741 218.753 306.807 218.797 306.884C218.84 306.96 218.868 307.045 218.877 307.133C218.887 307.221 218.878 307.309 218.851 307.394C218.825 307.478 218.781 307.555 218.723 307.621C218.665 307.687 218.594 307.74 218.514 307.776L192.453 323.016C192.359 323.071 192.253 323.1 192.145 323.1Z" fill="black"/>
<path opacity="0.4" d="M231.005 291.493C230.897 291.493 230.791 291.465 230.697 291.41C230.604 291.355 230.527 291.276 230.473 291.181C230.395 291.039 230.374 290.871 230.416 290.714C230.458 290.556 230.559 290.422 230.698 290.339L256.759 275.099C256.9 275.024 257.065 275.005 257.219 275.047C257.373 275.09 257.506 275.189 257.59 275.327C257.666 275.47 257.684 275.638 257.641 275.795C257.598 275.952 257.496 276.086 257.358 276.169L231.304 291.408C231.213 291.462 231.11 291.49 231.005 291.493Z" fill="black"/>
<path opacity="0.4" d="M231.844 295.4C231.736 295.4 231.63 295.372 231.537 295.317C231.443 295.262 231.366 295.183 231.313 295.088C231.234 294.946 231.213 294.778 231.255 294.621C231.297 294.463 231.398 294.329 231.537 294.246L257.599 279.006C257.74 278.931 257.904 278.912 258.058 278.954C258.212 278.997 258.345 279.096 258.43 279.234C258.505 279.377 258.524 279.545 258.48 279.702C258.437 279.859 258.335 279.993 258.197 280.076L232.144 295.315C232.053 295.369 231.95 295.398 231.844 295.4Z" fill="black"/>
<path opacity="0.4" d="M233.049 299.18C232.94 299.18 232.833 299.152 232.738 299.097C232.643 299.043 232.564 298.964 232.509 298.868C232.434 298.725 232.416 298.559 232.458 298.403C232.499 298.246 232.598 298.112 232.733 298.026L258.795 282.787C258.866 282.745 258.944 282.718 259.025 282.708C259.107 282.697 259.189 282.702 259.268 282.724C259.347 282.745 259.421 282.782 259.486 282.833C259.551 282.883 259.606 282.946 259.647 283.018C259.688 283.09 259.714 283.169 259.725 283.252C259.736 283.334 259.73 283.418 259.709 283.498C259.688 283.578 259.651 283.653 259.601 283.719C259.551 283.785 259.489 283.84 259.418 283.881L233.323 299.096C233.24 299.146 233.146 299.175 233.049 299.18Z" fill="black"/>
<path d="M199.292 327.386L258.711 292.629C259.664 292.045 260.794 291.833 261.889 292.033C262.985 292.233 263.971 292.831 264.662 293.715C265.933 295.475 265.418 297.782 263.324 299.011L203.888 333.759C201.793 334.98 198.901 334.66 197.646 332.917C196.391 331.175 197.206 328.607 199.292 327.386Z" fill="#00268A"/>
<path opacity="0.4" d="M209.099 344.41C208.99 344.409 208.884 344.38 208.789 344.326C208.695 344.271 208.615 344.193 208.559 344.099C208.483 343.955 208.465 343.787 208.508 343.631C208.551 343.474 208.653 343.34 208.792 343.257L234.845 327.992C234.986 327.916 235.15 327.898 235.304 327.94C235.459 327.982 235.591 328.082 235.676 328.219C235.752 328.362 235.772 328.529 235.73 328.686C235.688 328.843 235.589 328.977 235.451 329.061L209.39 344.301C209.304 344.363 209.204 344.401 209.099 344.41Z" fill="black"/>
<path opacity="0.4" d="M205.841 342.079C205.706 342.077 205.575 342.03 205.468 341.946C205.362 341.862 205.285 341.746 205.249 341.614C205.213 341.482 205.221 341.341 205.271 341.214C205.321 341.087 205.41 340.98 205.525 340.908L231.587 325.669C231.729 325.592 231.894 325.573 232.049 325.617C232.204 325.661 232.336 325.764 232.418 325.904C232.492 326.047 232.511 326.214 232.469 326.37C232.428 326.526 232.329 326.661 232.193 326.746L206.149 341.994C206.055 342.049 205.949 342.078 205.841 342.079Z" fill="black"/>
<path opacity="0.4" d="M212.547 346.465C212.439 346.463 212.332 346.433 212.239 346.377C212.146 346.321 212.069 346.241 212.015 346.145C211.936 346.003 211.916 345.835 211.958 345.678C212 345.521 212.101 345.386 212.24 345.303L238.309 330.055C238.451 329.98 238.615 329.961 238.769 330.003C238.923 330.046 239.056 330.145 239.14 330.283C239.216 330.426 239.235 330.594 239.191 330.751C239.148 330.908 239.046 331.042 238.908 331.125L212.854 346.364C212.761 346.421 212.656 346.456 212.547 346.465Z" fill="black"/>
<path opacity="0.4" d="M246.304 322.654C246.166 322.657 246.031 322.613 245.921 322.529C245.811 322.446 245.731 322.326 245.696 322.191C245.66 322.056 245.671 321.913 245.725 321.785C245.78 321.657 245.875 321.55 245.997 321.484L272.05 306.244C272.193 306.16 272.363 306.138 272.523 306.181C272.683 306.225 272.819 306.33 272.902 306.476C272.984 306.621 273.007 306.793 272.964 306.955C272.921 307.117 272.816 307.255 272.673 307.339L246.62 322.57C246.525 322.628 246.415 322.657 246.304 322.654Z" fill="black"/>
<path opacity="0.4" d="M243.047 320.322C242.912 320.32 242.781 320.273 242.674 320.189C242.567 320.105 242.49 319.989 242.455 319.857C242.419 319.725 242.427 319.584 242.477 319.457C242.526 319.33 242.616 319.223 242.731 319.151L268.793 303.92C268.933 303.84 269.099 303.819 269.254 303.862C269.409 303.904 269.542 304.007 269.624 304.147C269.7 304.291 269.718 304.459 269.674 304.616C269.631 304.773 269.529 304.906 269.391 304.989L243.338 320.229C243.249 320.281 243.149 320.313 243.047 320.322Z" fill="black"/>
<path opacity="0.4" d="M249.729 324.708C249.621 324.709 249.514 324.681 249.421 324.626C249.327 324.571 249.25 324.492 249.197 324.397C249.118 324.255 249.097 324.087 249.139 323.929C249.181 323.772 249.282 323.638 249.421 323.555L275.483 308.315C275.554 308.267 275.634 308.234 275.718 308.218C275.803 308.202 275.889 308.205 275.973 308.225C276.056 308.244 276.135 308.281 276.204 308.333C276.272 308.386 276.33 308.451 276.372 308.527C276.414 308.602 276.441 308.686 276.45 308.772C276.459 308.859 276.451 308.946 276.425 309.029C276.399 309.112 276.357 309.188 276.3 309.254C276.244 309.319 276.175 309.372 276.098 309.41L250.044 324.624C249.948 324.68 249.839 324.709 249.729 324.708Z" fill="black"/>
<path d="M250.119 343.703C244.468 340.394 234.878 340.638 228.711 344.242C222.545 347.846 222.129 353.453 227.789 356.762C233.448 360.071 243.03 359.835 249.197 356.232C255.363 352.628 255.762 347.021 250.119 343.703ZM246.271 354.514C241.867 357.09 235.019 357.267 230.98 354.901C226.941 352.535 227.232 348.528 231.637 345.951C236.041 343.375 242.889 343.206 246.936 345.572C250.983 347.938 250.676 351.938 246.271 354.514Z" fill="#00268A"/>
<path d="M234.562 347.669C237.205 346.12 241.318 345.985 243.745 347.433C246.172 348.882 245.989 351.256 243.346 352.805C240.703 354.354 236.59 354.489 234.205 353.033C231.819 351.576 231.919 349.21 234.562 347.669Z" fill="#00268A"/>
<path opacity="0.5" d="M234.562 347.669C237.205 346.12 241.318 345.985 243.745 347.433C246.172 348.882 245.989 351.256 243.346 352.805C240.703 354.354 236.59 354.489 234.205 353.033C231.819 351.576 231.919 349.21 234.562 347.669Z" fill="black"/>
<path opacity="0.15" d="M250.119 343.703C244.468 340.394 234.878 340.638 228.711 344.242C222.545 347.846 222.129 353.453 227.789 356.762C233.448 360.071 243.03 359.835 249.197 356.232C255.363 352.628 255.762 347.021 250.119 343.703ZM246.271 354.514C241.867 357.09 235.019 357.267 230.98 354.901C226.941 352.535 227.232 348.528 231.637 345.951C236.041 343.375 242.889 343.206 246.936 345.572C250.983 347.938 250.676 351.938 246.271 354.514Z" fill="black"/>
<path d="M234.421 342.045L235.709 344.385C238.201 343.805 240.785 343.756 243.296 344.242L245.041 341.843C241.525 341.165 237.909 341.234 234.421 342.045Z" fill="#00268A"/>
<path opacity="0.7" d="M234.421 342.045L235.709 344.385C238.201 343.805 240.785 343.756 243.296 344.242L245.041 341.843C241.525 341.165 237.909 341.234 234.421 342.045Z" fill="white"/>
<path opacity="0.4" d="M239.731 340.883C239.567 340.872 239.414 340.796 239.305 340.671C239.196 340.547 239.14 340.384 239.149 340.217L239.324 337.338L250.775 330.602C250.919 330.518 251.089 330.496 251.249 330.539C251.408 330.583 251.544 330.689 251.627 330.834C251.71 330.979 251.732 331.151 251.689 331.313C251.646 331.475 251.542 331.613 251.399 331.697L240.479 338.096L240.346 340.302C240.335 340.459 240.266 340.607 240.152 340.715C240.037 340.823 239.887 340.883 239.731 340.883Z" fill="black"/>
<path d="M283.618 324.127C277.959 320.819 268.377 321.063 262.202 324.666C256.028 328.27 255.621 333.878 261.28 337.186C266.939 340.495 276.53 340.26 282.696 336.656C288.862 333.052 289.278 327.436 283.618 324.127ZM279.771 334.938C275.366 337.515 268.518 337.692 264.471 335.326C260.424 332.96 260.731 328.952 265.136 326.376C269.54 323.799 276.388 323.631 280.427 325.997C284.466 328.363 284.175 332.362 279.771 334.938Z" fill="#00268A"/>
<path d="M268.061 328.093C270.704 326.544 274.809 326.41 277.203 327.858C279.596 329.306 279.455 331.68 276.804 333.23C274.153 334.779 270.056 334.913 267.662 333.457C265.269 332 265.418 329.676 268.061 328.093Z" fill="#00268A"/>
<path opacity="0.5" d="M268.061 328.093C270.704 326.544 274.809 326.41 277.203 327.858C279.596 329.306 279.455 331.68 276.804 333.23C274.153 334.779 270.056 334.913 267.662 333.457C265.269 332 265.418 329.676 268.061 328.093Z" fill="black"/>
<path opacity="0.15" d="M283.618 324.127C277.959 320.819 268.377 321.063 262.202 324.666C256.028 328.27 255.621 333.878 261.28 337.186C266.939 340.495 276.53 340.26 282.696 336.656C288.862 333.052 289.278 327.436 283.618 324.127ZM279.771 334.938C275.366 337.515 268.518 337.692 264.471 335.326C260.424 332.96 260.731 328.952 265.136 326.376C269.54 323.799 276.388 323.631 280.427 325.997C284.466 328.363 284.175 332.362 279.771 334.938Z" fill="black"/>
<path d="M283.618 324.127C278.839 321.332 271.26 321.08 265.335 323.243L267.379 325.357C271.634 323.816 277.044 324.001 280.46 325.997C281.028 326.326 281.551 326.731 282.014 327.201L285.828 325.82C285.17 325.157 284.427 324.588 283.618 324.127Z" fill="#00268A"/>
<path opacity="0.7" d="M283.618 324.127C278.839 321.332 271.26 321.08 265.335 323.243L267.379 325.357C271.634 323.816 277.044 324.001 280.46 325.997C281.028 326.326 281.551 326.731 282.014 327.201L285.828 325.82C285.17 325.157 284.427 324.588 283.618 324.127Z" fill="white"/>
<path opacity="0.4" d="M273.322 321.256H273.281C273.117 321.245 272.964 321.169 272.855 321.045C272.746 320.92 272.69 320.757 272.699 320.591L272.874 317.703L284.325 311.009C284.466 310.945 284.625 310.936 284.772 310.983C284.919 311.031 285.043 311.132 285.121 311.267C285.198 311.402 285.224 311.562 285.192 311.715C285.16 311.868 285.073 312.003 284.949 312.095L274.045 318.444L273.912 320.658C273.906 320.815 273.842 320.963 273.733 321.074C273.623 321.185 273.477 321.25 273.322 321.256Z" fill="black"/>
<path opacity="0.4" d="M243.296 364.45C243.158 364.451 243.024 364.406 242.914 364.321C242.805 364.237 242.726 364.118 242.69 363.984C242.653 363.849 242.662 363.706 242.715 363.577C242.768 363.448 242.861 363.34 242.98 363.271L306.239 326.308C306.381 326.226 306.55 326.204 306.708 326.247C306.787 326.269 306.86 326.306 306.924 326.356C306.988 326.406 307.042 326.469 307.083 326.54C307.123 326.611 307.149 326.69 307.16 326.771C307.17 326.853 307.164 326.936 307.143 327.015C307.122 327.095 307.085 327.169 307.036 327.234C306.986 327.299 306.925 327.354 306.854 327.395L243.57 364.365C243.485 364.412 243.392 364.441 243.296 364.45Z" fill="black"/>
<path opacity="0.4" d="M246.678 366.437C246.544 366.433 246.414 366.385 246.308 366.301C246.203 366.216 246.127 366.099 246.093 365.968C246.058 365.836 246.067 365.697 246.117 365.57C246.167 365.444 246.256 365.337 246.37 365.266L309.654 328.27C309.725 328.218 309.805 328.182 309.891 328.163C309.976 328.145 310.064 328.145 310.15 328.163C310.235 328.181 310.315 328.217 310.386 328.269C310.457 328.321 310.516 328.387 310.56 328.463C310.604 328.54 310.631 328.625 310.641 328.712C310.65 328.8 310.641 328.889 310.615 328.973C310.588 329.057 310.544 329.135 310.486 329.201C310.428 329.267 310.357 329.32 310.278 329.356L246.994 366.352C246.898 366.408 246.789 366.437 246.678 366.437Z" fill="black"/>
<path opacity="0.4" d="M250.094 368.407C249.985 368.405 249.879 368.374 249.786 368.318C249.693 368.262 249.616 368.182 249.562 368.087C249.483 367.945 249.463 367.777 249.505 367.619C249.547 367.462 249.648 367.328 249.786 367.245L313.104 330.266C313.246 330.183 313.415 330.161 313.573 330.204C313.731 330.248 313.866 330.353 313.947 330.497C314.029 330.641 314.05 330.812 314.008 330.972C313.965 331.133 313.861 331.269 313.719 331.352L250.435 368.356C250.327 368.401 250.21 368.418 250.094 368.407Z" fill="black"/>
</svg>
