<svg width="418" height="307" viewBox="0 0 418 307" fill="none" xmlns="http://www.w3.org/2000/svg">
<path d="M192.085 13.7458C192.162 9.3281 195.827 5.74731 200.182 6.49502C200.345 6.52298 200.508 6.55172 200.67 6.58122C205.016 7.36967 207.234 11.9855 205.797 16.1616L201.194 29.543C200.454 31.6964 198.107 32.8061 195.864 32.4104C193.623 32.0149 191.799 30.1706 191.838 27.8948L192.085 13.7458Z" fill="#E5243B"/>
<path d="M208.235 17.0951C209.915 13.0063 214.636 11.0056 218.42 13.2906C218.562 13.3763 218.704 13.4627 218.845 13.5497C222.602 15.8676 222.987 20.9725 220.129 24.3381L210.976 35.1187C209.501 36.8559 206.91 37.0347 204.964 35.848C203.021 34.6629 201.994 32.2815 202.859 30.1764L208.235 17.0951Z" fill="#DDA63A"/>
<path d="M222.211 26.2499C225.281 23.0677 230.408 22.9487 233.083 26.469C233.184 26.6016 233.284 26.7347 233.384 26.8683C236.022 30.4091 234.496 35.2966 230.599 37.3712L218.127 44.0098C216.114 45.081 213.638 44.2911 212.266 42.4697C210.897 40.6509 210.82 38.0578 212.401 36.4191L222.211 26.2499Z" fill="#4C9F38"/>
<path d="M231.901 40.0673C235.934 38.2573 240.736 40.0547 241.91 44.3167C241.954 44.478 241.998 44.6395 242.041 44.8011C243.173 49.0711 239.937 53.0417 235.545 53.5152L221.507 55.0286C219.241 55.273 217.237 53.6183 216.641 51.4174C216.046 49.218 216.941 46.7809 219.02 45.848L231.901 40.0673Z" fill="#C5192D"/>
<path d="M235.749 56.2035C240.163 55.9969 243.971 59.4249 243.507 63.819C243.489 63.9854 243.47 64.1518 243.451 64.3181C242.944 68.7089 238.476 71.2211 234.214 70.052L220.6 66.3181C218.402 65.7152 217.143 63.4435 217.394 61.1783C217.645 58.9124 219.371 56.9704 221.648 56.8637L235.749 56.2035Z" fill="#FF3A21"/>
<path d="M233.548 72.2875C237.74 73.6772 240.066 78.2397 238.06 82.174C237.984 82.3227 237.907 82.4711 237.83 82.6191C235.784 86.5387 230.71 87.2831 227.149 84.6623L215.774 76.2903C213.94 74.9403 213.579 72.3704 214.624 70.3467C215.67 68.3206 217.978 67.1257 220.142 67.8432L233.548 72.2875Z" fill="#26BDE2"/>
<path d="M225.616 86.6589C229.018 89.4728 229.533 94.5662 226.239 97.5059C226.115 97.6166 225.99 97.7266 225.865 97.8361C222.539 100.749 217.54 99.6042 215.17 95.8716L207.594 83.9367C206.374 82.015 206.968 79.4905 208.674 77.9834C210.382 76.4743 212.966 76.1968 214.723 77.6496L225.616 86.6589Z" fill="#FCC30B"/>
<path d="M213.494 96.9046C215.693 100.733 214.389 105.684 210.272 107.281C210.118 107.341 209.963 107.4 209.808 107.458C205.673 109.017 201.395 106.193 200.485 101.869L197.57 88.0242C197.101 85.7971 198.543 83.6416 200.669 82.8291C202.797 82.0159 205.312 82.662 206.447 84.6373L213.494 96.9046Z" fill="#A21942"/>
<path d="M198.495 102.248C199.208 106.607 196.242 110.784 191.825 110.827C191.66 110.829 191.495 110.83 191.33 110.83C186.912 110.832 183.904 106.685 184.572 102.319L186.712 88.3294C187.057 86.079 189.166 84.5684 191.443 84.5567C193.72 84.545 195.845 86.034 196.212 88.2808L198.495 102.248Z" fill="#FD6925"/>
<path d="M182.42 101.928C181.538 106.259 177.279 109.111 173.133 107.579C172.978 107.522 172.823 107.464 172.669 107.405C168.542 105.836 167.204 100.893 169.378 97.0504L176.344 84.7367C177.466 82.754 179.977 82.0913 182.11 82.8905C184.241 83.6889 185.698 85.8349 185.243 88.065L182.42 101.928Z" fill="#DD1367"/>
<path d="M167.452 95.8748C165.082 99.6077 160.084 100.753 156.757 97.8407C156.632 97.7312 156.508 97.6212 156.384 97.5106C153.089 94.5713 153.603 89.4778 157.005 86.6635L167.897 77.6527C169.653 76.1997 172.237 76.4768 173.946 77.9858C175.652 79.4925 176.246 82.017 175.027 83.9389L167.452 95.8748Z" fill="#FD9D24"/>
<path d="M155.566 84.7958C152.015 87.4298 146.938 86.7043 144.878 82.7924C144.8 82.6447 144.723 82.4966 144.646 82.3482C142.626 78.4214 144.934 73.8503 149.121 72.445L162.51 67.9507C164.672 67.2251 166.985 68.4114 168.038 70.4336C169.091 72.4534 168.739 75.0246 166.91 76.3814L155.566 84.7958Z" fill="#BF8B2E"/>
<path d="M148.422 70.1203C144.162 71.2962 139.689 68.7911 139.175 64.4011C139.156 64.2348 139.137 64.0685 139.119 63.9021C138.647 59.5088 142.451 56.0747 146.865 56.2743L160.967 56.9121C163.244 57.0151 164.973 58.9543 165.228 61.2198C165.482 63.4846 164.227 65.7584 162.03 66.3647L148.422 70.1203Z" fill="#3F7E44"/>
<path d="M146.996 54.2908C142.596 53.8943 139.29 49.9807 140.348 45.6915C140.388 45.5291 140.429 45.3669 140.471 45.2049C141.57 40.9231 146.339 39.0419 150.404 40.781L163.384 46.3352C165.478 47.2316 166.416 49.6527 165.86 51.8623C165.303 54.0733 163.328 55.7626 161.057 55.558L146.996 54.2908Z" fill="#0A97D9"/>
<path d="M151.548 38.2833C147.603 36.2991 145.965 31.4479 148.521 27.8473C148.618 27.7114 148.715 27.576 148.813 27.441C151.406 23.86 156.535 23.8608 159.677 26.9715L169.718 36.9113C171.336 38.5132 171.32 41.1075 169.992 42.9575C168.663 44.81 166.206 45.6568 164.169 44.6322L151.548 38.2833Z" fill="#56C02B"/>
<path d="M161.215 25.4643C158.231 22.2102 158.42 17.0944 162.086 14.6347C162.224 14.5423 162.362 14.4505 162.501 14.3594C166.195 11.9314 170.989 13.7506 172.824 17.7725L178.694 30.6381C179.639 32.7087 178.704 35.1276 176.807 36.3861C174.908 37.6462 172.312 37.5665 170.771 35.8868L161.215 25.4643Z" fill="#00689D"/>
<path d="M174.382 11.6555C172.801 7.53221 174.856 2.84206 179.171 1.90228C179.333 1.86711 179.494 1.8327 179.656 1.79905C183.982 0.89959 187.77 4.35048 188.001 8.76306L189.695 41.1058C189.742 42.0149 189.039 42.7776 188.148 42.967C187.257 43.1566 186.304 42.7457 185.977 41.8951L174.382 11.6555Z" fill="#19486A"/>
<path d="M281.373 56.633V40.3935C284.245 40.388 287.057 41.223 289.466 42.7967C291.874 44.3705 293.776 46.615 294.938 49.2568C296.101 51.8985 296.475 54.8235 296.014 57.6751C295.553 60.5267 294.277 63.1819 292.342 65.3171C290.408 67.4522 287.897 68.9752 285.117 69.7003C282.337 70.4254 279.407 70.3214 276.684 69.401C273.962 68.4805 271.564 66.7833 269.784 64.5163C268.003 62.2492 266.917 59.5102 266.657 56.633H281.373Z" fill="white"/>
<path d="M261.741 54.0492V53.9375C261.74 51.8434 262.149 49.7696 262.945 47.8346C263.741 45.8996 264.908 44.1413 266.38 42.6602C267.852 41.1791 269.599 40.0042 271.523 39.2026C273.446 38.401 275.507 37.9884 277.589 37.9884C277.93 37.9884 278.263 37.9884 278.596 37.9884V54.0492H261.741Z" fill="white"/>
<path d="M85.0687 67.8575H81.3602V81.4835H85.0687V67.8575Z" fill="white"/>
<path d="M75.8751 59.0863H72.1591V81.4835H75.8751V59.0863Z" fill="white"/>
<path d="M66.6746 55.7654H62.9661V81.4836H66.6746V55.7654Z" fill="white"/>
<path d="M57.4803 58.8704H53.7718V81.4835H57.4803V58.8704Z" fill="white"/>
<path d="M48.2866 56.8972H44.578V81.4835H48.2866V56.8972Z" fill="white"/>
<path d="M39.0856 49.0641H35.377V81.491H39.0856V49.0641Z" fill="white"/>
<path d="M79.6429 63.2634H77.7331V81.491H79.6429V63.2634Z" fill="white"/>
<path d="M70.2423 63.2634H68.3251V81.491H70.2423V63.2634Z" fill="white"/>
<path d="M60.9893 63.2634H59.0721V81.491H60.9893V63.2634Z" fill="white"/>
<path d="M52.2177 63.2634H50.3004V81.491H52.2177V63.2634Z" fill="white"/>
<path d="M42.3277 63.2634H40.4105V81.491H42.3277V63.2634Z" fill="white"/>
<path d="M86.9416 80.8804H32.7045V82.2355H86.9416V80.8804Z" fill="white"/>
<path d="M332.766 79.3912L334.38 81.2304C334.874 81.8115 335.177 82.5334 335.244 83.2955C335.312 84.0575 335.142 84.8218 334.757 85.482C334.155 86.5217 333.614 87.5957 333.136 88.6986C332.829 89.4173 332.308 90.0231 331.646 90.4335C330.983 90.8439 330.211 91.0389 329.435 90.9919L326.985 90.8653C326.098 90.8236 325.229 91.1291 324.561 91.7177C323.893 92.3064 323.478 93.1324 323.402 94.0224L322.78 101.952C322.745 102.386 322.797 102.822 322.933 103.234C323.068 103.647 323.285 104.028 323.571 104.355C323.856 104.681 324.204 104.947 324.593 105.135C324.983 105.324 325.406 105.431 325.837 105.452L328.295 105.571C329.051 105.611 329.776 105.89 330.365 106.369C330.954 106.847 331.377 107.501 331.574 108.237C331.87 109.377 332.233 110.498 332.662 111.595C332.939 112.312 332.988 113.098 332.803 113.845C332.617 114.592 332.206 115.262 331.626 115.764L329.753 117.417C329.421 117.7 329.147 118.047 328.949 118.437C328.75 118.828 328.63 119.253 328.597 119.69C328.563 120.127 328.616 120.567 328.752 120.983C328.888 121.399 329.105 121.784 329.391 122.116L334.528 128.013C334.819 128.338 335.171 128.603 335.563 128.792C335.956 128.98 336.382 129.089 336.816 129.112C337.251 129.135 337.686 129.071 338.096 128.925C338.506 128.778 338.883 128.552 339.206 128.259L341.086 126.606C341.657 126.091 342.372 125.768 343.133 125.68C343.894 125.592 344.664 125.744 345.335 126.114C346.36 126.675 347.418 127.172 348.503 127.603C349.205 127.89 349.799 128.393 350.198 129.041C350.597 129.689 350.781 130.447 350.724 131.207L350.524 133.687C350.489 134.119 350.541 134.554 350.676 134.966C350.812 135.378 351.028 135.758 351.313 136.084C351.597 136.41 351.944 136.674 352.333 136.863C352.721 137.051 353.143 137.158 353.574 137.179L361.48 137.596C362.366 137.637 363.234 137.332 363.901 136.743C364.567 136.154 364.981 135.328 365.055 134.439L365.255 131.974C365.314 131.2 365.608 130.462 366.096 129.861C366.584 129.259 367.244 128.822 367.986 128.609C369.137 128.282 370.267 127.884 371.369 127.417C372.069 127.116 372.845 127.044 373.588 127.211C374.33 127.378 375.002 127.776 375.507 128.348L377.114 130.187C377.703 130.842 378.527 131.235 379.404 131.279C380.281 131.324 381.14 131.017 381.792 130.425L387.817 125.109C388.486 124.534 388.9 123.715 388.969 122.833C389.038 121.951 388.757 121.077 388.187 120.403L386.589 118.572C386.09 117.993 385.784 117.271 385.715 116.508C385.646 115.745 385.817 114.98 386.204 114.32C386.805 113.285 387.341 112.213 387.81 111.111C388.119 110.393 388.639 109.787 389.301 109.376C389.963 108.964 390.734 108.767 391.511 108.81L393.961 108.937C394.848 108.978 395.715 108.672 396.382 108.084C397.049 107.495 397.463 106.669 397.537 105.779L398.158 97.8422C398.194 97.4099 398.142 96.9748 398.007 96.563C397.871 96.1512 397.655 95.7711 397.37 95.4452C397.086 95.1193 396.739 94.8544 396.35 94.6663C395.962 94.4781 395.539 94.3706 395.109 94.35L392.651 94.2234C391.896 94.1873 391.172 93.9101 390.583 93.4322C389.995 92.9543 389.573 92.3004 389.379 91.5653C389.075 90.4282 388.707 89.3095 388.276 88.2146C387.998 87.4937 387.949 86.7034 388.137 85.9535C388.326 85.2035 388.742 84.5313 389.327 84.03L391.193 82.377C391.525 82.0927 391.797 81.7453 391.995 81.3548C392.194 80.9643 392.313 80.5384 392.348 80.1013C392.382 79.6643 392.33 79.2247 392.196 78.8077C392.061 78.3907 391.846 78.0045 391.563 77.6712L386.381 71.7815C386.09 71.4557 385.737 71.1909 385.344 71.0023C384.951 70.8136 384.524 70.7047 384.089 70.6819C383.654 70.6591 383.218 70.7227 382.808 70.8693C382.397 71.0158 382.019 71.2423 381.696 71.5358L379.83 73.1888C379.261 73.7069 378.545 74.034 377.782 74.1247C377.02 74.2155 376.248 74.0653 375.574 73.6951C374.551 73.1226 373.495 72.6105 372.413 72.1613C371.707 71.8782 371.11 71.3745 370.71 70.7243C370.31 70.0741 370.129 69.3119 370.192 68.55L370.385 66.0854C370.42 65.6527 370.368 65.2173 370.233 64.8051C370.098 64.3929 369.881 64.0122 369.597 63.6858C369.312 63.3593 368.966 63.0937 368.577 62.9048C368.188 62.7158 367.766 62.6074 367.335 62.5858L359.437 62.1763C358.551 62.1366 357.684 62.4429 357.018 63.0314C356.351 63.6198 355.937 64.4447 355.861 65.3334L355.669 67.798C355.604 68.5729 355.307 69.3098 354.817 69.9108C354.326 70.5119 353.666 70.9488 352.923 71.1635C351.775 71.4901 350.648 71.8854 349.547 72.3474C348.848 72.6482 348.073 72.7209 347.331 72.5553C346.588 72.3897 345.916 71.994 345.409 71.4241L343.803 69.5775C343.211 68.9242 342.386 68.5325 341.509 68.4879C340.631 68.4432 339.772 68.7493 339.117 69.3393L333.092 74.6631C332.762 74.952 332.491 75.3035 332.296 75.6975C332.101 76.0914 331.985 76.5202 331.955 76.9593C331.925 77.3984 331.981 77.8391 332.12 78.2564C332.259 78.6737 332.479 79.0593 332.766 79.3912ZM344.166 92.6002C352.049 84.4842 365.018 85.1544 371.554 94.0001C376.736 100.984 375.922 111.006 369.711 117.403C361.835 125.511 348.844 124.848 342.322 115.98C337.17 109.018 337.955 98.9814 344.166 92.6002Z" fill="white"/>
<path d="M364.33 151.795H278.67V254.593H364.33V151.795Z" fill="white"/>
<path d="M287.553 151.721H256.485V254.601H287.553V151.721Z" fill="#93E7FF"/>
<path d="M342.76 186.195C343.922 183.961 345.595 181.69 346.883 179.546C348.897 176.195 358.897 157.476 349.363 157.804C344.063 157.983 342.405 165.205 341.368 169.353C340.063 174.87 339.409 180.523 339.421 186.195H342.76Z" fill="#5FBB72"/>
<path d="M348.408 161.706C348.408 161.706 343.33 173.619 342.167 178.228C341.005 182.837 340.369 186.195 340.369 186.195H341.634L348.408 161.706Z" fill="#9ED5AB"/>
<path d="M343.974 161.706L346.024 167.476" stroke="#9ED5AB" stroke-width="0.25" stroke-miterlimit="10"/>
<path d="M353.071 164.922L346.416 167.476" stroke="#9ED5AB" stroke-width="0.25" stroke-miterlimit="10"/>
<path d="M347.252 158.31L347.541 164.654" stroke="#9ED5AB" stroke-width="0.25" stroke-miterlimit="10"/>
<path d="M352.715 159.941L347.252 164.922" stroke="#9ED5AB" stroke-width="0.25" stroke-miterlimit="10"/>
<path d="M341.975 166.992L343.973 173.954" stroke="#9ED5AB" stroke-width="0.25" stroke-miterlimit="10"/>
<path d="M351.161 170.871L343.974 173.954" stroke="#9ED5AB" stroke-width="0.25" stroke-miterlimit="10"/>
<path d="M340.243 175.056L341.976 179.665" stroke="#9ED5AB" stroke-width="0.25" stroke-miterlimit="10"/>
<path d="M346.882 179.546L341.975 181.452" stroke="#9ED5AB" stroke-width="0.25" stroke-miterlimit="10"/>
<path d="M349.955 173.641L343.278 177.357" stroke="#9ED5AB" stroke-width="0.25" stroke-miterlimit="10"/>
<path d="M312.151 202.651C310.455 199.367 307.998 196.039 306.11 192.896C303.149 187.982 288.485 160.522 302.476 160.998C310.241 161.266 312.669 171.854 314.194 177.945C316.113 186.038 317.08 194.33 317.073 202.651H312.151Z" fill="#5FBB72"/>
<path d="M303.868 166.724C303.868 166.724 311.322 184.177 313.025 190.968C314.727 197.759 315.667 202.651 315.667 202.651H313.802L303.868 166.724Z" fill="#9ED5AB"/>
<path d="M310.375 166.724L307.369 175.198" stroke="#9ED5AB" stroke-width="0.25" stroke-miterlimit="10"/>
<path d="M297.028 171.445L306.792 175.198" stroke="#9ED5AB" stroke-width="0.25" stroke-miterlimit="10"/>
<path d="M305.563 161.743L305.141 171.058" stroke="#9ED5AB" stroke-width="0.25" stroke-miterlimit="10"/>
<path d="M297.553 164.133L305.563 171.445" stroke="#9ED5AB" stroke-width="0.25" stroke-miterlimit="10"/>
<path d="M313.306 174.475L310.374 184.684" stroke="#9ED5AB" stroke-width="0.25" stroke-miterlimit="10"/>
<path d="M299.834 180.171L310.375 184.684" stroke="#9ED5AB" stroke-width="0.25" stroke-miterlimit="10"/>
<path d="M315.845 186.314L313.306 193.068" stroke="#9ED5AB" stroke-width="0.25" stroke-miterlimit="10"/>
<path d="M306.111 192.896L313.306 195.696" stroke="#9ED5AB" stroke-width="0.25" stroke-miterlimit="10"/>
<path d="M301.61 184.237L311.396 189.687" stroke="#9ED5AB" stroke-width="0.25" stroke-miterlimit="10"/>
<path d="M308.235 249.537C307.384 247.892 306.155 246.231 305.215 244.653C303.734 242.196 296.391 228.451 303.394 228.696C307.28 228.823 308.494 234.124 309.256 237.17C310.215 241.221 310.697 245.372 310.693 249.537H308.235Z" fill="#5FBB72"/>
<path d="M304.09 231.563C304.09 231.563 307.791 240.29 308.672 243.692C309.553 247.095 309.997 249.537 309.997 249.537H309.064L304.09 231.563Z" fill="#9ED5AB"/>
<path d="M307.347 231.563L305.837 235.8" stroke="#9ED5AB" stroke-width="0.25" stroke-miterlimit="10"/>
<path d="M300.662 233.916L305.548 235.8" stroke="#9ED5AB" stroke-width="0.25" stroke-miterlimit="10"/>
<path d="M304.941 229.069L304.726 233.722" stroke="#9ED5AB" stroke-width="0.25" stroke-miterlimit="10"/>
<path d="M300.929 230.26L304.941 233.916" stroke="#9ED5AB" stroke-width="0.25" stroke-miterlimit="10"/>
<path d="M308.812 235.435L307.347 240.55" stroke="#9ED5AB" stroke-width="0.25" stroke-miterlimit="10"/>
<path d="M302.069 238.287L307.347 240.55" stroke="#9ED5AB" stroke-width="0.25" stroke-miterlimit="10"/>
<path d="M310.079 241.362L308.813 244.742" stroke="#9ED5AB" stroke-width="0.25" stroke-miterlimit="10"/>
<path d="M305.215 244.653L308.812 246.053" stroke="#9ED5AB" stroke-width="0.25" stroke-miterlimit="10"/>
<path d="M302.957 240.319L307.858 243.052" stroke="#9ED5AB" stroke-width="0.25" stroke-miterlimit="10"/>
<path d="M356.232 223.521C355.566 222.233 354.604 220.93 353.863 219.694C352.701 217.766 346.95 206.991 352.435 207.178C355.477 207.289 356.432 211.437 357.032 213.827C357.778 216.999 358.156 220.247 358.157 223.506L356.232 223.521Z" fill="#5FBB72"/>
<path d="M352.982 209.426C352.982 209.426 355.943 216.277 356.572 218.935C357.202 221.593 357.609 223.521 357.609 223.521H356.868L352.982 209.426Z" fill="#9ED5AB"/>
<path d="M355.536 209.426L354.352 212.747" stroke="#9ED5AB" stroke-width="0.25" stroke-miterlimit="10"/>
<path d="M350.296 211.28L354.13 212.747" stroke="#9ED5AB" stroke-width="0.25" stroke-miterlimit="10"/>
<path d="M353.649 207.475L353.479 211.124" stroke="#9ED5AB" stroke-width="0.25" stroke-miterlimit="10"/>
<path d="M350.503 208.414L353.649 211.28" stroke="#9ED5AB" stroke-width="0.25" stroke-miterlimit="10"/>
<path d="M356.684 212.472L355.536 216.478" stroke="#9ED5AB" stroke-width="0.25" stroke-miterlimit="10"/>
<path d="M351.398 214.705L355.536 216.478" stroke="#9ED5AB" stroke-width="0.25" stroke-miterlimit="10"/>
<path d="M357.676 217.11L356.684 219.761" stroke="#9ED5AB" stroke-width="0.25" stroke-miterlimit="10"/>
<path d="M353.863 219.694L356.684 220.789" stroke="#9ED5AB" stroke-width="0.25" stroke-miterlimit="10"/>
<path d="M352.094 216.299L355.936 218.436" stroke="#9ED5AB" stroke-width="0.25" stroke-miterlimit="10"/>
<path d="M277.449 196.992C276.783 195.704 275.828 194.4 275.088 193.164C273.925 191.236 268.166 180.462 273.659 180.648C276.701 180.76 277.656 184.907 278.256 187.297C279.004 190.468 279.379 193.717 279.374 196.977L277.449 196.992Z" fill="#9ED5AB"/>
<path d="M274.207 182.897C274.207 182.897 277.123 189.739 277.797 192.405C278.47 195.071 278.833 196.992 278.833 196.992H278.093L274.207 182.897Z" fill="#5FBB72"/>
<path d="M275.65 186.247L275.502 186.188L276.679 182.874L276.827 182.926L275.65 186.247Z" fill="#5FBB72"/>
<path d="M275.325 186.292L271.49 184.825L271.55 184.669L275.377 186.143L275.325 186.292Z" fill="#5FBB72"/>
<path d="M274.784 180.926L274.588 184.576L274.75 184.585L274.947 180.934L274.784 180.926Z" fill="#5FBB72"/>
<path d="M274.813 184.81L271.675 181.943L271.778 181.817L274.924 184.684L274.813 184.81Z" fill="#5FBB72"/>
<path d="M276.834 189.963L276.679 189.918L277.826 185.912L277.982 185.964L276.834 189.963Z" fill="#5FBB72"/>
<path d="M276.723 190.022L272.593 188.25L272.652 188.101L276.782 189.866L276.723 190.022Z" fill="#5FBB72"/>
<path d="M277.974 193.261L277.826 193.202L278.826 190.551L278.974 190.611L277.974 193.261Z" fill="#5FBB72"/>
<path d="M277.878 194.334L275.058 193.239L275.11 193.083L277.93 194.185L277.878 194.334Z" fill="#5FBB72"/>
<path d="M277.116 191.973L273.274 189.836L273.356 189.695L277.197 191.832L277.116 191.973Z" fill="#5FBB72"/>
<path d="M271.438 235.219C272.363 233.447 273.659 231.645 274.71 229.947C276.309 227.282 284.244 212.427 276.679 212.688C272.474 212.829 271.157 218.555 270.335 221.853C269.296 226.244 268.777 230.743 268.788 235.256L271.438 235.219Z" fill="#9ED5AB"/>
<path d="M275.924 215.785C275.924 215.785 271.89 225.227 270.965 228.897C270.039 232.568 269.536 235.219 269.536 235.219H270.55L275.924 215.785Z" fill="#5FBB72"/>
<path d="M273.926 220.402L274.133 220.327L272.504 215.748L272.297 215.822L273.926 220.402Z" fill="#5FBB72"/>
<path d="M274.377 220.469L279.662 218.443L279.588 218.235L274.303 220.26L274.377 220.469Z" fill="#5FBB72"/>
<path d="M276.589 211.769L276.367 211.78L276.618 216.829L276.84 216.817L276.589 211.769Z" fill="#5FBB72"/>
<path d="M275.08 218.421L279.41 214.467L279.269 214.296L274.932 218.25L275.08 218.421Z" fill="#5FBB72"/>
<path d="M272.297 225.532L272.512 225.472L270.92 219.947L270.713 220.007L272.297 225.532Z" fill="#5FBB72"/>
<path d="M272.445 225.606L278.145 223.164L278.063 222.956L272.364 225.398L272.445 225.606Z" fill="#5FBB72"/>
<path d="M270.712 230.074L270.92 229.999L269.543 226.343L269.343 226.425L270.712 230.074Z" fill="#5FBB72"/>
<path d="M270.853 231.563L274.747 230.051L274.666 229.843L270.779 231.354L270.853 231.563Z" fill="#5FBB72"/>
<path d="M271.904 228.309L277.197 225.361L277.093 225.159L271.793 228.108L271.904 228.309Z" fill="#5FBB72"/>
<path d="M330.716 243.417C331.93 241.079 333.677 238.711 335.017 236.47C337.127 232.963 347.601 213.388 337.615 213.737C332.078 213.931 330.346 221.474 329.258 225.815C327.897 231.582 327.214 237.49 327.222 243.417H330.716Z" fill="#5FBB72"/>
<path d="M336.616 217.825C336.616 217.825 331.308 230.252 330.094 235.092C328.88 239.932 328.177 243.417 328.177 243.417H329.509L336.616 217.825Z" fill="#9ED5AB"/>
<path d="M331.982 217.825L334.129 223.856" stroke="#9ED5AB" stroke-width="0.25" stroke-miterlimit="10"/>
<path d="M341.494 221.183L334.536 223.856" stroke="#9ED5AB" stroke-width="0.25" stroke-miterlimit="10"/>
<path d="M335.41 214.266L335.713 220.908" stroke="#9ED5AB" stroke-width="0.25" stroke-miterlimit="10"/>
<path d="M341.117 215.971L335.41 221.183" stroke="#9ED5AB" stroke-width="0.25" stroke-miterlimit="10"/>
<path d="M329.894 223.343L331.982 230.617" stroke="#9ED5AB" stroke-width="0.25" stroke-miterlimit="10"/>
<path d="M339.496 227.408L331.982 230.617" stroke="#9ED5AB" stroke-width="0.25" stroke-miterlimit="10"/>
<path d="M328.088 231.779L329.894 236.589" stroke="#9ED5AB" stroke-width="0.25" stroke-miterlimit="10"/>
<path d="M335.017 236.47L329.894 238.458" stroke="#9ED5AB" stroke-width="0.25" stroke-miterlimit="10"/>
<path d="M338.229 230.297L331.256 234.184" stroke="#9ED5AB" stroke-width="0.25" stroke-miterlimit="10"/>
<path d="M261.726 163.158L263.858 163.947V164.758L261.726 163.158Z" fill="#5FBB72"/>
<path d="M265.368 163.954L264.288 166.694L264.621 167.618L265.368 163.954Z" fill="#5FBB72"/>
<path d="M263.103 168.414L265.368 169.844L265.59 171.073L263.103 168.414Z" fill="#5FBB72"/>
<path d="M356.958 187.811L352.568 188.727V189.665L356.958 187.811Z" fill="#5FBB72"/>
<path d="M349.458 188.742L351.694 191.928L350.998 193.008L349.458 188.742Z" fill="#5FBB72"/>
<path d="M354.13 193.931L349.459 195.592L349.007 197.029L354.13 193.931Z" fill="#5FBB72"/>
<path d="M363.708 153.456C364.449 155.749 364.323 158.206 364.323 160.611C364.297 160.804 364.348 160.999 364.463 161.155C364.556 161.236 364.668 161.29 364.789 161.311L372.036 163.545C372.586 163.754 373.174 163.846 373.761 163.813C374.055 163.789 374.335 163.673 374.562 163.483C374.789 163.292 374.951 163.035 375.027 162.748C375.175 161.884 374.286 161.259 373.546 160.76C372 159.67 370.749 158.209 369.906 156.51C369.063 154.81 368.655 152.926 368.72 151.028C367.017 151.884 365.278 152.674 363.694 153.485" fill="#FF8556"/>
<path d="M364.145 158.459C364.256 159.628 363.457 160.931 364.145 161.892C364.582 162.517 365.433 162.636 366.181 162.793C367.987 163.165 369.668 164.021 371.459 164.483C373.25 164.945 377.336 166.017 377.906 164.245C378.38 162.755 375.175 161.199 373.946 160.276C372.565 159.212 371.273 158.037 370.082 156.762C368.128 157.715 366.159 158.764 364.16 158.459" fill="#06112D"/>
<path d="M355.566 127.529L355.729 127.596C356.825 134.275 357.271 141.045 357.061 147.812C356.95 150.336 356.588 152.875 356.402 155.384C362.28 156.129 368.298 156.575 374.057 155.496H374.116C373.953 153.024 373.916 150.567 373.731 148.05C373.228 141.17 370.859 115.519 366.403 111.52C364.116 109.473 359.637 109.488 356.728 109.286C352.287 109.011 347.905 112.473 343.833 114.372C336.194 117.939 318.399 128.609 316.992 130.582C316.163 131.743 314.772 133.061 314.668 134.625L314.794 133.352C314.52 136.151 314.054 139.092 314.409 141.862C314.631 143.724 315.793 145.027 316.955 146.754C318.88 149.599 323.055 151.966 326.349 152.406C333.204 153.411 337.778 147.938 341.679 143.225C344.425 139.926 346.861 136.397 349.666 133.173C350.318 132.48 354.389 127.224 355.566 127.529Z" fill="#00268A"/>
<path d="M356.151 203.269C356.891 205.554 356.765 208.019 356.758 210.424C356.734 210.618 356.788 210.813 356.906 210.968C356.998 211.045 357.107 211.099 357.224 211.124L364.478 213.321C365.027 213.534 365.616 213.626 366.203 213.589C366.497 213.566 366.777 213.452 367.004 213.263C367.23 213.073 367.393 212.818 367.469 212.531C367.617 211.668 366.729 211.042 365.988 210.543C364.441 209.454 363.189 207.994 362.346 206.294C361.503 204.594 361.096 202.71 361.162 200.811C359.46 201.668 357.72 202.457 356.136 203.269" fill="#FF8556"/>
<path d="M325.068 70.4189C322.107 67.1874 315.215 68.1852 313.18 69.5403C312.281 70.2072 311.538 71.0636 311.003 72.0496C310.554 72.8438 310.187 73.6821 309.908 74.5514C308.487 78.4903 307.991 78.3563 305.955 79.6593C304.371 80.6719 303.12 83.1589 302.061 85.1171C300.499 88.0061 300.981 92.2056 303.238 93.5161C304.97 94.5213 309.937 96.219 313.75 94.4319C316.266 93.248 317.888 88.1253 316.992 84.1417C315.067 75.5789 322.27 79.3466 325.749 78.6243C329.657 77.8127 327.34 72.9208 325.068 70.4189Z" fill="#06112D"/>
<path d="M302.373 136.494C299.871 142.048 303.453 148.899 308.761 151.832C314.068 154.766 320.501 154.677 326.527 153.925C332.552 153.173 338.585 151.84 344.603 152.562C345.436 152.613 346.245 152.868 346.957 153.307C348.437 154.379 348.437 156.568 348.437 158.429C348.497 200.588 348.63 194.438 349.178 206.247C355.351 204.825 363.546 203.343 369.164 202.04L367.587 168.623C367.313 162.778 367.017 156.836 365.137 151.296C363.257 145.756 359.534 140.567 354.159 138.318C349.392 136.315 344.026 136.829 338.874 136.695C333.2 136.552 327.576 135.589 322.174 133.836C320.963 133.381 319.707 133.056 318.428 132.868C317.335 132.79 316.237 132.842 315.156 133.024C310.748 133.596 306.438 134.769 302.343 136.509" fill="#0096AE"/>
<path d="M316.837 106.941C315.461 111.528 314.368 116.195 313.565 120.917C313.032 124.096 312.64 127.41 313.765 130.515C314.376 132.195 315.439 133.672 316.834 134.781C318.23 135.89 319.904 136.589 321.67 136.799C326.4 137.186 330.02 133.709 333.98 131.587C331.714 131.241 329.628 130.14 328.059 128.46C326.64 126.882 325.456 125.106 324.542 123.188C321.582 117.507 318.946 111.692 316.829 106.948" fill="#06112D"/>
<path d="M356.602 208.235C356.706 209.404 355.907 210.707 356.602 211.667C357.039 212.293 357.883 212.412 358.631 212.568C360.444 212.941 362.125 213.797 363.916 214.259C365.707 214.72 367.765 214.75 369.223 213.603C368.687 212.145 367.698 210.9 366.403 210.052C365.114 209.215 363.902 208.263 362.783 207.207C360.875 208.151 358.733 208.509 356.625 208.235" fill="#06112D"/>
<path d="M315.053 147.506C316.326 149.74 319.494 149.792 322.011 149.509C328.99 148.74 335.924 147.596 342.782 146.084C345.262 145.541 348.067 144.997 350.184 146.419C351.285 147.241 352.126 148.366 352.605 149.658C353.989 152.905 354.204 156.516 354.204 160.038C354.204 173.589 351.243 187.215 353.397 200.588" stroke="#06112D" stroke-width="0.5" stroke-miterlimit="10"/>
<path d="M314.741 90.3441C313.45 89.9175 312.075 89.8104 310.734 90.0321C309.392 90.2538 308.124 90.7976 307.036 91.6174C304.868 93.2799 303.169 95.4818 302.106 98.006C298.552 105.653 298.626 114.424 298.767 122.853C298.893 130.299 299.019 137.745 299.307 144.654C311.938 145.48 324.453 141.788 334.639 134.23C330.797 123.471 333.158 111.438 330.642 100.292C330.094 97.8198 329.206 95.251 327.229 93.6799C325.556 92.3471 323.365 91.9376 321.27 91.5653C317.976 90.977 314.682 90.3963 314.741 90.3441Z" fill="#9ED5AB"/>
<path d="M316.052 80.5305C315.627 84.0206 314.676 87.4253 313.231 90.6271C313.054 91.0292 312.676 91.2973 312.676 91.7366C312.712 92.2182 312.901 92.6754 313.217 93.0396C313.819 93.8319 314.586 94.4823 315.465 94.9452C316.343 95.4082 317.311 95.6727 318.302 95.7201C320.278 95.802 323.114 95.2212 322.936 93.2406C322.773 91.4685 321.959 90.3591 321.966 88.5869C321.976 86.1608 322.224 83.7415 322.706 81.3644C320.467 81.2655 318.239 80.9866 316.044 80.5305" fill="#FF8556"/>
<path d="M325.098 71.9602C324.846 72.0272 324.602 72.1017 324.358 72.1836C323.07 72.7048 321.737 72.7048 320.435 73.0995C317.178 74.0898 316.511 77.1426 315.675 80.0167C315.745 81.7828 316.432 83.4675 317.614 84.7746C319.095 86.4202 322.507 86.4127 324.476 85.415C326.445 84.4172 327.223 81.9377 327.578 79.7263C327.859 77.9691 328.007 76.1002 327.252 74.5142C326.744 73.5041 326.006 72.629 325.098 71.9602Z" fill="#FF8556"/>
<path d="M324.343 77.433C324.649 78.3987 325.154 79.289 325.823 80.0465C325.876 80.0767 325.919 80.1204 325.949 80.1731C325.993 80.2848 325.905 80.4039 325.823 80.4858C325.468 80.8337 325.07 81.134 324.639 81.3793" stroke="#06112D" stroke-width="0.5" stroke-miterlimit="10"/>
<path d="M326.823 76.5544C326.356 76.4441 325.867 76.4791 325.42 76.6546C324.973 76.8301 324.59 77.1379 324.321 77.5372" stroke="#06112D" stroke-width="0.5" stroke-miterlimit="10"/>
<path d="M320.279 77.3287C320.431 77.1565 320.622 77.0233 320.836 76.9404C321.05 76.8575 321.28 76.8273 321.508 76.8522C321.962 76.9087 322.404 77.0369 322.818 77.2319" stroke="#06112D" stroke-width="0.5" stroke-miterlimit="10"/>
<path d="M322.662 82.1462C323.01 82.4296 323.432 82.6062 323.877 82.6551C324.321 82.704 324.771 82.6229 325.171 82.4217" stroke="#06112D" stroke-width="0.5" stroke-miterlimit="10"/>
<path d="M321.359 78.1776C321.362 78.1129 321.379 78.0496 321.408 77.9921C321.438 77.9346 321.479 77.8842 321.53 77.8445C321.581 77.8047 321.639 77.7765 321.702 77.7619C321.765 77.7472 321.83 77.7464 321.893 77.7595C321.956 77.7726 322.015 77.7993 322.067 77.8378C322.119 77.8763 322.161 77.9256 322.192 77.9823C322.223 78.0391 322.242 78.1019 322.246 78.1665C322.25 78.231 322.241 78.2958 322.218 78.3563C322.209 78.4172 322.188 78.4758 322.156 78.5284C322.124 78.5811 322.082 78.6268 322.033 78.6629C321.983 78.699 321.927 78.7247 321.867 78.7386C321.807 78.7524 321.745 78.754 321.685 78.7434C321.626 78.7288 321.571 78.7023 321.522 78.6657C321.474 78.629 321.433 78.5829 321.403 78.5301C321.372 78.4773 321.353 78.4188 321.345 78.3583C321.338 78.2977 321.342 78.2362 321.359 78.1776Z" fill="#06112D"/>
<path d="M325.734 77.5893C325.76 77.5069 325.81 77.434 325.877 77.3795C325.944 77.325 326.025 77.2912 326.111 77.2823C326.196 77.2734 326.283 77.2896 326.359 77.3292C326.436 77.3687 326.499 77.4298 326.542 77.505C326.585 77.5802 326.605 77.6663 326.6 77.7527C326.595 77.8392 326.565 77.9223 326.514 77.992C326.463 78.0616 326.393 78.1149 326.312 78.1452C326.231 78.1755 326.144 78.1815 326.06 78.1626C326 78.1471 325.945 78.1199 325.896 78.0825C325.848 78.0451 325.807 77.9983 325.777 77.9449C325.746 77.8915 325.727 77.8325 325.72 77.7715C325.712 77.7104 325.717 77.6485 325.734 77.5893Z" fill="#06112D"/>
<g style="mix-blend-mode:multiply" opacity="0.5">
<path d="M304.779 101.215C303.787 107.224 308.48 118.378 312.921 122.473C317.133 126.375 327.726 131.654 333.366 129.696C333.033 126.621 332.219 125.66 332.545 123.545C325.757 122.689 321.019 116.189 316.171 111.945C313.687 109.756 311.439 107.31 309.464 104.648C308.332 103.159 306.326 100.076 304.283 100.791C304.527 100.754 304.912 100.552 305.163 100.612" fill="#5FBB72"/>
</g>
<path d="M343.848 114.402L336.023 136.39L365.84 139.137L373.59 118.155C373.756 117.704 373.82 117.223 373.778 116.745C373.737 116.266 373.59 115.804 373.348 115.389C373.106 114.975 372.776 114.621 372.382 114.351C371.987 114.081 371.538 113.902 371.066 113.829L350.169 110.612C348.842 110.408 347.486 110.675 346.333 111.366C345.179 112.058 344.301 113.131 343.848 114.402Z" fill="#06112D"/>
<g style="mix-blend-mode:multiply" opacity="0.2">
<path d="M364.019 137.536C363.227 136.896 362.39 136.323 361.665 135.608C361.313 135.273 361.02 134.88 360.799 134.446C360.584 134.014 360.421 133.56 360.251 133.113C359.983 132.24 359.496 131.45 358.837 130.82C358.166 130.294 357.383 129.93 356.55 129.755C356.099 129.651 355.647 129.606 355.188 129.539C354.729 129.472 354.085 129.353 353.53 129.279C352.422 129.184 351.325 128.993 350.251 128.705C349.48 128.434 348.781 127.988 348.208 127.402C347.657 126.874 347.283 126.187 347.134 125.437C347.073 125.013 347.055 124.584 347.082 124.156C347.141 123.637 347.291 123.132 347.527 122.667C347.63 122.421 347.719 122.183 347.845 121.922L348.163 121.364C348.407 120.947 348.659 120.53 348.903 120.12C349.423 119.327 349.986 118.564 350.591 117.834C351.791 116.379 353.195 115.107 354.759 114.059C356.145 113.14 357.67 112.451 359.274 112.019L350.132 110.612C348.805 110.408 347.449 110.675 346.296 111.366C345.142 112.058 344.264 113.131 343.811 114.402L336.023 136.39L365.233 139.078C364.936 138.487 364.523 137.962 364.019 137.536Z" fill="#06112D"/>
</g>
<path d="M319.604 132.743L319.409 134.759L336.723 136.452L336.917 134.436L319.604 132.743Z" fill="#06112D"/>
<path d="M360.051 119.309C360.051 119.309 358.179 119.718 357.572 120.798C356.965 121.878 357.631 123.538 358.312 123.389C358.667 123.294 358.996 123.117 359.272 122.873C359.548 122.629 359.764 122.324 359.903 121.982C360.115 121.095 360.17 120.178 360.066 119.271" fill="#5FBB72"/>
<path d="M363.398 124C362.759 123.325 361.893 122.916 360.97 122.853C359.623 122.853 358.231 124.037 358.616 124.446C358.887 124.681 359.205 124.852 359.55 124.949C359.894 125.045 360.255 125.064 360.607 125.005C361.575 124.789 362.513 124.451 363.398 124Z" fill="#5FBB72"/>
<path d="M354.359 121.572C354.422 122.399 354.773 123.177 355.351 123.769C356.217 124.454 357.661 124.253 357.572 123.717C357.524 123.41 357.409 123.118 357.237 122.86C357.064 122.603 356.837 122.387 356.573 122.227C355.869 121.9 355.121 121.681 354.352 121.58" fill="#5FBB72"/>
<path d="M365.137 114.826C366.684 115.05 368.217 115.303 369.749 115.571C370.174 115.607 370.573 115.788 370.882 116.085C371.001 116.257 371.082 116.453 371.12 116.66C371.158 116.867 371.153 117.079 371.104 117.283C370.986 117.939 370.792 118.579 370.526 119.19L367.861 125.958" stroke="#232743" stroke-miterlimit="10"/>
<path d="M347.949 108.311C349.615 102.555 364.234 111.974 359.312 112.034C354.389 112.094 350.718 111.356 347.949 108.311Z" fill="#FF8556"/>
<path d="M307.362 97.0976C306.425 97.2019 305.533 97.5547 304.776 98.1198C304.019 98.685 303.425 99.4423 303.054 100.314C302.596 101.833 302.653 103.463 303.217 104.946C306.178 115.035 316.119 123.411 328.955 126.688C330.615 127.184 332.35 127.375 334.077 127.253C337.364 126.889 339.962 124.796 342.131 122.786C345.864 119.32 349.342 115.588 352.539 111.617C352.733 111.421 352.873 111.177 352.946 110.91C353.012 110.485 352.665 110.113 352.331 109.793C351.137 108.654 349.876 107.587 348.556 106.599C345.689 109.351 342.409 111.633 338.837 113.359C337.472 114.117 335.953 114.552 334.396 114.633C332.219 114.633 330.532 113.426 329.125 112.242C323.98 107.931 319.754 102.943 313.898 99.1898C312.588 98.2765 311.119 97.6175 309.568 97.2465C307.917 96.9114 305.948 97.0678 307.347 97.1124" fill="#9ED5AB"/>
<path d="M310.818 97.3135C316.489 99.0186 319.842 104.238 323.691 108.43C324.957 109.808 327.97 113.188 332.026 114.164" stroke="#06112D" stroke-width="0.5" stroke-miterlimit="10"/>
<path d="M316.607 79.488C317.058 80.6198 316.866 81.7664 316.185 82.0345C315.504 82.3026 314.586 81.6101 314.134 80.4783C313.683 79.3465 313.875 78.1999 314.556 77.9244C315.237 77.6489 316.155 78.3488 316.607 79.488Z" fill="#FF8556"/>
<path d="M373.983 286.298C371.822 282.299 368.698 278.241 366.292 274.384C362.532 268.39 343.841 234.884 361.658 235.472C371.548 235.8 374.642 248.711 376.581 256.149C379.018 266.003 380.243 276.121 380.231 286.275L373.983 286.298Z" fill="#5FBB72"/>
<path d="M363.435 242.479C363.435 242.479 372.924 263.767 375.101 272.054C377.277 280.341 378.454 286.298 378.454 286.298H376.085L363.435 242.479Z" fill="#9ED5AB"/>
<path d="M371.718 242.479L367.891 252.814" stroke="#9ED5AB" stroke-width="0.25" stroke-miterlimit="10"/>
<path d="M354.722 248.234L367.158 252.814" stroke="#9ED5AB" stroke-width="0.25" stroke-miterlimit="10"/>
<path d="M365.596 236.403L365.055 247.758" stroke="#9ED5AB" stroke-width="0.25" stroke-miterlimit="10"/>
<path d="M355.396 239.322L365.596 248.234" stroke="#9ED5AB" stroke-width="0.25" stroke-miterlimit="10"/>
<path d="M375.448 251.935L371.717 264.392" stroke="#9ED5AB" stroke-width="0.25" stroke-miterlimit="10"/>
<path d="M358.297 258.882L371.718 264.392" stroke="#9ED5AB" stroke-width="0.25" stroke-miterlimit="10"/>
<path d="M378.683 266.373L375.449 274.615" stroke="#9ED5AB" stroke-width="0.25" stroke-miterlimit="10"/>
<path d="M366.292 274.407L375.448 277.817" stroke="#9ED5AB" stroke-width="0.25" stroke-miterlimit="10"/>
<path d="M360.554 263.848L373.02 270.49" stroke="#9ED5AB" stroke-width="0.25" stroke-miterlimit="10"/>
<g style="mix-blend-mode:multiply" opacity="0.5">
<path d="M369.808 239.947C365.056 247.758 374.405 280.088 374.405 280.088H380.053C380.053 280.088 376.167 253.521 374.568 249.038C373.811 246.762 372.858 244.557 371.718 242.449C371.718 242.449 370.26 239.195 369.808 239.947Z" fill="#5FBB72"/>
</g>
<path d="M386.611 285.628C388.832 283.64 391.63 281.823 393.947 279.984C397.574 277.117 416.421 260.624 405.384 257.147C399.262 255.241 394.51 262.486 391.682 266.626C388.019 272.131 385.036 278.064 382.799 284.295L386.611 285.628Z" fill="#5FBB72"/>
<path d="M402.756 261.049C402.756 261.049 392.237 272.054 389.076 276.685C385.916 281.316 383.895 284.697 383.895 284.697L385.375 285.203L402.756 261.049Z" fill="#9ED5AB"/>
<path d="M397.678 259.284L397.745 266.425" stroke="#9ED5AB" stroke-width="0.25" stroke-miterlimit="10"/>
<path d="M406.813 266.425L398.196 266.574" stroke="#9ED5AB" stroke-width="0.25" stroke-miterlimit="10"/>
<path d="M402.779 256.864L400.595 263.938" stroke="#9ED5AB" stroke-width="0.25" stroke-miterlimit="10"/>
<path d="M408.374 260.825L400.158 264.109" stroke="#9ED5AB" stroke-width="0.25" stroke-miterlimit="10"/>
<path d="M393.31 264.273L392.836 272.694" stroke="#9ED5AB" stroke-width="0.25" stroke-miterlimit="10"/>
<path d="M402.274 272.188L392.836 272.694" stroke="#9ED5AB" stroke-width="0.25" stroke-miterlimit="10"/>
<path d="M388.136 272.426L388.298 278.159" stroke="#9ED5AB" stroke-width="0.25" stroke-miterlimit="10"/>
<path d="M393.947 279.984L387.588 280.118" stroke="#9ED5AB" stroke-width="0.25" stroke-miterlimit="10"/>
<path d="M399.802 274.742L390.69 276.156" stroke="#9ED5AB" stroke-width="0.25" stroke-miterlimit="10"/>
<path d="M374.738 283.118C374.316 277.028 372.798 270.393 372.006 264.392C370.77 255.01 366.602 203.715 387.396 213.134C398.936 218.347 395.679 236.135 393.984 246.432C391.763 259.984 387.418 273.446 382.14 286.164L374.738 283.118Z" fill="#5FBB72"/>
<path d="M385.752 222.799C385.752 222.799 385.575 254.221 383.702 265.717C381.829 277.214 380.001 285.3 380.001 285.3L377.188 284.138L385.752 222.799Z" fill="#9ED5AB"/>
<path d="M395.568 226.835L385.486 237.974" stroke="#9ED5AB" stroke-width="0.25" stroke-miterlimit="10"/>
<path d="M372.339 225.8L384.62 237.616" stroke="#9ED5AB" stroke-width="0.25" stroke-miterlimit="10"/>
<path d="M391.571 216.195L384.835 230.238" stroke="#9ED5AB" stroke-width="0.25" stroke-miterlimit="10"/>
<path d="M377.921 214.899L385.227 231.094" stroke="#9ED5AB" stroke-width="0.25" stroke-miterlimit="10"/>
<path d="M394.909 240.558L383.813 254.422" stroke="#9ED5AB" stroke-width="0.25" stroke-miterlimit="10"/>
<path d="M370.866 240.952L383.813 254.422" stroke="#9ED5AB" stroke-width="0.25" stroke-miterlimit="10"/>
<path d="M391 260.312L382.747 269.113" stroke="#9ED5AB" stroke-width="0.25" stroke-miterlimit="10"/>
<path d="M372.006 264.392L381.029 273.141" stroke="#9ED5AB" stroke-width="0.25" stroke-miterlimit="10"/>
<path d="M370.874 248.301L382.081 262.746" stroke="#9ED5AB" stroke-width="0.25" stroke-miterlimit="10"/>
<g style="mix-blend-mode:multiply" opacity="0.5">
<path d="M113.317 77.8351C116.566 80.8134 119.401 81.7665 123.376 82.5558C124.894 82.8611 128.817 83.7769 129.357 81.8112C129.742 80.4263 126.737 77.0086 126.019 75.8545C123.798 72.2805 119.268 69.1532 115.426 67.6044C114.162 67.0553 112.834 66.6676 111.473 66.4503C108.52 65.9028 105.519 65.6534 102.517 65.7057C102.517 65.7057 111.288 75.9438 113.317 77.8351Z" fill="#5FBB72"/>
</g>
<path d="M97.6382 43.1148C97.6382 43.1148 131.689 38.9005 131.504 75.1843C131.504 75.1992 109.067 90.9771 97.6382 43.1148Z" fill="#9ED5AB"/>
<g style="mix-blend-mode:multiply" opacity="0.5">
<path d="M112.665 113.114C116.588 117.656 119.734 118.877 124.072 119.741C125.73 120.068 130.031 121.155 130.298 117.939C130.483 115.653 126.752 110.418 125.812 108.631C122.929 103.375 118.567 99.0931 113.272 96.3232C110.955 95.1988 111.229 95.4371 108.897 94.834C107.232 94.4319 104.286 94.1564 99.2743 94.5659C99.2891 94.5957 110.171 110.232 112.665 113.114Z" fill="#5FBB72"/>
</g>
<path d="M100.969 89.4208C100.969 89.4208 128.854 83.1291 131.637 113.248C131.637 113.21 114.33 128.139 100.969 89.4208Z" fill="#5FBB72"/>
<path d="M108.401 93.4938L130.305 114.134L131.637 113.21L108.401 93.4938Z" fill="#9ED5AB"/>
<g style="mix-blend-mode:multiply" opacity="0.5">
<path d="M105.825 48.2153L131.504 75.1843L131.637 72.4293L105.825 48.2153Z" fill="#5FBB72"/>
</g>
<path d="M131.504 50.397L138.137 17.017L132.585 50.397H131.504Z" fill="#5FBB72"/>
<path d="M136.249 124.759L180.278 102.459L136.878 126.702L136.249 124.759Z" fill="#5FBB72"/>
<g style="mix-blend-mode:multiply" opacity="0.4">
<path d="M145.095 105.4C139.092 111.684 142.178 119.755 142.178 120.344V121.58" stroke="#9ED5AB" stroke-width="0.5" stroke-miterlimit="10"/>
</g>
<path d="M142.704 123.523C145.465 123.702 148.3 124.625 151.128 124.767C154.002 124.855 156.879 124.735 159.737 124.409" stroke="#9ED5AB" stroke-width="0.5" stroke-miterlimit="10"/>
<g style="mix-blend-mode:multiply" opacity="0.4">
<path d="M153.851 101.26C148.499 107.79 151.216 115.474 151.216 117.045" stroke="#9ED5AB" stroke-width="0.5" stroke-miterlimit="10"/>
</g>
<g style="mix-blend-mode:multiply" opacity="0.4">
<path d="M142.962 123.873C144.509 123.791 146.064 124.953 147.404 125.526C149.156 126.205 150.987 126.66 152.852 126.881C154.443 127.09 156.072 127.522 157.678 127.626C158.951 127.678 161.128 128.102 162.245 127.626" stroke="#9ED5AB" stroke-width="0.5" stroke-miterlimit="10"/>
</g>
<g style="mix-blend-mode:multiply" opacity="0.4">
<path d="M159.211 114.253C162.438 115.489 165.651 117.045 169.197 117.343C171.754 117.623 174.338 117.503 176.858 116.986" stroke="#9ED5AB" stroke-width="0.5" stroke-miterlimit="10"/>
</g>
<path d="M134.82 67.9395L156.169 51.9308L136.249 68.8851L134.82 67.9395Z" fill="#9ED5AB"/>
<path d="M157.923 136.479L149.18 169.784H124.42L114.575 136.531L157.923 136.479Z" fill="#0096AE"/>
<g style="mix-blend-mode:multiply" opacity="0.2">
<path d="M128.676 136.479C128.533 139.316 128.627 142.161 128.957 144.982C129.609 150.239 131.644 155.861 135.989 159.278C138.055 160.925 140.517 161.991 143.125 162.368C145.42 162.763 148.61 162.882 150.602 164.349L149.18 169.784H124.42L114.575 136.531L128.676 136.479Z" fill="#00268A"/>
</g>
<path d="M206.726 170.015H117.831V276.692H206.726V170.015Z" fill="white"/>
<path d="M127.048 169.933H94.8032V276.693H127.048V169.933Z" fill="#93E7FF"/>
<path d="M184.342 205.711C185.542 203.395 187.303 201.035 188.614 198.816C190.701 195.339 201.087 175.905 191.19 176.247C185.69 176.441 183.972 183.932 182.899 188.235C181.541 193.96 180.86 199.826 180.871 205.711H184.342Z" fill="#5FBB72"/>
<path d="M190.197 180.298C190.197 180.298 184.926 192.643 183.72 197.424C182.513 202.204 181.854 205.688 181.854 205.688H183.172L190.197 180.298Z" fill="#9ED5AB"/>
<path d="M185.593 180.298L187.725 186.292" stroke="#9ED5AB" stroke-width="0.25" stroke-miterlimit="10"/>
<path d="M195.038 183.634L188.132 186.292" stroke="#9ED5AB" stroke-width="0.25" stroke-miterlimit="10"/>
<path d="M188.998 176.776L189.302 183.366" stroke="#9ED5AB" stroke-width="0.25" stroke-miterlimit="10"/>
<path d="M194.668 178.466L188.998 183.634" stroke="#9ED5AB" stroke-width="0.25" stroke-miterlimit="10"/>
<path d="M183.521 185.786L185.593 193.008" stroke="#9ED5AB" stroke-width="0.25" stroke-miterlimit="10"/>
<path d="M193.055 189.814L185.593 193.008" stroke="#9ED5AB" stroke-width="0.25" stroke-miterlimit="10"/>
<path d="M181.729 194.155L183.521 198.935" stroke="#9ED5AB" stroke-width="0.25" stroke-miterlimit="10"/>
<path d="M188.613 198.816L183.521 200.789" stroke="#9ED5AB" stroke-width="0.25" stroke-miterlimit="10"/>
<path d="M191.804 192.688L184.875 196.545" stroke="#9ED5AB" stroke-width="0.25" stroke-miterlimit="10"/>
<path d="M152.571 222.792C150.809 219.381 148.262 215.927 146.301 212.673C143.244 207.565 128.01 179.069 142.526 179.568C150.587 179.844 153.111 190.834 154.688 197.155C156.671 205.554 157.665 214.159 157.649 222.792H152.571Z" fill="#5FBB72"/>
<path d="M143.977 185.51C143.977 185.51 151.712 203.618 153.481 210.662C155.251 217.706 156.22 222.792 156.22 222.792H154.288L143.977 185.51Z" fill="#9ED5AB"/>
<path d="M150.728 185.51L147.604 194.296" stroke="#9ED5AB" stroke-width="0.25" stroke-miterlimit="10"/>
<path d="M136.878 190.402L147.012 194.296" stroke="#9ED5AB" stroke-width="0.25" stroke-miterlimit="10"/>
<path d="M145.739 180.343L145.295 190.007" stroke="#9ED5AB" stroke-width="0.25" stroke-miterlimit="10"/>
<path d="M137.426 182.822L145.739 190.402" stroke="#9ED5AB" stroke-width="0.25" stroke-miterlimit="10"/>
<path d="M153.771 193.552L150.728 204.147" stroke="#9ED5AB" stroke-width="0.25" stroke-miterlimit="10"/>
<path d="M139.787 199.464L150.728 204.147" stroke="#9ED5AB" stroke-width="0.25" stroke-miterlimit="10"/>
<path d="M156.406 205.837L153.771 212.844" stroke="#9ED5AB" stroke-width="0.25" stroke-miterlimit="10"/>
<path d="M146.301 212.673L153.77 215.569" stroke="#9ED5AB" stroke-width="0.25" stroke-miterlimit="10"/>
<path d="M141.631 203.686L151.794 209.344" stroke="#9ED5AB" stroke-width="0.25" stroke-miterlimit="10"/>
<path d="M148.507 271.451C147.626 269.745 146.353 268.018 145.368 266.38C143.836 263.826 136.212 249.567 143.481 249.82C147.515 249.954 148.781 255.457 149.565 258.621C150.561 262.824 151.058 267.13 151.046 271.451H148.507Z" fill="#5FBB72"/>
<path d="M144.206 252.791C144.206 252.791 148.078 261.853 148.966 265.382C149.854 268.911 150.336 271.451 150.336 271.451H149.366L144.206 252.791Z" fill="#9ED5AB"/>
<path d="M147.582 252.791L146.02 257.192" stroke="#9ED5AB" stroke-width="0.25" stroke-miterlimit="10"/>
<path d="M140.653 255.241L145.724 257.192" stroke="#9ED5AB" stroke-width="0.25" stroke-miterlimit="10"/>
<path d="M145.087 250.2L144.865 255.04" stroke="#9ED5AB" stroke-width="0.25" stroke-miterlimit="10"/>
<path d="M140.927 251.443L145.088 255.241" stroke="#9ED5AB" stroke-width="0.25" stroke-miterlimit="10"/>
<path d="M149.107 256.819L147.582 262.121" stroke="#9ED5AB" stroke-width="0.25" stroke-miterlimit="10"/>
<path d="M142.112 259.775L147.582 262.121" stroke="#9ED5AB" stroke-width="0.25" stroke-miterlimit="10"/>
<path d="M150.424 262.962L149.107 266.469" stroke="#9ED5AB" stroke-width="0.25" stroke-miterlimit="10"/>
<path d="M145.369 266.38L149.107 267.832" stroke="#9ED5AB" stroke-width="0.25" stroke-miterlimit="10"/>
<path d="M143.03 261.89L148.115 264.719" stroke="#9ED5AB" stroke-width="0.25" stroke-miterlimit="10"/>
<path d="M198.317 244.452C197.621 243.112 196.622 241.756 195.86 240.483C194.653 238.48 188.679 227.296 194.379 227.49C197.54 227.602 198.525 231.913 199.146 234.392C199.925 237.688 200.315 241.064 200.308 244.452H198.317Z" fill="#5FBB72"/>
<path d="M194.935 229.828C194.935 229.828 197.97 236.931 198.636 239.694C199.302 242.456 199.709 244.452 199.709 244.452H198.969L194.935 229.828Z" fill="#9ED5AB"/>
<path d="M197.593 229.828L196.371 233.275" stroke="#9ED5AB" stroke-width="0.25" stroke-miterlimit="10"/>
<path d="M192.159 231.749L196.134 233.276" stroke="#9ED5AB" stroke-width="0.25" stroke-miterlimit="10"/>
<path d="M195.638 227.795L195.461 231.585" stroke="#9ED5AB" stroke-width="0.25" stroke-miterlimit="10"/>
<path d="M192.373 228.771L195.638 231.749" stroke="#9ED5AB" stroke-width="0.25" stroke-miterlimit="10"/>
<path d="M198.784 232.978L197.593 237.14" stroke="#9ED5AB" stroke-width="0.25" stroke-miterlimit="10"/>
<path d="M193.299 235.301L197.593 237.14" stroke="#9ED5AB" stroke-width="0.25" stroke-miterlimit="10"/>
<path d="M199.82 237.795L198.784 240.55" stroke="#9ED5AB" stroke-width="0.25" stroke-miterlimit="10"/>
<path d="M195.86 240.483L198.784 241.615" stroke="#9ED5AB" stroke-width="0.25" stroke-miterlimit="10"/>
<path d="M194.024 236.954L198.007 239.173" stroke="#9ED5AB" stroke-width="0.25" stroke-miterlimit="10"/>
<path d="M116.566 216.917C115.87 215.577 114.871 214.229 114.101 212.948C112.902 210.945 106.928 199.769 112.621 199.963C115.789 200.074 116.773 204.378 117.395 206.857C118.174 210.153 118.564 213.529 118.557 216.917H116.566Z" fill="#9ED5AB"/>
<path d="M113.191 202.293C113.191 202.293 116.226 209.397 116.892 212.159C117.558 214.921 117.965 216.917 117.965 216.917H117.225L113.191 202.293Z" fill="#5FBB72"/>
<path d="M114.694 205.77L114.538 205.711L115.76 202.263L115.915 202.323L114.694 205.77Z" fill="#5FBB72"/>
<path d="M114.353 205.822L110.378 204.296L110.437 204.132L114.412 205.659L114.353 205.822Z" fill="#5FBB72"/>
<path d="M113.791 204.058L113.628 204.05L113.798 200.26L113.968 200.268L113.791 204.058Z" fill="#5FBB72"/>
<path d="M113.827 204.274L110.563 201.303L110.674 201.176L113.938 204.147L113.827 204.274Z" fill="#5FBB72"/>
<path d="M116.954 205.412L115.757 209.567L115.914 209.612L117.11 205.457L116.954 205.412Z" fill="#5FBB72"/>
<path d="M115.811 209.68L111.518 207.84L111.584 207.691L115.87 209.523L115.811 209.68Z" fill="#5FBB72"/>
<path d="M117.106 213.045L116.958 212.985L117.987 210.238L118.142 210.297L117.106 213.045Z" fill="#5FBB72"/>
<path d="M117.003 214.162L114.079 213.03L114.131 212.866L117.062 214.006L117.003 214.162Z" fill="#5FBB72"/>
<path d="M116.218 211.712L112.228 209.493L112.31 209.344L116.292 211.563L116.218 211.712Z" fill="#5FBB72"/>
<path d="M110.326 256.589C111.281 254.75 112.658 252.866 113.716 251.116C115.374 248.354 123.613 232.933 115.759 233.209C111.399 233.358 110.03 239.299 109.179 242.724C108.105 247.266 107.571 251.92 107.587 256.589H110.326Z" fill="#9ED5AB"/>
<path d="M114.989 236.425C114.989 236.425 110.807 246.216 109.845 250.029C108.882 253.841 108.364 256.589 108.364 256.589H109.415L114.989 236.425Z" fill="#5FBB72"/>
<path d="M112.901 241.213L113.116 241.138L111.428 236.38L111.214 236.462L112.901 241.213Z" fill="#5FBB72"/>
<path d="M113.376 241.287L118.854 239.18L118.78 238.964L113.294 241.064L113.376 241.287Z" fill="#5FBB72"/>
<path d="M114.145 238.86L114.375 238.845L114.138 233.618L113.908 233.625L114.145 238.86Z" fill="#5FBB72"/>
<path d="M114.101 239.158L118.602 235.055L118.446 234.876L113.945 238.979L114.101 239.158Z" fill="#5FBB72"/>
<path d="M111.214 246.537L111.429 246.47L109.786 240.736L109.571 240.803L111.214 246.537Z" fill="#5FBB72"/>
<path d="M111.362 246.611L117.284 244.079L117.195 243.864L111.281 246.403L111.362 246.611Z" fill="#5FBB72"/>
<path d="M109.571 251.257L109.786 251.168L108.357 247.378L108.15 247.46L109.571 251.257Z" fill="#5FBB72"/>
<path d="M109.72 252.791L113.754 251.228L113.672 251.004L109.638 252.575L109.72 252.791Z" fill="#5FBB72"/>
<path d="M110.799 249.418L116.299 246.358L116.188 246.149L110.696 249.217L110.799 249.418Z" fill="#5FBB72"/>
<path d="M171.839 265.069C173.098 262.642 174.911 260.185 176.281 257.854C178.501 254.221 189.324 233.916 178.975 234.266C173.231 234.467 171.432 242.292 170.307 246.797C168.896 252.784 168.193 258.917 168.212 265.069H171.839Z" fill="#5FBB72"/>
<path d="M177.961 238.532C177.961 238.532 172.454 251.436 171.188 256.462C169.922 261.488 169.241 265.099 169.241 265.099H170.618L177.961 238.532Z" fill="#9ED5AB"/>
<path d="M173.157 238.532L175.378 244.794" stroke="#9ED5AB" stroke-width="0.25" stroke-miterlimit="10"/>
<path d="M183.024 242.024L175.807 244.794" stroke="#9ED5AB" stroke-width="0.25" stroke-miterlimit="10"/>
<path d="M176.71 234.847L177.021 241.734" stroke="#9ED5AB" stroke-width="0.25" stroke-miterlimit="10"/>
<path d="M182.632 236.619L176.71 242.024" stroke="#9ED5AB" stroke-width="0.25" stroke-miterlimit="10"/>
<path d="M170.988 244.266L173.157 251.816" stroke="#9ED5AB" stroke-width="0.25" stroke-miterlimit="10"/>
<path d="M180.952 248.48L173.157 251.816" stroke="#9ED5AB" stroke-width="0.25" stroke-miterlimit="10"/>
<path d="M169.108 253.015L170.988 258.011" stroke="#9ED5AB" stroke-width="0.25" stroke-miterlimit="10"/>
<path d="M176.303 257.884L170.988 259.954" stroke="#9ED5AB" stroke-width="0.25" stroke-miterlimit="10"/>
<path d="M179.642 251.481L172.395 255.516" stroke="#9ED5AB" stroke-width="0.25" stroke-miterlimit="10"/>
<path d="M104.989 195.078C103.02 190.551 101.236 186.999 100.414 182.897C100.172 181.663 100.212 180.389 100.533 179.174C101.021 177.685 102.368 178.243 103.072 179.315C104.13 180.946 105.144 188.824 105.389 190.484C105.559 191.556 105.825 193.909 105.877 195.004L104.989 195.078Z" fill="#9ED5AB"/>
<path d="M101.584 179.471L104.989 195.063L105.877 194.989L101.584 179.471Z" fill="#5FBB72"/>
<path d="M100.244 181.81L102.457 182.629V183.462L100.244 181.81Z" fill="#5FBB72"/>
<path d="M104.026 182.636L102.901 185.48L103.249 186.433L104.026 182.636Z" fill="#5FBB72"/>
<path d="M101.673 187.267L104.026 188.742L104.256 190.022L101.673 187.267Z" fill="#5FBB72"/>
<path d="M189.302 222.829C193.366 217.557 197.037 213.425 198.717 208.637C198.96 207.94 199.063 207.202 199.021 206.464C198.979 205.727 198.793 205.006 198.473 204.341C197.466 202.561 194.705 203.246 193.292 204.505C191.108 206.403 189.02 215.584 188.51 217.483C188.064 219.214 187.73 220.972 187.51 222.747L189.302 222.829Z" fill="#9ED5AB"/>
<path d="M196.312 204.661L189.302 222.829L187.481 222.747L196.312 204.661Z" fill="#5FBB72"/>
<path d="M199.073 207.386L194.513 208.339V209.322L199.073 207.386Z" fill="#5FBB72"/>
<path d="M191.285 208.354L193.609 211.66L192.884 212.777L191.285 208.354Z" fill="#5FBB72"/>
<path d="M196.134 213.745L191.286 215.465L190.819 216.962L196.134 213.745Z" fill="#5FBB72"/>
<path d="M185.526 144.952C185.644 146.211 189.331 146.896 193.765 146.442C198.199 145.987 201.685 144.647 201.567 143.389C201.448 142.13 197.762 141.453 193.328 141.9C188.894 142.346 185.408 143.701 185.526 144.952Z" fill="#9ED5AB"/>
<path d="M262.052 281.026C263.148 279.016 262.792 277.608 262.393 275.613C264.383 275.285 266.313 274.655 268.115 273.744L270.483 276.633C270.655 276.861 270.795 277.111 270.898 277.378C270.995 277.685 271.023 278.01 270.98 278.33C270.936 278.649 270.822 278.955 270.646 279.224C270.288 279.891 269.796 280.477 269.203 280.944L268.588 281.458C268.056 281.796 267.581 282.219 267.182 282.709C266.894 282.983 266.624 283.277 266.375 283.587C265.031 285.062 263.568 286.422 262 287.653C260.957 288.472 259.55 289.276 258.529 288.725C258.092 288.524 260.253 284.34 262.052 281.026Z" fill="#06112D"/>
<path d="M248.232 153.612C254.036 161.452 256.612 171.445 257.219 181.549C259.003 211.228 257.515 218.22 259.365 227.713C262.926 246.038 267.819 259.612 270.165 274.623C265.035 276.76 267.019 276.201 260.076 278.695C252.37 251.622 246.848 243.7 241.57 225.159C236.144 206.105 234.471 179.68 236.018 159.308C235.997 158.65 236.204 158.005 236.603 157.484C237.004 157.127 237.492 156.883 238.017 156.776C241.718 155.719 245.353 154.662 248.232 153.627" fill="#00268A"/>
<path d="M251.407 226.224C251.356 227.484 250.961 228.704 250.267 229.754C249.868 230.339 249.349 230.833 248.745 231.201C248.141 231.57 247.467 231.805 246.766 231.891C246.224 231.93 245.682 231.826 245.192 231.59C244.703 231.354 244.283 230.993 243.975 230.543C243.458 229.676 243.13 228.709 243.013 227.706" stroke="#06112D" stroke-width="0.5" stroke-miterlimit="10"/>
<path d="M253.102 181.534C253.305 188.364 253.502 195.187 253.694 202.003C253.991 212.427 254.294 222.955 256.308 233.052C257.729 240.2 260.009 247.073 262.229 253.901C264.413 260.535 265.931 268.792 268.151 275.449" stroke="#06112D" stroke-width="0.5" stroke-miterlimit="10"/>
<path d="M239.689 190.611C243.043 187.833 248.217 185.897 251.074 182.621C253.687 179.643 255.789 177.886 257.566 174.371C256.219 167.551 252.244 159.018 248.224 153.582C245.345 154.617 241.68 155.674 238.009 156.732C237.484 156.838 236.996 157.082 236.595 157.439C236.196 157.961 235.989 158.605 236.01 159.263C235.214 170.622 235.289 182.026 236.232 193.373C237.258 192.302 238.42 191.373 239.689 190.611Z" fill="#06112D"/>
<path d="M201.042 249.664C195.653 254.191 186.289 255.531 189.812 256.886C193.336 258.242 193.38 257.787 199.487 257.326C205.594 256.864 205.742 257.877 205.89 255.725C205.915 253.565 205.801 251.407 205.55 249.262C205.55 249.262 206.431 245.137 201.042 249.664Z" fill="#06112D"/>
<path d="M246.892 153.597L215.062 179.658C213.058 181.158 211.269 182.93 209.747 184.922C207.297 188.421 206.446 192.874 205.742 197.133C202.826 214.705 200.99 232.367 199.154 249.999L206.394 252.233C212.571 236.843 217.052 220.818 219.755 204.445C220.169 201.928 220.569 199.315 221.813 197.089C223.93 193.284 227.868 191.333 231.584 189.844C253.828 180.909 256.974 181.333 262.296 175.399C269.632 167.208 267.73 160.671 266.59 155.205C260.779 152.823 253.717 153.188 246.862 153.567" fill="#00268A"/>
<path d="M213.263 190.826C212.992 191.621 212.505 192.323 211.856 192.852C211.484 193.147 211.055 193.36 210.596 193.477C210.136 193.594 209.658 193.612 209.191 193.529C208.836 193.449 208.508 193.277 208.24 193.03C207.971 192.783 207.771 192.47 207.659 192.122C207.49 191.47 207.464 190.789 207.585 190.127" stroke="#06112D" stroke-width="0.5" stroke-miterlimit="10"/>
<path d="M249.357 97.6486C249.853 96.4126 251.023 95.7201 251.97 96.1147C252.918 96.5094 253.288 97.8273 252.792 99.0931C252.296 100.359 251.126 101.014 250.179 100.627C249.231 100.24 248.861 98.9144 249.357 97.6486Z" fill="#FFB299"/>
<path d="M231.258 156.307C233.257 156.307 235.004 157.476 237.18 157.38C239.356 157.283 241.436 157.134 243.561 157.015C248.069 156.762 253.325 156.791 257.44 154.781C265.464 150.82 265.583 141.14 264.754 132.533C262.533 133.94 260.468 138.363 258.432 140.448C254.109 144.915 248.632 147.893 243.465 150.872C241.015 152.264 238.505 154.766 236.129 155.779C234.767 156.367 232.265 156.047 231.495 156.613" fill="#06112D"/>
<path d="M235.226 122.994C235.389 126.293 235.226 128.646 236.64 131.803C237.736 134.351 239.122 136.762 240.77 138.988" stroke="#06112D" stroke-width="0.5" stroke-miterlimit="10"/>
<path d="M238.512 120.076C239.349 122.912 239.83 125.347 241.185 128.117" stroke="#06112D" stroke-width="0.5" stroke-miterlimit="10"/>
<path d="M231.998 143.068C236.514 142.093 241.436 142.905 245.278 139.703C248.113 137.335 249.305 133.448 249.957 129.934C250.454 127.29 250.702 124.605 250.697 121.915" stroke="#06112D" stroke-width="0.5" stroke-miterlimit="10"/>
<path d="M37.894 189.501C37.894 189.501 37.0427 199.561 37.0427 211.094C37.0427 222.628 35.9842 247.698 36.6208 258.108C37.2574 268.517 38.7453 278.211 38.7453 278.211L45.4074 279.284C45.4074 279.284 48.9013 236.552 50.589 222.27C52.2768 207.989 53.513 188.466 53.513 188.466L37.894 189.501Z" fill="#BB535D"/>
<path d="M60.1079 190.558C60.1079 190.558 61.4107 200.573 63.8535 211.831C66.2963 223.09 70.5822 247.825 73.4173 257.854C76.2524 267.884 79.7537 277.02 79.7537 277.02L85.1204 275.397C85.1204 275.397 80.8419 234.139 79.4725 219.828C78.103 205.517 75.1495 186.173 75.1495 186.173L60.1079 190.558Z" fill="#BB535D"/>
<path d="M44.4967 159.747C44.4967 159.747 32.4531 171.996 29.6402 192.785C26.8273 213.574 27.4195 237.058 27.4195 237.058C27.4195 237.058 53.7496 243.268 69.0503 240.304C84.351 237.341 92.6564 233.491 92.6564 233.491C92.6564 233.491 77.4076 182.859 75.7198 172.599C74.0321 162.338 69.6277 159.397 69.6277 159.397L44.4967 159.747Z" fill="#00268A"/>
<path d="M68.9768 187.297C66.2157 189.62 65.2756 193.418 64.2763 196.887C62.3451 203.778 59.0464 210.204 54.5792 215.778C50.0341 221.25 44.0012 225.591 37.1689 227.52" stroke="#06112D" stroke-width="0.5" stroke-miterlimit="10"/>
<path d="M76.453 200.082C72.7519 207.014 72.8925 215.644 68.7694 222.352C65.2755 228.041 58.7318 231.697 52.0697 232.308" stroke="#06112D" stroke-width="0.5" stroke-miterlimit="10"/>
<path d="M37.8937 281.354C40.6473 281.793 43.5787 282.202 46.1177 281.041C46.0659 278.42 46.3027 273.506 46.3916 270.885C43.2678 271.629 41.0841 271.361 37.7826 270.885L37.8937 281.354Z" fill="white"/>
<path d="M37.7826 280.542C37.7826 282.843 37.8567 285.136 38.0195 287.429C38.0126 287.734 38.0949 288.035 38.2564 288.293C38.6191 288.762 39.3297 288.665 39.9219 288.584C44.6964 287.928 49.545 291.718 54.1196 290.073C54.292 290.031 54.4539 289.954 54.5953 289.846C54.7367 289.739 54.8545 289.603 54.9413 289.447C55.1559 288.911 54.6896 288.368 54.2603 287.958L46.0659 280.512C44.8133 281.263 43.3823 281.659 41.9242 281.659C40.4662 281.659 39.0352 281.263 37.7826 280.512" fill="#06112D"/>
<path d="M78.6511 277.355C81.4122 277.035 84.3509 276.648 86.4902 274.846C85.75 272.337 84.6692 267.534 84.0548 264.988C81.2493 266.574 79.073 266.871 75.7642 267.296L78.6511 277.355Z" fill="white"/>
<path d="M78.3257 276.603C78.9327 278.837 79.6212 281.011 80.3836 283.178C80.4589 283.467 80.6188 283.726 80.8425 283.923C81.3163 284.28 81.9751 283.99 82.5155 283.751C86.9569 281.838 92.6567 284.183 96.5799 281.391C96.7351 281.304 96.8706 281.186 96.9777 281.044C97.0848 280.901 97.1611 280.738 97.2017 280.564C97.2684 279.991 96.6762 279.589 96.158 279.328L86.2907 274.369C85.2802 275.427 84.0059 276.192 82.6009 276.585C81.1959 276.978 79.7117 276.984 78.3035 276.603" fill="#06112D"/>
<path d="M56.7036 107.835C56.6443 111.677 56.2002 120.493 54.927 124.469C54.779 124.93 54.3866 125.265 54.4384 125.749C54.5323 126.274 54.7919 126.755 55.1787 127.119C55.9242 127.925 56.8359 128.558 57.8499 128.972C58.8639 129.386 59.9557 129.572 61.0487 129.517C63.225 129.39 66.2822 128.452 65.8751 126.293C65.5124 124.372 64.4982 123.24 64.3206 121.289C64.0578 118.625 64.0578 115.942 64.3206 113.277L56.7036 107.835Z" fill="#BB535D"/>
<path d="M53.3574 123.009C54.0606 122.942 54.7598 122.837 55.4523 122.697C55.6982 123.488 56.0546 124.24 56.5108 124.93C57.6582 126.293 59.3089 127.633 61.0781 127.641C62.8472 127.648 64.6608 126.822 65.0013 123.709C66.8248 123.696 68.5953 124.326 70.0053 125.489C71.3451 126.673 71.4858 128.676 71.7671 130.44C72.1742 132.875 73.0847 135.25 72.9514 137.715C72.8626 139.472 72.2112 141.155 71.8263 142.875C70.2496 149.576 72.0187 156.501 73.2623 163.254C73.3025 163.378 73.3147 163.509 73.2981 163.638C73.2814 163.766 73.2363 163.89 73.1661 163.999C73.0611 164.077 72.9406 164.131 72.8129 164.158C72.6852 164.185 72.5532 164.184 72.4259 164.155C70.3458 164.066 68.3028 164.609 66.2523 164.967C57.7322 166.456 48.9678 164.758 40.6994 162.212C43.6603 154.424 46.0513 146.203 45.6294 137.871C45.4073 133.515 42.2983 128.229 45.1926 124.126C45.8366 123.203 50.2854 122.957 53.3352 122.987" fill="#0096AE"/>
<path d="M44.1713 151.788C47.3469 152.852 49.5306 149.695 50.7002 145.972C51.8698 142.249 51.6699 139.621 50.7594 133.605C50.5447 132.205 49.8563 128.058 48.8348 127.082C48.4795 126.747 47.8947 126.464 47.569 126.822C47.4701 126.952 47.4064 127.106 47.3839 127.268C45.5852 135.116 46.0515 143.582 44.1713 151.788Z" fill="#06112D"/>
<path d="M68.754 141.401C66.5703 144.379 65.6006 148.102 63.639 151.192C62.3089 153.364 60.4487 155.158 58.2353 156.404C56.0004 157.642 53.41 158.068 50.8996 157.61" stroke="#06112D" stroke-width="0.5" stroke-miterlimit="10"/>
<path d="M68.3028 149.599C67.3775 151.713 67.0666 154.066 65.8526 156.054C64.2463 158.645 61.3446 160.067 58.5909 161.363" stroke="#06112D" stroke-width="0.5" stroke-miterlimit="10"/>
<path d="M61.1894 99.0633C60.0511 99.4925 59.0237 100.175 58.184 101.059C57.198 102.044 56.563 103.329 56.3779 104.715C56.3055 105.766 56.4157 106.822 56.7036 107.835C57.2809 110.195 58.184 112.585 59.9902 114.231C61.7964 115.876 64.6907 116.554 66.7486 115.243C68.8064 113.933 69.3912 111.133 69.5466 108.661C69.6725 106.703 69.6355 104.633 68.6288 102.943C67.7589 101.659 66.566 100.632 65.1719 99.9642C64.3712 99.4763 63.4792 99.1595 62.5514 99.0335C62.0963 99.0113 61.6402 99.0337 61.1894 99.1005" fill="#BB535D"/>
<path d="M65.7271 106.472C66.1644 107.496 66.807 108.419 67.6147 109.182C67.6771 109.209 67.7309 109.253 67.7702 109.309C67.8294 109.428 67.7702 109.562 67.6591 109.666C67.3079 110.086 66.9021 110.457 66.4525 110.768" stroke="#06112D" stroke-width="0.5" stroke-miterlimit="10"/>
<path d="M68.3545 105.266C67.8311 105.196 67.2991 105.287 66.8278 105.526C66.3564 105.765 65.9675 106.141 65.7118 106.606" stroke="#06112D" stroke-width="0.5" stroke-miterlimit="10"/>
<path d="M61.2561 106.814C61.4041 106.609 61.599 106.442 61.8244 106.328C62.0499 106.214 62.2992 106.156 62.5515 106.159C63.0562 106.173 63.5557 106.266 64.0319 106.435" stroke="#06112D" stroke-width="0.5" stroke-miterlimit="10"/>
<path d="M64.3866 111.848C64.7982 112.122 65.2794 112.271 65.7728 112.277C66.2662 112.284 66.7511 112.148 67.1699 111.885" stroke="#06112D" stroke-width="0.5" stroke-miterlimit="10"/>
<path d="M62.5293 107.656C62.5486 107.563 62.5945 107.477 62.6613 107.409C62.7282 107.342 62.8131 107.295 62.9058 107.275C62.9985 107.255 63.0949 107.263 63.1833 107.297C63.2718 107.332 63.3484 107.391 63.4038 107.468C63.4593 107.546 63.4912 107.638 63.4956 107.733C63.5001 107.828 63.4769 107.922 63.429 108.005C63.381 108.087 63.3103 108.153 63.2255 108.196C63.1407 108.238 63.0454 108.255 62.9512 108.244C62.8187 108.22 62.7006 108.146 62.6219 108.036C62.5431 107.926 62.5099 107.79 62.5293 107.656Z" fill="#06112D"/>
<path d="M67.2737 106.517C67.2943 106.424 67.3412 106.339 67.4086 106.273C67.4761 106.206 67.5612 106.161 67.6537 106.142C67.7462 106.123 67.8422 106.132 67.93 106.167C68.0177 106.202 68.0936 106.262 68.1484 106.339C68.2031 106.416 68.2345 106.508 68.2386 106.603C68.2427 106.697 68.2194 106.792 68.1715 106.873C68.1236 106.955 68.0532 107.021 67.9687 107.064C67.8843 107.106 67.7895 107.123 67.6957 107.112C67.6289 107.102 67.5649 107.077 67.5074 107.042C67.4499 107.006 67.4001 106.959 67.3609 106.903C67.3216 106.848 67.2937 106.785 67.2787 106.719C67.2638 106.652 67.2621 106.584 67.2737 106.517Z" fill="#06112D"/>
<path d="M1.99995 194.49L1.70385 193.38C0.574209 189.099 1.18 184.542 3.38818 180.71C5.59636 176.878 9.22638 174.084 13.481 172.941L90.3618 152.346C92.4688 151.781 94.6658 151.64 96.8273 151.929C98.9888 152.218 101.072 152.933 102.959 154.032C104.846 155.132 106.499 156.594 107.824 158.336C109.149 160.078 110.12 162.066 110.681 164.185L110.977 165.295C111.539 167.415 111.68 169.626 111.392 171.801C111.104 173.976 110.392 176.073 109.299 177.971C108.205 179.87 106.75 181.533 105.018 182.867C103.285 184.2 101.308 185.176 99.2002 185.741L22.3194 206.336C18.0632 207.473 13.5327 206.863 9.7229 204.642C5.91306 202.421 3.13539 198.77 1.99995 194.49Z" fill="#5FBB72"/>
<path d="M24.8803 188.675L28.5149 187.647L30.21 193.716C29.5089 194.58 28.6681 195.32 27.7228 195.905C26.7585 196.517 25.7114 196.986 24.6138 197.297C23.1885 197.723 21.6802 197.787 20.2242 197.483C18.8634 197.201 17.6075 196.544 16.5971 195.584C15.5792 194.581 14.8389 193.328 14.4495 191.949C14.0601 190.57 14.0349 189.113 14.3764 187.722C14.7485 186.368 15.4894 185.145 16.5157 184.192C17.6243 183.166 18.9664 182.43 20.4241 182.048C21.6706 181.671 22.9804 181.555 24.2733 181.705C25.4414 181.845 26.5587 182.267 27.5304 182.934L25.5761 186.054C24.9971 185.662 24.3399 185.403 23.6508 185.293C22.9616 185.184 22.257 185.228 21.5863 185.421C21.0267 185.551 20.4994 185.795 20.0362 186.137C19.573 186.478 19.1837 186.911 18.8918 187.409C18.6147 187.919 18.4454 188.481 18.3945 189.061C18.3435 189.64 18.412 190.223 18.5957 190.774C18.7926 191.531 19.1772 192.226 19.7135 192.792C20.2243 193.321 20.8737 193.693 21.5863 193.864C22.3412 194.046 23.1304 194.023 23.8736 193.797C24.6445 193.587 25.3597 193.208 25.9685 192.688L24.8803 188.675Z" fill="white"/>
<path d="M38.3451 192.368C37.318 192.132 36.3488 191.689 35.4954 191.068C34.642 190.447 33.9219 189.658 33.3781 188.751C32.8343 187.843 32.478 186.834 32.3304 185.785C32.1829 184.736 32.2472 183.667 32.5194 182.643C32.896 181.291 33.6333 180.068 34.6513 179.107C35.7447 178.078 37.075 177.338 38.5227 176.955C39.9654 176.526 41.491 176.462 42.9642 176.769C43.991 177.007 44.9597 177.45 45.8127 178.072C46.6656 178.695 47.3853 179.484 47.9288 180.392C48.4724 181.3 48.8288 182.309 48.9767 183.358C49.1246 184.407 49.061 185.476 48.7898 186.5C48.4148 187.851 47.6772 189.072 46.6579 190.03C45.5491 191.039 44.2224 191.775 42.7825 192.181C41.3425 192.587 39.8286 192.651 38.3599 192.368H38.3451ZM43.66 187.669C44.1629 187.151 44.5116 186.501 44.6667 185.793C44.8201 185.019 44.7895 184.22 44.5772 183.46C44.3649 182.701 43.9771 182.002 43.4453 181.422C42.9495 180.901 42.3188 180.53 41.6243 180.35C40.9222 180.153 40.1798 180.153 39.4777 180.35C38.7751 180.539 38.1359 180.914 37.6271 181.437C37.1293 181.956 36.7835 182.602 36.6277 183.306C36.4751 184.079 36.5055 184.878 36.7164 185.637C36.9273 186.396 37.3128 187.095 37.8417 187.677C38.3399 188.2 38.973 188.574 39.6701 188.756C40.3752 188.929 41.1124 188.916 41.8111 188.719C42.5098 188.522 43.1464 188.148 43.66 187.632V187.669Z" fill="white"/>
<path d="M63.7727 182.882L57.6139 184.654L57.2586 187.826L53.0615 189.002L55.408 172.554L59.4645 171.408L69.9907 184.237L65.7047 185.398L63.7727 182.882ZM61.6926 180.186L58.517 176.024L57.947 181.236L61.6926 180.186Z" fill="white"/>
<path d="M69.1538 168.645L73.2769 167.484L76.4377 178.839L83.3811 176.888L84.299 180.171L73.2325 183.284L69.1538 168.645Z" fill="white"/>
<path d="M89.5988 178.518C88.5737 178.558 87.5495 178.42 86.5712 178.109L87.0746 174.669C88.7602 175.181 90.5542 175.212 92.2562 174.758C93.8305 174.321 94.509 173.703 94.2919 172.904C94.2323 172.698 94.1106 172.516 93.9435 172.382C93.7764 172.249 93.5722 172.171 93.3592 172.16C92.5762 172.088 91.7883 172.088 91.0053 172.16C90.0194 172.227 89.0302 172.227 88.0443 172.16C87.2542 172.1 86.4912 171.844 85.8236 171.415C85.0664 170.886 84.5372 170.088 84.3431 169.181C84.0934 168.323 84.1115 167.408 84.395 166.56C84.7291 165.64 85.3203 164.836 86.0975 164.245C87.0978 163.476 88.244 162.921 89.4656 162.614C90.4194 162.347 91.4003 162.189 92.3895 162.145C93.303 162.09 94.2193 162.178 95.1062 162.406L94.6916 165.838C93.2661 165.472 91.772 165.472 90.3464 165.838C89.7146 165.966 89.1304 166.268 88.6587 166.709C88.5147 166.85 88.4113 167.028 88.3592 167.223C88.3071 167.418 88.3083 167.624 88.3626 167.819C88.4231 168.016 88.5435 168.188 88.7069 168.313C88.8703 168.437 89.0683 168.506 89.2731 168.511C90.0414 168.58 90.8143 168.58 91.5826 168.511C92.5684 168.441 93.5578 168.441 94.5436 168.511C95.3322 168.578 96.0935 168.833 96.7643 169.256C97.5198 169.766 98.0502 170.55 98.2448 171.445C98.4883 172.294 98.4676 173.199 98.1855 174.036C97.8447 174.957 97.2519 175.762 96.4756 176.359C95.4755 177.124 94.3325 177.678 93.1149 177.99C91.9701 178.316 90.7885 178.494 89.5988 178.518Z" fill="white"/>
<path d="M40.8031 132.719C39.6853 138.832 37.9236 148.69 38.7452 153.664C39.0428 155.46 39.7083 157.174 40.6994 158.697C44.4821 164.595 49.9968 168.318 53.846 174.17C54.998 175.663 56.3225 177.013 57.7915 178.191C58.8648 178.518 57.5102 175.778 56.7551 174.862C57.6878 176.754 60.5303 179.665 61.1595 179.33C61.7887 178.995 59.3238 175.428 58.1986 174.446C59.383 176.002 61.9738 178.786 62.5882 178.362C63.4987 177.737 61.0633 175.257 59.99 174.006C61.0189 175.57 63.78 176.851 64.1871 175.979C64.3722 175.577 61.7295 173.254 60.3971 171.512C61.1373 171.207 61.7961 171.609 62.6178 171.75C63.4395 171.892 64.5942 171.005 64.002 170.41C63.8194 170.247 63.5869 170.153 63.3432 170.142L58.2504 169.293C57.2941 169.202 56.368 168.908 55.5338 168.429C54.8425 167.902 54.2486 167.257 53.7794 166.523C51.1491 162.924 48.6298 159.229 46.2216 155.436C45.6628 154.676 45.2762 153.801 45.089 152.875C45.0313 152.166 45.0812 151.453 45.2371 150.76C46.1155 145.508 46.9989 140.261 47.8871 135.019C45.8441 134.454 42.4834 133.977 40.7883 132.711" fill="#BB535D"/>
<path d="M45.2517 123.858C40.9806 124.915 38.8191 132.592 38.8191 132.592C38.8191 132.592 36.4725 139.42 36.4207 143.143C37.9974 143.545 46.3325 143.888 49.6931 145.861C50.8849 140.001 52.0767 133.947 50.7591 128.087C50.426 126.598 49.8708 125.072 48.6642 124.156C47.4576 123.24 45.8809 123.702 45.2517 123.858Z" fill="#0096AE"/>
<path d="M66.4891 101.766C66.7701 101.823 67.0175 101.989 67.1775 102.228C67.866 102.518 68.658 102.972 69.0725 102.191C69.1907 101.474 69.1165 100.739 68.8579 100.061C68.31 98.82 67.3638 97.8 66.1708 97.1646C63.8761 95.8392 60.9004 95.6754 59.035 96.6583C55.5929 96.2636 52.0249 98.6165 51.1885 101.87C50.8035 103.36 50.8998 105.035 49.9449 106.271C49.6023 106.695 49.1648 107.031 48.6682 107.253C48.1716 107.474 47.6299 107.574 47.0876 107.544C45.7107 107.462 44.5412 106.584 43.2309 106.189C42.2242 105.902 41.1584 105.898 40.1495 106.177C39.1406 106.457 38.2273 107.01 37.5089 107.775C36.4874 108.914 36.0285 110.478 34.7627 111.409C33.7855 112.153 32.4975 112.369 31.4094 112.898C30.3107 113.53 29.4164 114.468 28.8336 115.598C28.2507 116.728 28.0039 118.004 28.1227 119.271C28.4406 121.797 29.5898 124.143 31.3872 125.936C34.0965 128.964 37.8259 130.874 41.8541 131.297C45.8958 131.617 50.1891 129.964 52.4617 126.747C53.2685 125.6 53.8311 124.275 54.8526 123.285C55.4744 122.682 56.2517 122.227 56.8809 121.632C57.9629 120.509 58.7094 119.103 59.035 117.574C59.9007 114.282 59.7979 110.808 58.7389 107.574C58.2853 106.511 58.0342 105.372 57.9986 104.216C58.007 103.625 58.2225 103.056 58.6071 102.609C58.9917 102.162 59.5207 101.866 60.1009 101.774C61.6406 101.684 63.0248 103.419 64.4387 102.846C65.1493 102.548 65.6897 101.64 66.4891 101.766Z" fill="#06112D"/>
<path d="M163.275 49.6002C163.275 49.6002 137.197 40.5311 133.88 68.766C133.88 68.766 149.781 84.8789 163.275 49.6002Z" fill="#5FBB72"/>
<path d="M85.1875 95.2063C100.732 136.121 122.717 130.805 130.342 127.402C131.015 133.925 131.919 140.507 133.096 146.978C134.376 146.821 138.225 146.978 138.225 146.978C137.204 141.43 136.375 135.809 135.694 130.195C145.472 133.53 170.418 137.298 188.539 98.7877C188.539 98.7877 146.183 92.0864 134.398 117.35C133.814 110.307 133.443 103.434 133.236 96.9784C138.84 100.21 159.411 108.735 176.392 71.9379C176.392 71.9379 141.253 63.0847 133.066 89.8899C132.74 70.6944 133.717 56.3238 134.043 53.8443C156.509 39.4142 137.522 3.8154 137.522 3.8154C139.587 10.8741 132.94 16.6521 132.94 16.6521C132.94 16.6521 124.879 21.7004 124.413 35.6689C124.087 45.3486 127.877 50.8809 130.231 53.3902C129.89 56.093 128.995 65.9886 128.654 79.6518C118.816 62.6454 93.5966 65.8248 93.5966 65.8248C104.027 99.9865 120.985 99.3685 128.587 97.0529C128.662 101.52 128.81 106.1 129.061 110.828C117.425 89.257 85.1875 95.2063 85.1875 95.2063Z" fill="#9ED5AB"/>
<path d="M172.283 130.068L191.692 288.613C191.722 288.871 191.801 289.12 191.927 289.346C192.052 289.573 192.221 289.772 192.423 289.932C192.625 290.093 192.857 290.212 193.105 290.282C193.353 290.352 193.613 290.372 193.869 290.341C194.386 290.269 194.855 289.993 195.171 289.575C195.487 289.156 195.626 288.628 195.556 288.107L194.113 276.313L219.977 272.984L221.42 284.779C221.453 285.034 221.535 285.28 221.662 285.503C221.789 285.727 221.959 285.923 222.161 286.08C222.364 286.237 222.595 286.353 222.842 286.42C223.089 286.488 223.346 286.505 223.6 286.473C223.854 286.44 224.099 286.357 224.321 286.229C224.543 286.101 224.737 285.931 224.894 285.727C225.05 285.524 225.165 285.291 225.232 285.043C225.299 284.794 225.317 284.535 225.284 284.28L205.875 125.749C205.846 125.492 205.766 125.242 205.641 125.015C205.515 124.789 205.347 124.589 205.145 124.428C204.943 124.267 204.711 124.147 204.463 124.076C204.215 124.005 203.955 123.984 203.699 124.014C203.182 124.088 202.715 124.364 202.399 124.783C202.083 125.201 201.944 125.727 202.011 126.248L203.817 140.991L177.954 144.319L176.147 129.554C176.115 129.299 176.033 129.053 175.905 128.83C175.778 128.606 175.609 128.41 175.406 128.253C175.204 128.096 174.972 127.98 174.726 127.913C174.479 127.845 174.221 127.828 173.967 127.86C173.714 127.893 173.469 127.976 173.247 128.104C173.025 128.232 172.83 128.402 172.674 128.606C172.517 128.809 172.403 129.042 172.336 129.29C172.269 129.539 172.251 129.798 172.283 130.053V130.068ZM192.144 260.245L218.015 256.924L219.562 269.582L193.698 272.91L192.144 260.245ZM190.182 244.176L216.039 240.848L217.593 253.506L191.729 256.834L190.182 244.176ZM188.206 228.101L214.077 224.772L215.624 237.43L189.753 240.759L188.206 228.101ZM186.244 212.032L212.108 208.704L213.655 221.362L187.791 224.69L186.244 212.032ZM184.275 195.957L210.139 192.628L211.693 205.286L185.822 208.615L184.275 195.957ZM182.306 179.888L208.17 176.553L209.724 189.211L183.816 192.539L182.306 179.888ZM180.337 163.805L206.245 160.477L207.792 173.135L181.892 176.463L180.337 163.805ZM178.375 147.73L204.239 144.446L205.786 157.104L179.878 160.44L178.375 147.73Z" fill="#0096AE"/>
<path d="M170.825 137C173.26 141.08 175.015 145.511 177.117 149.762C177.927 151.674 178.961 153.481 180.196 155.146C180.811 155.836 181.49 156.464 182.225 157.022C182.262 157.402 182.306 157.767 182.35 158.146C182.624 160.246 183.009 161.728 185.03 162.659C186.909 163.423 188.889 163.907 190.908 164.096C194.305 164.557 198.236 163.738 201.382 162.502C203.06 161.938 204.581 160.984 205.823 159.718C206.307 159.161 206.67 158.51 206.889 157.805C207.108 157.1 207.179 156.356 207.097 155.622C208.851 155.339 210.961 153.552 211.827 152.644C214.204 150.039 215.504 146.62 215.461 143.083C215.44 142.346 215.248 141.623 214.901 140.974C214.553 140.324 214.06 139.764 213.46 139.34C212.86 138.916 212.169 138.638 211.444 138.529C210.718 138.42 209.977 138.483 209.28 138.713C208.121 139.119 207.088 139.822 206.282 140.753C205.69 141.258 205.145 141.816 204.654 142.421C204.456 142.653 204.277 142.903 204.121 143.165C203.97 142.815 203.746 142.502 203.466 142.245C203.185 141.988 202.853 141.794 202.492 141.676C202.364 141.624 202.233 141.579 202.1 141.542C199.924 140.515 196.445 140.559 194.468 140.686C192.277 140.754 190.109 141.153 188.035 141.87C187.51 142.071 186.998 142.307 186.503 142.577H186.459C184.083 143.322 183.091 145.972 182.654 148.184C182.573 148.601 182.499 149.025 182.439 149.45C181.228 148.459 180.158 147.307 179.256 146.025C177.872 144.171 176.554 142.302 175.266 140.351C174.763 139.606 174.267 138.862 173.786 138.057C173.509 137.51 173.152 137.008 172.727 136.568C172.605 136.417 172.447 136.299 172.268 136.224C172.089 136.15 171.894 136.122 171.701 136.142C171.509 136.163 171.324 136.232 171.165 136.343C171.005 136.454 170.876 136.603 170.788 136.777C170.769 136.813 170.762 136.854 170.769 136.895C170.776 136.935 170.795 136.972 170.825 137ZM205.512 147.35C206.471 145.163 207.807 143.164 209.458 141.445C209.816 141.308 210.202 141.257 210.583 141.296C213.241 141.579 213.433 144.647 212.804 146.657C212.17 148.793 210.942 150.703 209.265 152.16C208.635 152.766 207.818 153.139 206.949 153.217H206.845C206.54 151.22 206.095 149.247 205.512 147.313V147.35Z" fill="#5FBB72"/>
<path d="M243.213 108.132C239.201 108.423 235.892 111.759 234.33 115.578C232.768 119.398 232.576 123.642 232.428 127.79L231.317 157.104C231.214 157.801 231.356 158.511 231.717 159.114C232.21 159.578 232.856 159.844 233.531 159.859C245.962 161.815 258.643 161.484 270.957 158.884C266.553 145.794 267.559 131.52 265.775 117.79C265.413 114.983 264.82 111.967 262.814 110.053C260.808 108.14 257.707 107.768 254.901 107.693C250.29 107.567 245.67 107.931 243.228 108.11" fill="#0096AE"/>
<path d="M218.792 146.203C217.504 146.061 216.284 145.543 215.284 144.714C214.88 144.284 214.407 143.927 213.885 143.657C213.362 143.487 212.803 143.467 212.27 143.598C211.736 143.73 211.25 144.008 210.865 144.401C210.27 145.133 209.932 146.041 209.902 146.985C209.831 147.727 209.811 148.474 209.843 149.219C209.84 149.421 209.889 149.621 209.984 149.8C210.151 149.998 210.365 150.152 210.605 150.246C212.651 151.206 214.904 151.634 217.156 151.49C217.618 151.502 218.073 151.372 218.459 151.118C218.613 150.96 218.728 150.768 218.795 150.557C218.862 150.346 218.879 150.122 218.844 149.904C218.844 148.556 218.844 147.201 218.792 146.181" fill="#FFB299"/>
<path d="M243.657 97.0753C243.306 101.307 242.653 105.507 241.703 109.644C241.532 110.11 241.532 110.622 241.703 111.088C241.865 111.326 242.074 111.528 242.315 111.682C242.557 111.837 242.827 111.942 243.109 111.989C245.996 112.853 249.357 113.099 251.785 111.394C251.964 111.292 252.107 111.135 252.192 110.947C252.233 110.717 252.202 110.481 252.103 110.269C251.185 107.559 251.096 104.67 251.015 101.826L250.882 97.0083C248.472 96.8659 246.056 96.8882 243.65 97.0753" fill="#FFB299"/>
<path d="M241.525 89.1379C240.592 90.5899 240.703 92.3992 239.978 93.9256C239.171 95.4095 238.623 97.0212 238.357 98.691C238.236 99.5384 238.336 100.403 238.646 101.2C238.956 101.997 239.466 102.7 240.126 103.24C242.672 105.072 247.077 103.784 248.513 102.496C250.272 100.667 251.569 98.4404 252.295 96.0031C252.851 93.7023 251.666 91.2377 249.838 89.6517C248.903 88.8632 247.783 88.3288 246.584 88.0994C245.385 87.87 244.148 87.9533 242.991 88.3412C242.437 88.4896 241.928 88.7735 241.51 89.1677" fill="#FFB299"/>
<path d="M252.488 85.3033C250.415 84.4321 248.047 84.6778 245.878 85.1842L245.137 85.3554H245.063C243.733 85.4096 242.408 85.1548 241.192 84.6108C240.334 84.1782 239.382 83.9683 238.423 84.0003C236.203 84.2088 236.499 87.7753 237.084 89.1454C237.273 89.6294 237.573 90.0621 237.958 90.4086C238.344 90.7552 238.805 91.006 239.304 91.1409C239.404 91.231 239.519 91.3017 239.645 91.3494C240.633 91.5965 241.674 91.5075 242.606 91.0962C243.151 90.8739 243.741 90.7837 244.327 90.8328C244.913 90.882 245.48 91.0691 245.981 91.3791C247.099 91.9972 247.602 93.047 248.683 93.6129C248.969 93.5166 249.264 93.4517 249.564 93.4193C250.43 93.4193 250.926 94.5064 250.8 95.3776C250.565 96.2211 250.278 97.0492 249.942 97.8571C249.716 99.1567 249.816 100.492 250.23 101.744C250.257 101.918 250.322 102.083 250.423 102.228C250.785 102.704 251.585 102.399 251.903 101.878C252.221 101.357 252.251 100.724 252.532 100.195C252.848 99.712 253.244 99.2864 253.702 98.9367C254.721 98.0354 255.528 96.9166 256.063 95.6621C256.599 94.4075 256.849 93.0486 256.796 91.6844C256.718 90.3286 256.276 89.0195 255.517 87.896C254.759 86.7725 253.712 85.8765 252.488 85.3033Z" fill="#06112D"/>
<path d="M243.975 93.33C243.167 94.846 242.097 96.205 240.815 97.3433C240.755 97.388 240.704 97.4401 240.704 97.4997C240.703 97.5272 240.708 97.5545 240.718 97.5801C240.729 97.6057 240.744 97.6289 240.763 97.6486C240.945 97.884 241.178 98.0737 241.446 98.2029C241.713 98.3321 242.006 98.3972 242.302 98.3932" stroke="#06112D" stroke-width="0.5" stroke-miterlimit="10"/>
<path d="M240.089 99.3983C240.388 99.78 240.781 100.076 241.229 100.258C241.677 100.439 242.165 100.5 242.643 100.433" stroke="#06112D" stroke-width="0.5" stroke-miterlimit="10"/>
<path d="M244.826 94.1565C245.248 93.9296 245.736 93.8609 246.203 93.9629C246.667 94.0761 247.104 94.2784 247.491 94.5585C247.795 94.7415 248.05 94.9973 248.232 95.3031" stroke="#06112D" stroke-width="0.5" stroke-miterlimit="10"/>
<path d="M240.992 93.0694C241.162 92.9535 241.353 92.8727 241.554 92.8317C241.755 92.7906 241.962 92.7902 242.163 92.8304C242.364 92.8706 242.555 92.9506 242.725 93.0657C242.896 93.1809 243.041 93.3289 243.154 93.5012" stroke="#06112D" stroke-width="0.5" stroke-miterlimit="10"/>
<path d="M245.381 95.4371C245.424 95.3134 245.512 95.2113 245.629 95.1528C245.745 95.0943 245.88 95.0841 246.003 95.1244C246.124 95.1699 246.222 95.26 246.279 95.3764C246.335 95.4927 246.345 95.6263 246.307 95.7499C246.287 95.8117 246.255 95.8689 246.212 95.9182C246.17 95.9674 246.119 96.0078 246.061 96.0369C246.003 96.066 245.94 96.0832 245.875 96.0876C245.811 96.092 245.746 96.0835 245.685 96.0626C245.564 96.0171 245.466 95.9269 245.409 95.8106C245.353 95.6943 245.343 95.5606 245.381 95.4371Z" fill="#06112D"/>
<path d="M241.141 94.0001C241.16 93.9375 241.191 93.8793 241.233 93.829C241.275 93.7786 241.326 93.737 241.384 93.7066C241.442 93.6761 241.505 93.6575 241.57 93.6516C241.635 93.6458 241.7 93.6528 241.762 93.6724C241.887 93.7193 241.987 93.8137 242.043 93.935C242.098 94.0564 242.104 94.1948 242.058 94.3202C242.043 94.3874 242.014 94.4506 241.972 94.5057C241.931 94.5608 241.879 94.6065 241.819 94.6398C241.759 94.6732 241.692 94.6935 241.624 94.6994C241.556 94.7053 241.487 94.6967 241.422 94.6741C241.358 94.6515 241.298 94.6154 241.248 94.5682C241.198 94.5211 241.159 94.4638 241.132 94.4003C241.105 94.3367 241.092 94.2682 241.094 94.1993C241.095 94.1303 241.111 94.0624 241.141 94.0001Z" fill="#06112D"/>
<path d="M265.998 117.067C265.642 114.737 265.08 112.317 263.451 110.537C261.823 108.758 258.817 107.909 258.869 108.505C253.621 111.006 251.289 116.874 250.179 122.324C249.068 127.775 248.602 133.597 245.323 138.214C244.455 139.516 243.277 140.578 241.895 141.304C240.404 141.923 238.815 142.274 237.202 142.339L217.993 144.297C217.934 144.841 217.867 145.377 217.823 145.92C217.58 148.673 217.518 151.439 217.638 154.2L222.753 155.265C229.511 156.672 236.514 158.087 243.287 156.754C251.859 155.027 259.01 148.854 262.785 141.386C266.56 133.918 267.226 125.288 265.998 117.097" fill="#0096AE"/>
</svg>
