<svg width="48" height="48" viewBox="0 0 48 48" fill="none" xmlns="http://www.w3.org/2000/svg">
<path d="M0 24C0 10.7452 10.7452 0 24 0C37.2548 0 48 10.7452 48 24C48 37.2548 37.2548 48 24 48C10.7452 48 0 37.2548 0 24Z" fill="#3b5f87"/>
<path d="M34 27V23.5C34 21.0147 31.9853 19 29.5 19H27.5C26.6716 19 26 18.3284 26 17.5V15.5C26 13.0147 23.9853 11 21.5 11H19M28 27L24 23M24 23L20 27M24 23L24 31M22 11H15.5C14.6716 11 14 11.6716 14 12.5V35.5C14 36.3284 14.6716 37 15.5 37H32.5C33.3284 37 34 36.3284 34 35.5V23C34 16.3726 28.6274 11 22 11Z" stroke="white" stroke-width="1.5" stroke-linecap="round" stroke-linejoin="round"/>
</svg>
